<svg version="1.1" id="Warstwa_1" xmlns="http://www.w3.org/2000/svg" x="0" y="0" viewBox="0 0 248 43.5" xml:space="preserve"><style>.st0{fill:#fff}.st1{fill:#76227d;stroke:#fff;stroke-width:.198;stroke-miterlimit:10}</style><path class="st0" d="M33.5 43.2c-.6-4.6-1.2-9.2-.3-13.9.2-1.2.7-2.4 1.3-3.6 2.4-4.4 3.5-9.1 2.5-14.2-.8-3.9-3.4-7.2-7-9C25.7.3 21.1-.5 16.2.2 11.4 1 7.8 3.6 5.1 7.5c-2.3 3.4-2.7 7.1-1.7 10.9.9 3.2-.4 5.3-2.6 7.2-1.1.9-1.1 1.5.1 2.2l1.5.9c.8.6 1.1 1.4.7 2.4-1 2.2-.7 2.5 1.5 3.2.5.2.9.8 1.1 1.3.2.5 0 1.2 0 1.8-.1 1.7.5 2.2 2.1 2 1.4-.2 2.8-.4 4.3-.5 2.2-.2 4.8 2.1 5.5 4.2"/><path class="st0" d="M31.6 13c0-.2.1-.4.1-.6 0-.4 0-.7-.1-1.1l1.8-.9-.6-1.4-1.9.6c-.3-.5-.7-.9-1.2-1.2l.6-1.9-1.5-.6-.9 1.7c-.2 0-.4-.1-.7-.1-.4 0-.7 0-1.1.1l-.9-1.8-1.5.6.6 1.9c-.3.3-.7.7-1.1 1.2l-1.9-.6-.6 1.5 1.7.9c0 .2-.1.4-.1.7 0 .4 0 .7.1 1.1l-1.8.9.6 1.5 1.9-.6c.3.5.7.9 1.2 1.2l-.6 1.9 1.5.6.9-1.7c.2 0 .4.1.6.1.4 0 .7 0 1.1-.1l.9 1.8 1.5-.6-.6-2.1c.5-.3.9-.7 1.2-1.2l1.9.6.6-1.5-1.7-.9zm-7.1-1c.1-1.4 1.3-2.5 2.7-2.4 1.4.1 2.5 1.3 2.4 2.7-.1 1.4-1.3 2.5-2.7 2.4-1.4-.1-2.4-1.3-2.4-2.7"/><path class="st1" d="M31.6 13c0-.2.1-.4.1-.6 0-.4 0-.7-.1-1.1l1.8-.9-.6-1.4-1.9.6c-.3-.5-.7-.9-1.2-1.2l.6-1.9-1.5-.6-.9 1.7c-.2 0-.4-.1-.7-.1-.4 0-.7 0-1.1.1l-.9-1.8-1.5.6.6 1.9c-.3.3-.7.7-1.1 1.2l-1.9-.6-.6 1.5 1.7.9c0 .2-.1.4-.1.7 0 .4 0 .7.1 1.1l-1.8.9.6 1.5 1.9-.6c.3.5.7.9 1.2 1.2l-.6 1.9 1.5.6.9-1.7c.2 0 .4.1.6.1.4 0 .7 0 1.1-.1l.9 1.8 1.5-.6-.6-2.1c.5-.3.9-.7 1.2-1.2l1.9.6.6-1.5-1.7-.9zm-7.1-1c.1-1.4 1.3-2.5 2.7-2.4 1.4.1 2.5 1.3 2.4 2.7-.1 1.4-1.3 2.5-2.7 2.4-1.4-.1-2.4-1.3-2.4-2.7z"/><path class="st0" d="M17.5 13.2c.1-.2.2-.3.3-.5.1-.3.2-.6.2-.9l1.6-.2v-1.3l-1.6-.1c-.1-.5-.3-.9-.6-1.3l1-1.3-1-.9-1.2 1.1c-.2-.1-.3-.2-.5-.3-.3-.1-.6-.2-.9-.2l-.2-1.6-1.3.1-.1 1.6c-.5.1-.9.3-1.3.6l-1.3-1-.8 1 1.1 1.2c-.1.2-.2.3-.3.5-.1.3-.2.6-.2.9l-1.6.2v1.3l1.6.1c.1.5.3.9.6 1.3l-1 1.3 1 .9 1.2-1.1c.2.1.3.2.5.3.3.1.6.2.9.2l.2 1.6h1.3l.1-1.6c.5-.1.9-.3 1.3-.6l1.3 1 .9-1-1.2-1.3zM16.1 12c-.4 1.1-1.7 1.6-2.7 1.1-1.1-.5-1.6-1.7-1.1-2.8.5-1.1 1.7-1.6 2.7-1.1 1.1.5 1.6 1.8 1.1 2.8"/><path class="st1" d="M17.5 13.2c.1-.2.2-.3.3-.5.1-.3.2-.6.2-.9l1.6-.2v-1.3l-1.6-.1c-.1-.5-.3-.9-.6-1.3l1-1.3-1-.9-1.2 1.1c-.2-.1-.3-.2-.5-.3-.3-.1-.6-.2-.9-.2l-.2-1.6-1.3.1-.1 1.6c-.5.1-.9.3-1.3.6l-1.3-1-.8 1 1.1 1.2c-.1.2-.2.3-.3.5-.1.3-.2.6-.2.9l-1.6.2v1.3l1.6.1c.1.5.3.9.6 1.3l-1 1.3 1 .9 1.2-1.1c.2.1.3.2.5.3.3.1.6.2.9.2l.2 1.6h1.3l.1-1.6c.5-.1.9-.3 1.3-.6l1.3 1 .9-1-1.2-1.3zM16.1 12c-.4 1.1-1.7 1.6-2.7 1.1-1.1-.5-1.6-1.7-1.1-2.8.5-1.1 1.7-1.6 2.7-1.1 1.1.5 1.6 1.8 1.1 2.8z"/><path d="M22.7 23.2c.1-.2.1-.4.2-.5.1-.3.1-.6.1-.9l1.6-.5-.3-1.3-1.7.2c-.2-.5-.5-.9-.8-1.2l.8-1.5-1.1-.7-1 1.3c-.2-.1-.4-.1-.5-.2-.3-.1-.6-.1-.9-.1l-.5-1.6-1.3.3.2 1.7c-.5.2-.9.5-1.2.8l-1.5-.8-.7 1.2 1.3 1c-.1.2-.1.4-.2.5-.2.3-.2.6-.2.9l-1.6.5.3 1.3 1.7-.2c.2.5.5.9.8 1.2l-.8 1.5 1.1.7 1-1.3c.2.1.4.1.5.2.3.1.6.1.9.1l.5 1.6 1.3-.3-.2-1.7c.4-.2.9-.5 1.2-.8l1.5.8.7-1.2-1.2-1zm-1.6-.9c-.3 1.2-1.4 1.9-2.6 1.6-1.2-.3-1.9-1.4-1.6-2.6.3-1.2 1.4-1.9 2.6-1.6 1.2.2 1.9 1.4 1.6 2.6" fill="#a8a8a7"/><path d="M22.7 23.2c.1-.2.1-.4.2-.5.1-.3.1-.6.1-.9h0l1.6-.5-.3-1.3-1.7.2c-.2-.5-.5-.9-.8-1.2h0l.8-1.5-1.1-.7-1 1.3h0c-.2-.1-.4-.1-.5-.2-.3-.1-.6-.1-.9-.1h0l-.5-1.6-1.3.3.2 1.7c-.5.2-.9.5-1.2.8h0l-1.5-.8-.7 1.2 1.3 1h0c-.1.2-.1.4-.2.5-.2.3-.2.6-.2.9v0l-1.6.5.3 1.3 1.7-.2v0c.2.5.5.9.8 1.2l-.8 1.5 1.1.7 1-1.3c.2.1.4.1.5.2.3.1.6.1.9.1h0l.5 1.6 1.3-.3-.2-1.7c.4-.2.9-.5 1.2-.8v0l1.5.8.7-1.2-1.2-1h0zm-1.6-.9c-.3 1.2-1.4 1.9-2.6 1.6-1.2-.3-1.9-1.4-1.6-2.6.3-1.2 1.4-1.9 2.6-1.6 1.2.2 1.9 1.4 1.6 2.6z" fill="#76227d" stroke="#a8a8a7" stroke-width=".198" stroke-miterlimit="10"/><path class="st0" d="M57.5 12.1c-.4.9-1 1.6-1.8 2.1s-1.6.9-2.7 1.2c-1 .2-2.2.3-3.4.3H48c-.6 0-1-.1-1.5-.1v8.5c0 .2 0 .3-.1.4-.1.1-.2.2-.4.2h-1.6c-.2 0-.3-.1-.4-.2V2.9c0-.4.2-.7.7-.8.6 0 1.4-.1 2.3-.1.9 0 1.8-.1 2.7-.1 1.2 0 2.4.1 3.4.3 1 .2 1.9.6 2.7 1.1.8.5 1.3 1.2 1.8 2 .4.8.6 1.9.6 3.1v.4c0 1.4-.2 2.4-.7 3.3m-2.1-3.6c0-1.5-.4-2.6-1.4-3.3-.9-.6-2.4-1-4.3-1h-1.6c-.6 0-1.1.1-1.4.1v8.9h3c2.1 0 3.5-.4 4.4-1.1.9-.7 1.3-1.8 1.3-3.4v-.2zm16.7 12c0 1.5-.5 2.7-1.6 3.4-1 .7-2.4 1-4.1 1h-1c-.4 0-.8 0-1.2-.1-.4 0-.9-.1-1.3-.2s-.8-.1-1.2-.2c-.4-.1-.6-.3-.6-.6v-1.1c0-.1 0-.3.2-.3.1-.1.2-.1.4-.1h.1c.4 0 .8.1 1.2.1.4 0 .9.1 1.3.1s.9.1 1.3.1h1c1 0 1.7-.2 2.2-.5.5-.3.8-.9.8-1.7 0-.5-.2-.9-.5-1.2-.3-.3-.9-.8-1.8-1.3l-3.1-1.8c-.9-.6-1.7-1.2-2.2-1.9-.6-.7-.8-1.5-.8-2.5 0-.8.1-1.4.4-2 .3-.5.7-.9 1.1-1.2.5-.3 1.1-.5 1.7-.7.7-.1 1.4-.2 2.2-.2.8 0 1.7 0 2.5.1.7.3 1.4.3 2.1.5.4.1.6.3.6.6v1c0 .3-.2.5-.5.5h-.1c-.5 0-1.2-.1-2.1-.2-.9-.1-1.7-.1-2.6-.1s-1.5.1-2 .3c-.5.2-.8.7-.8 1.5 0 .5.2.9.5 1.2.3.3.9.7 1.6 1.1l3 1.8c1.2.7 2.1 1.5 2.6 2.2.4.7.7 1.5.7 2.4m16.4-12v.2l-5 17.5c-.2.8-.5 1.5-.8 2.1-.3.6-.6 1-1 1.4-.4.4-.9.6-1.5.8-.6.2-1.3.2-2.2.2-.4 0-.9 0-1.3-.1-.5 0-.9-.1-1.2-.2-.2 0-.3-.1-.5-.2-.1-.1-.2-.2-.2-.3v-1.1c0-.3.2-.5.6-.5h.1c.3 0 .8.1 1.3.1.6 0 1 .1 1.3.1.4 0 .8 0 1.1-.1.3-.1.6-.2.8-.4.2-.2.4-.5.6-.8.2-.3.3-.8.4-1.3l.3-1.2h-.4c-.2 0-.4 0-.7-.1-.2 0-.4-.1-.6-.3-.2-.1-.4-.4-.5-.6-.2-.3-.3-.7-.5-1.1l-4-13.9v-.2c.2-.3.4-.5.7-.5H77c.1 0 .2.1.3.2.1.1.2.2.2.3l3.6 13.2c.1.3.2.5.3.6.1.1.2.1.3.1h.5l3.7-13.9c0-.1.1-.2.2-.3 0-.2.1-.2.3-.2h1.7c.3 0 .4.2.4.5m13.4 15.8c-.1.1-.2.2-.5.2-.5.1-1.1.2-1.7.2-.7.1-1.3.1-2 .1-1 0-1.9-.2-2.7-.5-.8-.4-1.5-.9-2-1.5-.6-.6-1-1.4-1.3-2.3-.3-.9-.4-1.9-.4-3v-2.4c0-1.1.1-2.1.4-3 .3-.9.7-1.7 1.2-2.3.5-.6 1.2-1.1 2-1.5.8-.4 1.7-.5 2.7-.5.7 0 1.4 0 2 .1.7.1 1.2.1 1.7.2.2 0 .4.1.5.2.1.1.1.2.1.5v1.1c0 .2-.1.3-.2.3-.1.1-.2.1-.4.1h-.1c-.7-.1-1.3-.1-1.8-.2h-1.9c-1.2 0-2.1.4-2.8 1.2-.7.8-1 2.1-1 3.8v2.4c0 1.7.3 3 1 3.8.6.8 1.6 1.2 2.8 1.2h1.9c.5 0 1.1-.1 1.8-.2h.1c.1 0 .3 0 .4.1.1.1.2.2.2.3v1.1c.1.3.1.4 0 .5m16.1.2c-.1.1-.3.2-.4.2h-1.4c-.2 0-.3-.1-.4-.2-.1-.1-.2-.3-.2-.4v-10c0-1.5-.3-2.6-.9-3.1-.6-.6-1.4-.8-2.4-.8h-.9c-.3 0-.7.1-1.1.2-.4.1-.8.2-1.1.3-.4.1-.7.2-1.1.4v13.1c0 .2-.1.3-.2.4-.1.1-.3.2-.4.2H106c-.2 0-.3-.1-.4-.2-.1-.1-.2-.3-.2-.4V2.5c0-.2.1-.3.2-.4.1-.1.2-.2.4-.2h1.5c.2 0 .3.1.4.2.1.1.2.3.2.4v6.2c.7-.3 1.5-.6 2.4-.7.9-.2 1.6-.2 2.2-.2.8 0 1.5.1 2.2.4.7.2 1.2.6 1.7 1.1.5.5.9 1.2 1.1 2 .3.8.4 1.8.4 2.9v10s0 .2-.1.3m16.7-4c-.3.9-.7 1.7-1.3 2.3-.6.6-1.3 1.1-2.1 1.5-.8.4-1.8.5-2.9.5-1.1 0-2.1-.2-2.9-.5-.8-.4-1.5-.9-2.1-1.5-.6-.6-1-1.4-1.3-2.3-.3-.9-.4-1.9-.4-3v-2.3c0-1.1.1-2.1.4-3 .3-.9.7-1.7 1.3-2.3.6-.6 1.3-1.1 2.1-1.5.8-.4 1.8-.5 2.9-.5 1.1 0 2.1.2 2.9.5.8.4 1.5.9 2.1 1.5.6.6 1 1.4 1.3 2.3.3.9.4 1.9.4 3v2.3c0 1.1-.1 2.1-.4 3m-2.2-5.3c0-1.6-.3-2.8-1-3.7-.6-.9-1.7-1.4-3.1-1.4-1.4 0-2.4.4-3.1 1.3-.6.9-1 2.1-1 3.7v2.3c0 1.6.3 2.8 1 3.7.6.9 1.7 1.4 3.1 1.4 1.4 0 2.4-.5 3.1-1.3.7-.9 1-2.1 1-3.7v-2.3zm24.6 9.3c-.1.1-.3.2-.4.2h-1.5c-.2 0-.3-.1-.4-.2-.1-.1-.2-.3-.2-.4V6l-.1.1-4.3 9c-.2.3-.3.5-.5.7-.2.1-.5.2-.8.2h-1.4c-.4 0-.7-.1-.9-.2-.2-.1-.4-.4-.5-.7l-4.3-9s0-.1-.1-.1v18.1c0 .2-.1.3-.2.4-.1.1-.3.2-.4.2h-1.5c-.2 0-.3-.1-.4-.2-.1-.1-.2-.3-.2-.4V3c0-.2.1-.4.3-.6.2-.2.4-.3.6-.3h1.9c.3 0 .5 0 .6.1.1.1.2.2.3.4l5 10.4c.1.2.2.3.4.3.1 0 .3-.1.4-.3l5-10.4c.1-.2.2-.3.3-.4.1-.1.3-.1.6-.1h1.9c.2 0 .4.1.6.3.2.2.3.4.3.6v21c.1.2 0 .4-.1.5m17.4.1c0 .1-.1.1-.2.2-.3 0-.7.1-1.1.1h-4.8c-2.1 0-3.7-.4-4.8-1.3-1.1-.9-1.6-2.3-1.6-4.3V7.6c0-2 .5-3.5 1.6-4.3 1.1-.9 2.7-1.3 4.8-1.3h4.6c.5 0 .9 0 1.2.1.1 0 .2.1.2.2s.1.2.1.3V4c0 .2-.1.4-.3.4h-5.8c-.8 0-1.4.1-1.9.2s-.9.3-1.1.5c-.3.3-.4.6-.5 1-.1.4-.1.9-.1 1.5v4.2h9.3c.2 0 .3.1.4.2.1.1.2.3.2.4v1.1c0 .2-.1.3-.2.4-.1.1-.3.2-.4.2h-9.3v5.1c0 .6 0 1.1.1 1.5.1.4.3.7.5 1 .3.3.6.4 1.1.5.5.1 1.1.2 1.9.2h5.8c.2 0 .3.1.3.4v1.5c.1.1.1.2 0 .3m18.8-5c-.4 1.2-1 2.2-1.8 2.9-.8.8-1.8 1.4-2.9 1.7-1.1.4-2.4.6-3.8.6h-1.7c-.6 0-1.1 0-1.6-.1-.5 0-.9-.1-1.3-.1s-.7-.1-.9-.1c-.4-.1-.6-.3-.6-.8V3c0-.4.2-.7.6-.8.2 0 .5-.1.9-.1s.8-.1 1.3-.1 1-.1 1.6-.1h1.7c1.4 0 2.6.2 3.8.5 1.1.4 2.1.9 2.9 1.7.8.8 1.4 1.8 1.8 2.9.4 1.2.6 2.6.6 4.2v4.1c0 1.8-.2 3.2-.6 4.3m-2.1-8.3c0-1.4-.2-2.5-.5-3.4-.3-.9-.8-1.6-1.3-2.2-.6-.5-1.2-.9-2-1.1-.8-.2-1.6-.3-2.5-.3h-1.8c-.5 0-1 0-1.5.1v18.1c.5 0 1 .1 1.5.1h1.8c.9 0 1.7-.1 2.5-.3.8-.2 1.5-.6 2-1.2.6-.5 1-1.3 1.3-2.2.3-.9.5-2 .5-3.4v-4.2zm9.7 13.2c-.1.1-.2.2-.4.2h-1.7c-.2 0-.3-.1-.4-.2-.1-.1-.2-.3-.2-.4V2.7c0-.2.1-.3.2-.4.1-.1.2-.2.4-.2h1.7c.2 0 .3.1.4.2.1.1.2.2.2.4v21.4c-.1.1-.1.3-.2.4m18-.2c-.1.1-.3.2-.4.2-.3.1-.6.1-1 .2-.3 0-.7.1-1.1.1-.4 0-.8.1-1.3.1h-1.7c-.9 0-1.9-.1-2.8-.4-.9-.3-1.8-.8-2.6-1.5s-1.4-1.7-1.9-2.9-.7-2.7-.7-4.6v-4.2c0-1.9.2-3.4.7-4.6.5-1.2 1.1-2.2 1.9-2.9.8-.7 1.6-1.2 2.6-1.5.9-.3 1.9-.4 2.8-.4 1 0 1.9.1 2.8.2.9.1 1.6.2 2.3.3.3 0 .5.2.5.4v1.5c0 .1 0 .2-.1.2 0 .1-.1.1-.3.1h-.1c-.3 0-.6 0-1-.1-.4 0-.8-.1-1.3-.1s-.9-.1-1.4-.1h-1.4c-.7 0-1.4.1-2.1.3-.6.2-1.2.6-1.7 1.2-.5.5-.8 1.2-1.1 2.1-.3.9-.4 2-.4 3.3v4.2c0 1.3.1 2.4.4 3.2.3.9.6 1.6 1.1 2.1.5.5 1 .9 1.7 1.2.6.2 1.3.4 2.1.4h1.3c.5 0 .9 0 1.4-.1.5 0 .9 0 1.3-.1.4 0 .7-.1 1-.1h.1c.3 0 .5.2.5.5v1.2c.1.4 0 .5-.1.6m5.6.2c-.1.1-.2.2-.4.2h-1.5c-.2 0-.3-.1-.4-.2-.1-.1-.2-.3-.2-.4v-2.8c0-.2.1-.3.2-.4.1-.1.2-.2.4-.2h1.5c.2 0 .3.1.4.2.1.1.2.2.2.4V24c0 .2-.1.3-.2.5m15.3-1.5c-1.1 1.3-2.7 1.9-5 1.9-.5 0-1 0-1.7-.1s-1.3-.1-1.9-.2V30c0 .2-.1.3-.2.4-.1.1-.2.2-.4.2h-1.5c-.2 0-.3-.1-.4-.2-.1-.1-.1-.2-.1-.4V9.2c0-.2 0-.4.1-.5.1-.1.2-.2.5-.2.8-.2 1.7-.4 2.7-.5 1-.1 1.9-.2 2.9-.2 1.1 0 2.1.2 2.9.5.8.4 1.5.9 2.1 1.5.5.6.9 1.4 1.2 2.4.3.9.4 2 .4 3.1v2.2c0 2.3-.5 4.2-1.6 5.5m-1-7.7c0-.8-.1-1.5-.2-2.2-.1-.6-.3-1.2-.6-1.7s-.7-.8-1.2-1.1c-.5-.3-1.1-.4-1.9-.4-.6 0-1.3 0-1.9.1-.6.1-1.2.1-1.6.2v12c.5.1 1.1.2 1.8.2s1.3.1 1.8.1c.7 0 1.4-.1 1.9-.3.5-.2.9-.6 1.2-1 .3-.4.5-1 .6-1.6.1-.6.2-1.4.2-2.2v-2.1zm9 9.2c-.1.1-.2.2-.4.2h-1.6c-.2 0-.3-.1-.4-.2-.1-.1-.2-.3-.2-.4V2.4c0-.2 0-.3.2-.4.1-.1.2-.2.4-.2h1.6c.2 0 .3.1.4.2.1.1.2.2.2.4V24c0 .2-.1.4-.2.5M55.2 40.3c.4.3.9.4 1.5.4.9 0 1.4-.5 1.4-1.2 0-.6-.4-1-1.3-1.3-1.1-.4-1.8-1-1.8-1.9 0-1.1.9-1.8 2.2-1.8.7 0 1.2.2 1.5.3l-.2.7c-.2-.1-.7-.3-1.3-.3-.9 0-1.3.6-1.3 1 0 .6.4.9 1.3 1.3 1.1.4 1.7 1 1.7 2s-.8 2-2.4 2c-.6 0-1.4-.2-1.7-.4l.4-.8zm6-5.2c0 .3-.2.5-.6.5-.3 0-.5-.2-.5-.5s.2-.6.5-.6c.4.1.6.3.6.6m-1 1.4h.9v4.9h-.9v-4.9zm2.8 2.6c0 1.2.8 1.7 1.7 1.7.6 0 1-.1 1.3-.3l.2.6c-.3.1-.9.3-1.6.3-1.5 0-2.4-1-2.4-2.5s.9-2.6 2.3-2.6c1.6 0 2 1.4 2 2.3v.4H63zm2.6-.7c0-.6-.2-1.4-1.2-1.4-.9 0-1.3.8-1.3 1.4h2.5zm5.4 2.8c-.2.1-.7.3-1.4.3-1.5 0-2.4-1-2.4-2.5s1-2.6 2.6-2.6c.5 0 1 .1 1.2.3l-.2.7c-.2-.1-.5-.2-1-.2-1.1 0-1.7.8-1.7 1.8 0 1.1.7 1.8 1.7 1.8.5 0 .8-.1 1.1-.2l.1.6zm-.2-6.8l-1.2 1.4H69l.9-1.4h.9zm3.4.2h.9v3.3c.2-.3.4-.5.5-.7l2.1-2.5h1.1l-2.4 2.9 2.6 3.9h-1L75.7 38l-.6.7v2.6h-.9v-6.7zm5.5-.4h.9v7.1h-.9zm3.3.9c0 .3-.2.5-.6.5-.3 0-.5-.2-.5-.5s.2-.6.5-.6c.4.1.6.3.6.6m-1 1.4h.9v4.9H82v-4.9zm2.4 1.3v-1.3h.8l.1.8c.2-.5.8-.9 1.6-.9.7 0 1.7.4 1.7 2.1v2.9h-.9v-2.8c0-.8-.3-1.4-1.1-1.4-.6 0-1 .4-1.2.9 0 .1-.1.3-.1.4v2.9h-.9v-3.6zm6.5-2.7c0 .3-.2.5-.6.5-.3 0-.5-.2-.5-.5s.2-.6.5-.6c.4.1.6.3.6.6m-1 1.4h.9v4.9h-.9v-4.9zm3.2 2.2c.1-.2.3-.4.4-.6l1.4-1.7H96l-1.9 2 2.1 2.9h-1.1L93.6 39l-.4.5v1.8h-.9v-7.1h.9v4.5zm6-4.1c.4-.1 1-.1 1.7-.1.9 0 1.5.2 1.9.6.4.3.6.8.6 1.4 0 .6-.2 1.1-.5 1.4-.5.5-1.2.7-2.1.7-.3 0-.5 0-.7-.1v2.7h-.9v-6.6zm.9 3.3c.2 0 .4.1.7.1 1.1 0 1.7-.5 1.7-1.4 0-.9-.6-1.3-1.6-1.3-.4 0-.7 0-.8.1v2.5zm4.1 2.5c.3.2.7.3 1.2.3.6 0 .9-.3.9-.7 0-.4-.2-.6-.9-.9-.9-.3-1.3-.8-1.3-1.4 0-.8.6-1.4 1.7-1.4.5 0 .9.1 1.2.3l-.2.6c-.2-.1-.5-.3-1-.3s-.8.3-.8.7c0 .4.3.6.9.8.8.3 1.3.7 1.3 1.5 0 .9-.7 1.5-1.8 1.5-.5 0-1-.1-1.4-.3l.2-.7zm4.4-3.9l1 2.9c.1.3.2.7.3 1 .1-.3.2-.7.3-1l1-2.9h.9l-1.3 3.5c-.6 1.7-1.1 2.5-1.7 3-.4.4-.9.5-1.1.6l-.2-.7c.2-.1.5-.2.8-.4.2-.2.5-.5.7-1 0-.1.1-.2.1-.2s0-.1-.1-.2l-1.8-4.5h1.1zm7.7 4.7c-.2.1-.7.3-1.4.3-1.5 0-2.4-1-2.4-2.5s1-2.6 2.6-2.6c.5 0 1 .1 1.2.3l-.2.7c-.2-.1-.5-.2-1-.2-1.1 0-1.7.8-1.7 1.8 0 1.1.7 1.8 1.7 1.8.5 0 .8-.1 1.1-.2l.1.6zm1-7h.9v3c.1-.3.4-.5.6-.6.3-.2.6-.2.9-.2.7 0 1.7.4 1.7 2.1v2.9h-.9v-2.8c0-.8-.3-1.4-1.1-1.4-.6 0-1 .4-1.2.9 0 .1-.1.3-.1.4v2.9h-.9v-7.2zm10 4.7c0 1.8-1.2 2.6-2.4 2.6-1.3 0-2.3-1-2.3-2.5 0-1.6 1.1-2.6 2.4-2.6 1.3 0 2.3 1 2.3 2.5m-3.9 0c0 1.1.6 1.9 1.5 1.9.8 0 1.5-.8 1.5-1.9 0-.8-.4-1.9-1.4-1.9-1.1 0-1.6 1-1.6 1.9m5-4.7h.9v7.1h-.9zm6.7 4.7c0 1.8-1.2 2.6-2.4 2.6-1.3 0-2.3-1-2.3-2.5 0-1.6 1.1-2.6 2.4-2.6 1.4 0 2.3 1 2.3 2.5m-3.8 0c0 1.1.6 1.9 1.5 1.9.8 0 1.5-.8 1.5-1.9 0-.8-.4-1.9-1.4-1.9-1.2 0-1.6 1-1.6 1.9m9.1 1.7c0 1.1-.2 1.8-.7 2.2-.5.4-1.2.6-1.8.6-.6 0-1.2-.1-1.6-.4l.2-.7c.3.2.8.4 1.4.4.9 0 1.6-.5 1.6-1.7v-.5c-.3.5-.8.8-1.5.8-1.2 0-2.1-1-2.1-2.4 0-1.6 1.1-2.6 2.2-2.6.8 0 1.3.4 1.5.8v-.7h.8v4.2zm-.9-2.2c0-.2 0-.3-.1-.4-.2-.5-.6-.9-1.2-.9-.8 0-1.4.7-1.4 1.8 0 1 .5 1.7 1.4 1.7.5 0 1-.3 1.2-.9.1-.2.1-.3.1-.5v-.8zm3.2-3.3c0 .3-.2.5-.6.5-.3 0-.5-.2-.5-.5s.2-.6.5-.6c.4.1.6.3.6.6m-.9 1.4h.9v4.9h-.9v-4.9zm5.7 4.7c-.2.1-.7.3-1.4.3-1.5 0-2.4-1-2.4-2.5s1-2.6 2.6-2.6c.5 0 1 .1 1.2.3l-.2.7c-.2-.1-.5-.2-1-.2-1.1 0-1.7.8-1.7 1.8 0 1.1.7 1.8 1.7 1.8.5 0 .8-.1 1.1-.2l.1.6zm.5-.4l2.2-2.9c.2-.3.4-.5.6-.8h-2.6v-.7h3.7v.6l-2.2 2.8c-.2.3-.4.5-.6.8h2.8v.7h-3.9v-.5zm4.9-3v-1.3h.8l.1.8c.2-.5.8-.9 1.6-.9.7 0 1.7.4 1.7 2.1v2.9h-1v-2.8c0-.8-.3-1.4-1.1-1.4-.6 0-1 .4-1.2.9 0 .1-.1.3-.1.4v2.9h-.9v-3.6zm9.9 1.1c0 1.8-1.2 2.6-2.4 2.6-1.3 0-2.3-1-2.3-2.5 0-1.6 1.1-2.6 2.4-2.6 1.3 0 2.3 1 2.3 2.5m-3.8 0c0 1.1.6 1.9 1.5 1.9.8 0 1.5-.8 1.5-1.9 0-.8-.4-1.9-1.4-1.9-1.2 0-1.6 1-1.6 1.9m4.6-.6h2.5v.6h-2.5zm3.6-3.7c.4-.1 1-.1 1.7-.1.9 0 1.5.2 1.9.6.4.3.6.8.6 1.4 0 .6-.2 1.1-.5 1.4-.5.5-1.2.7-2.1.7-.3 0-.5 0-.7-.1v2.7h-.9v-6.6zm.8 3.3c.2 0 .4.1.7.1 1 0 1.7-.5 1.7-1.4 0-.9-.6-1.3-1.6-1.3-.4 0-.7 0-.8.1v2.5zm4.1 2.5c.3.2.7.3 1.2.3.6 0 .9-.3.9-.7 0-.4-.2-.6-.9-.9-.9-.3-1.3-.8-1.3-1.4 0-.8.6-1.4 1.7-1.4.5 0 .9.1 1.2.3l-.2.6c-.2-.1-.5-.3-1-.3s-.8.3-.8.7c0 .4.3.6.9.8.8.3 1.3.7 1.3 1.5 0 .9-.7 1.5-1.8 1.5-.5 0-1-.1-1.4-.3l.2-.7zm4.4-3.9l1 2.9c.1.3.2.7.3 1 .1-.3.2-.7.3-1l1-2.9h.9l-1.3 3.5c-.6 1.7-1.1 2.5-1.7 3-.4.4-.9.5-1.1.6l-.2-.7c.2-.1.5-.2.8-.4.2-.2.5-.5.7-1 0-.1.1-.2.1-.2s0-.1-.1-.2l-1.8-4.5h1.1zm7.7 4.7c-.2.1-.7.3-1.4.3-1.5 0-2.4-1-2.4-2.5s1-2.6 2.6-2.6c.5 0 1 .1 1.2.3l-.2.7c-.2-.1-.5-.2-1-.2-1.1 0-1.7.8-1.7 1.8 0 1.1.7 1.8 1.7 1.8.5 0 .8-.1 1.1-.2l.1.6zm1.1-7h.9v3c.1-.3.4-.5.6-.6.3-.2.6-.2.9-.2.6 0 1.7.4 1.7 2.1v2.9h-.9v-2.8c0-.8-.3-1.4-1.1-1.4-.6 0-1 .4-1.2.9 0 .1-.1.3-.1.4v2.9h-.9v-7.2zm6.5.9c0 .3-.2.5-.6.5-.3 0-.5-.2-.5-.5s.2-.6.5-.6c.4.1.6.3.6.6m-1 1.4h.9v4.9h-.9v-4.9zm5.8 3.7c0 .4 0 .8.1 1.2h-.8l-.1-.6c-.3.4-.8.7-1.5.7-1 0-1.5-.7-1.5-1.4 0-1.2 1-1.8 2.9-1.8v-.1c0-.4-.1-1.1-1.1-1.1-.5 0-.9.1-1.3.4l-.2-.6c.4-.3 1-.4 1.6-.4 1.5 0 1.8 1 1.8 2v1.7zm-.9-1.3c-1 0-2 .2-2 1.1 0 .6.4.8.8.8.6 0 1.1-.4 1.2-.8v-1.1zm3.3-3.6v1.2h1.3v.7h-1.3v2.6c0 .6.2.9.7.9.2 0 .4 0 .5-.1v.7c-.2.1-.4.1-.8.1s-.7-.1-.9-.4c-.2-.3-.3-.7-.3-1.3V37h-.8v-.7h.8v-.9l.8-.1zm2.3 2.7v-1.5h.8v1c.2-.7.8-1.1 1.3-1.1h.2v.8h-.3c-.6 0-1.1.5-1.2 1.1v3h-.9V38zm3.8-1.5l1 2.9c.1.3.2.7.3 1 .1-.3.2-.7.3-1l1-2.9h.9l-1.3 3.5c-.6 1.7-1.1 2.5-1.7 3-.4.4-.9.5-1.1.6l-.2-.7c.2-.1.5-.2.8-.4.2-.2.5-.5.7-1 0-.1.1-.2.1-.2s0-.1-.1-.2l-1.8-4.5h1.1zm7.7 4.7c-.2.1-.7.3-1.4.3-1.5 0-2.4-1-2.4-2.5s1-2.6 2.6-2.6c.5 0 1 .1 1.2.3l-.2.7c-.2-.1-.5-.2-1-.2-1.1 0-1.7.8-1.7 1.8 0 1.1.7 1.8 1.7 1.8.5 0 .8-.1 1.1-.2l.1.6zm.5-.4l2.2-2.9c.2-.3.4-.5.6-.8h-2.6v-.7h3.7v.6l-2.2 2.8c-.2.3-.4.5-.6.8h2.8v.7h-3.9v-.5zm4.8-3v-1.3h.8l.1.8c.2-.5.8-.9 1.6-.9.7 0 1.7.4 1.7 2.1v2.9h-.9v-2.8c0-.8-.3-1.4-1.1-1.4-.6 0-1 .4-1.2.9 0 .1-.1.3-.1.4v2.9h-.9v-3.6zm5.8-1.3l1 2.9c.1.3.2.7.3 1 .1-.3.2-.7.3-1l1-2.9h.9L226 40c-.6 1.7-1.1 2.5-1.7 3-.4.4-.9.5-1.1.6l-.2-.7c.2-.1.5-.2.8-.4.2-.2.5-.5.7-1 0-.1.1-.2.1-.2s0-.1-.1-.2l-1.8-4.5h1.1zm7.7 4.7c-.2.1-.7.3-1.4.3-1.5 0-2.4-1-2.4-2.5s1-2.6 2.6-2.6c.5 0 1 .1 1.2.3l-.2.7c-.2-.1-.5-.2-1-.2-1.1 0-1.7.8-1.7 1.8 0 1.1.7 1.8 1.7 1.8.5 0 .8-.1 1.1-.2l.1.6zm1.1-7h.9v3c.1-.3.4-.5.6-.6.3-.2.6-.2.9-.2.7 0 1.7.4 1.7 2.1v2.9h-.9v-2.8c0-.8-.3-1.4-1.1-1.4-.6 0-1 .4-1.2.9 0 .1-.1.3-.1.4v2.9h-.9v-7.2z"/></svg>