<?xml version="1.0" encoding="utf-8"?>
<!-- Generator: Adobe Illustrator 22.1.0, SVG Export Plug-In . SVG Version: 6.00 Build 0)  -->
<svg version="1.1" id="Warstwa_1" xmlns="http://www.w3.org/2000/svg" xmlns:xlink="http://www.w3.org/1999/xlink" x="0px" y="0px"
	 viewBox="0 0 376 376" style="enable-background:new 0 0 376 376;" xml:space="preserve">
<g>
	<path d="M361.7,26.2h-55V6c0-3.3-2.7-6-6-6H75.3c-3.3,0-6,2.7-6,6v20.2h-55C6.4,26.2,0,32.6,0,40.5v263.4c0,7.9,6.4,14.3,14.3,14.3
		h131V364H88.7c-3.3,0-6,2.7-6,6c0,3.3,2.7,6,6,6h172c3.3,0,6-2.7,6-6c0-3.3-2.7-6-6-6h-30v-45.9h24.7c3.3,0,6-2.7,6-6
		c0-3.3-2.7-6-6-6H14.3c-1.2,0-2.3-1-2.3-2.3V40.5c0-1.2,1-2.3,2.3-2.3h55v219.1H30.8c-3.3,0-6,2.7-6,6c0,3.3,2.7,6,6,6h224.6
		c3.3,0,6-2.7,6-6c0-3.3-2.7-6-6-6h-47.1v-49c0-3.3-2.7-6-6-6h-95c-3.3,0-6,2.7-6,6v49h-20V12h213.4v54.7c0,3.3,2.7,6,6,6
		c3.3,0,6-2.7,6-6V38.2h55c1.2,0,2.3,1,2.3,2.3v263.4c0,1.2-1,2.3-2.3,2.3H346c-3.3,0-6,2.7-6,6c0,3.3,2.7,6,6,6h15.7
		c7.9,0,14.3-6.4,14.3-14.3V40.5C376,32.6,369.6,26.2,361.7,26.2L361.7,26.2z M218.7,364h-61.4v-45.9h61.4V364z M113.3,214.2h83v43
		h-83V214.2z M113.3,214.2"/>
	<path d="M327.9,142.9c0-0.1,0-0.2,0-0.3c0-0.1-0.1-0.2-0.1-0.4c0-0.1,0-0.1-0.1-0.2c0-0.1-0.1-0.2-0.1-0.4c0,0,0-0.1-0.1-0.1l0-0.1
		c0,0,0,0,0,0l-21.3-53c-0.9-2.3-3.1-3.8-5.6-3.8c-2.4,0-4.7,1.5-5.6,3.8l-21.3,53c0,0,0,0.1,0,0.1c0,0.1,0,0.1-0.1,0.2
		c0,0.1-0.1,0.2-0.1,0.4c0,0.1,0,0.1-0.1,0.2c0,0.1-0.1,0.2-0.1,0.4c0,0.1,0,0.2,0,0.3c0,0.1,0,0.2,0,0.3c0,0.2,0,0.4,0,0.6v204.9
		c0,15.1,12.3,27.3,27.3,27.3c15.1,0,27.3-12.2,27.3-27.3V143.8c0-0.2,0-0.4,0-0.6C328,143.1,327.9,143,327.9,142.9L327.9,142.9z
		 M285.4,149.7H316v171.4h-30.6V149.7z M300.7,106.8l12.4,31h-24.9L300.7,106.8z M300.7,364c-8.4,0-15.3-6.9-15.3-15.3v-15.6H316
		v15.6C316,357.1,309.1,364,300.7,364L300.7,364z M300.7,364"/>
	<path d="M107.3,86.2h161.4c3.3,0,6-2.7,6-6V38c0-3.3-2.7-6-6-6H107.3c-3.3,0-6,2.7-6,6v42.2C101.3,83.6,104,86.2,107.3,86.2
		L107.3,86.2z M113.3,44h149.4v30.2H113.3V44z M113.3,44"/>
	<path d="M268.7,98.2H107.3c-3.3,0-6,2.7-6,6c0,3.3,2.7,6,6,6h161.4c3.3,0,6-2.7,6-6C274.7,100.9,272,98.2,268.7,98.2L268.7,98.2z
		 M268.7,98.2"/>
	<path d="M202.3,130.2h-95c-3.3,0-6,2.7-6,6c0,3.3,2.7,6,6,6h95c3.3,0,6-2.7,6-6C208.3,132.9,205.6,130.2,202.3,130.2L202.3,130.2z
		 M202.3,130.2"/>
	<path d="M256.5,130.2h-30.3c-3.3,0-6,2.7-6,6c0,3.3,2.7,6,6,6h30.3c3.3,0,6-2.7,6-6C262.5,132.9,259.8,130.2,256.5,130.2
		L256.5,130.2z M256.5,130.2"/>
	<path d="M202.3,154.2h-95c-3.3,0-6,2.7-6,6c0,3.3,2.7,6,6,6h95c3.3,0,6-2.7,6-6C208.3,156.9,205.6,154.2,202.3,154.2L202.3,154.2z
		 M202.3,154.2"/>
	<path d="M255.4,154.2h-29.1c-3.3,0-6,2.7-6,6c0,3.3,2.7,6,6,6h29.1c3.3,0,6-2.7,6-6C261.4,156.9,258.7,154.2,255.4,154.2
		L255.4,154.2z M255.4,154.2"/>
	<path d="M202.3,178.2h-95c-3.3,0-6,2.7-6,6c0,3.3,2.7,6,6,6h95c3.3,0,6-2.7,6-6C208.3,180.9,205.6,178.2,202.3,178.2L202.3,178.2z
		 M202.3,178.2"/>
	<path d="M255.4,178.2h-29.1c-3.3,0-6,2.7-6,6c0,3.3,2.7,6,6,6h29.1c3.3,0,6-2.7,6-6C261.4,180.9,258.7,178.2,255.4,178.2
		L255.4,178.2z M255.4,178.2"/>
</g>
</svg>
