<?xml version="1.0" encoding="utf-8"?>
<!-- Generator: Adobe Illustrator 22.1.0, SVG Export Plug-In . SVG Version: 6.00 Build 0)  -->
<svg version="1.1" id="Warstwa_1" xmlns="http://www.w3.org/2000/svg" xmlns:xlink="http://www.w3.org/1999/xlink" x="0px" y="0px"
	 viewBox="0 0 301.2 364.7" style="enable-background:new 0 0 301.2 364.7;" xml:space="preserve">
<g>
	<path d="M225.2,206c12.4-16.4,19-35.9,19-56.5c0-25.2-9.9-48.9-27.9-66.6c-18-17.7-41.8-27.3-67.1-26.9
		c-24.5,0.3-47.5,10.2-64.9,27.6c-17.4,17.5-27.1,40.6-27.3,65.1c-0.2,21,6.4,40.9,19.1,57.5c20.6,27,31.9,60.1,31.9,93.2v36.2
		c0,16.1,13.1,29.1,29.1,29.1h27.1c16.1,0,29.1-13.1,29.1-29.1v-36.2C193.3,265.9,204.3,233.7,225.2,206L225.2,206z M85.6,198.9
		c-11-14.5-16.8-31.8-16.6-50.1c0.4-43.9,36.5-80.2,80.4-80.8c22-0.3,42.8,8,58.5,23.5c15.7,15.5,24.3,36.1,24.3,58.1
		c0,18-5.7,35-16.5,49.2c-22.1,29.1-34,63.1-34.4,98.3H120C119.5,262.2,107.3,227.4,85.6,198.9L85.6,198.9z M120,331.5v-4.9l61.3,7
		v1.9c0,1-0.1,2-0.3,2.9L120,331.5z M120,314.6v-5.4h61.3v12.5L120,314.6z M137.1,352.7c-6.4,0-12.1-3.6-15-8.9l51.7,5.9
		c-2.7,1.9-6,2.9-9.6,2.9H137.1z M137.1,352.7"/>
	<path d="M91.3,158.6c-0.5-3.1-0.7-6.4-0.7-9.6c0-3.3-2.6-6-5.9-6.1c-3.3,0-6,2.6-6.1,5.9c0,3.8,0.2,7.7,0.8,11.5
		c0.4,3,3,5.1,5.9,5.1c0.3,0,0.6,0,0.9-0.1C89.5,164.9,91.7,161.8,91.3,158.6L91.3,158.6z M91.3,158.6"/>
	<path d="M126.6,249.7c0.6,0,1.3-0.1,1.9-0.3c3.1-1,4.9-4.4,3.8-7.6c-6.6-20.2-16.6-39.1-29.5-56c-2.1-2.8-4-5.8-5.6-8.9
		c-1.5-2.9-5.1-4.1-8.1-2.6c-2.9,1.5-4.1,5.1-2.6,8.1c1.9,3.7,4.2,7.3,6.7,10.6c12.1,15.9,21.4,33.5,27.6,52.5
		C121.7,248.1,124,249.7,126.6,249.7L126.6,249.7z M126.6,249.7"/>
	<path d="M213.6,170.1c-3-1.3-6.6,0.1-7.9,3.1c-1.9,4.4-4.4,8.6-7.3,12.5c-2,2.6-1.5,6.4,1.2,8.4c1.1,0.8,2.4,1.2,3.6,1.2
		c1.8,0,3.6-0.8,4.8-2.4c3.5-4.7,6.5-9.7,8.8-15C218.1,174.9,216.7,171.4,213.6,170.1L213.6,170.1z M213.6,170.1"/>
	<path d="M150.6,89.6c33.1,0,60,26.9,60,60c0,1.9-0.1,3.8-0.3,5.6c-0.3,3.3,2.1,6.2,5.4,6.5c0.2,0,0.4,0,0.6,0c3.1,0,5.7-2.3,6-5.4
		c0.2-2.2,0.3-4.5,0.3-6.7c0-39.7-32.3-72-72-72c-3.3,0-6,2.7-6,6C144.6,86.9,147.3,89.6,150.6,89.6L150.6,89.6z M150.6,89.6"/>
	<path d="M150.6,45.6c3.3,0,6-2.7,6-6V6c0-3.3-2.7-6-6-6c-3.3,0-6,2.7-6,6v33.6C144.6,42.9,147.3,45.6,150.6,45.6L150.6,45.6z
		 M150.6,45.6"/>
	<path d="M89.9,57.5c1.1,1.9,3.1,3,5.2,3c1,0,2.1-0.3,3-0.8c2.9-1.7,3.9-5.3,2.2-8.2L83.5,22.4c-1.7-2.9-5.3-3.9-8.2-2.2
		c-2.9,1.7-3.9,5.3-2.2,8.2L89.9,57.5z M89.9,57.5"/>
	<path d="M278.8,217.7l-29.1-16.8c-2.9-1.7-6.5-0.7-8.2,2.2c-1.7,2.9-0.7,6.5,2.2,8.2l29.1,16.8c0.9,0.5,2,0.8,3,0.8
		c2.1,0,4.1-1.1,5.2-3C282.7,223,281.7,219.3,278.8,217.7L278.8,217.7z M278.8,217.7"/>
	<path d="M22.4,83.5l29.1,16.8c0.9,0.5,2,0.8,3,0.8c2.1,0,4.1-1.1,5.2-3c1.7-2.9,0.7-6.5-2.2-8.2L28.4,73.1
		c-2.9-1.7-6.5-0.7-8.2,2.2C18.5,78.2,19.5,81.8,22.4,83.5L22.4,83.5z M22.4,83.5"/>
	<path d="M295.2,144.6h-33.6c-3.3,0-6,2.7-6,6c0,3.3,2.7,6,6,6h33.6c3.3,0,6-2.7,6-6C301.2,147.3,298.5,144.6,295.2,144.6
		L295.2,144.6z M295.2,144.6"/>
	<path d="M45.6,150.6c0-3.3-2.7-6-6-6H6c-3.3,0-6,2.7-6,6c0,3.3,2.7,6,6,6h33.6C42.9,156.6,45.6,153.9,45.6,150.6L45.6,150.6z
		 M45.6,150.6"/>
	<path d="M246.7,101.1c1,0,2.1-0.3,3-0.8l29.1-16.8c2.9-1.7,3.9-5.3,2.2-8.2c-1.7-2.9-5.3-3.9-8.2-2.2l-29.1,16.8
		c-2.9,1.7-3.9,5.3-2.2,8.2C242.6,100,244.7,101.1,246.7,101.1L246.7,101.1z M246.7,101.1"/>
	<path d="M51.5,200.9l-29.1,16.8c-2.9,1.7-3.9,5.3-2.2,8.2c1.1,1.9,3.1,3,5.2,3c1,0,2-0.3,3-0.8l29.1-16.8c2.9-1.7,3.9-5.3,2.2-8.2
		C58,200.2,54.3,199.2,51.5,200.9L51.5,200.9z M51.5,200.9"/>
	<path d="M203.1,59.7c0.9,0.5,2,0.8,3,0.8c2.1,0,4.1-1.1,5.2-3l16.8-29.1c1.7-2.9,0.7-6.5-2.2-8.2c-2.9-1.7-6.5-0.7-8.2,2.2
		l-16.8,29.1C199.2,54.3,200.2,58,203.1,59.7L203.1,59.7z M203.1,59.7"/>
</g>
</svg>
