<?xml version="1.0" encoding="utf-8"?>
<!-- Generator: Adobe Illustrator 22.1.0, SVG Export Plug-In . SVG Version: 6.00 Build 0)  -->
<svg version="1.1" id="Warstwa_1" xmlns="http://www.w3.org/2000/svg" xmlns:xlink="http://www.w3.org/1999/xlink" x="0px" y="0px"
	 viewBox="0 0 26 28" style="enable-background:new 0 0 26 28;" xml:space="preserve">
<style type="text/css">
	.st0{fill:#FFFFFF;}
</style>
<title>calendar</title>
<path class="st0" d="M2,26h4.5v-4.5H2V26z M7.5,26h5v-4.5h-5V26z M2,20.5h4.5v-5H2V20.5z M7.5,20.5h5v-5h-5V20.5z M2,14.5h4.5V10H2
	V14.5z M13.5,26h5v-4.5h-5V26z M7.5,14.5h5V10h-5V14.5z M19.5,26H24v-4.5h-4.5V26z M13.5,20.5h5v-5h-5V20.5z M8,7V2.5
	C8,2.2,7.8,2,7.5,2h-1C6.2,2,6,2.2,6,2.5V7c0,0.3,0.2,0.5,0.5,0.5h1C7.8,7.5,8,7.3,8,7z M19.5,20.5H24v-5h-4.5V20.5z M13.5,14.5h5
	V10h-5V14.5z M19.5,14.5H24V10h-4.5V14.5z M20,7V2.5C20,2.2,19.8,2,19.5,2h-1C18.2,2,18,2.2,18,2.5V7c0,0.3,0.2,0.5,0.5,0.5h1
	C19.8,7.5,20,7.3,20,7z M26,6v20c0,1.1-0.9,2-2,2H2c-1.1,0-2-0.9-2-2V6c0-1.1,0.9-2,2-2h2V2.5C4,1.1,5.1,0,6.5,0h1
	C8.9,0,10,1.1,10,2.5V4h6V2.5C16,1.1,17.1,0,18.5,0h1C20.9,0,22,1.1,22,2.5V4h2C25.1,4,26,4.9,26,6z"/>
</svg>
