<?xml version="1.0" encoding="utf-8"?>
<!-- Generator: Adobe Illustrator 22.1.0, SVG Export Plug-In . SVG Version: 6.00 Build 0)  -->
<svg version="1.1" id="Warstwa_1" xmlns="http://www.w3.org/2000/svg" xmlns:xlink="http://www.w3.org/1999/xlink" x="0px" y="0px"
	 viewBox="0 0 382.2 511" style="enable-background:new 0 0 382.2 511;" xml:space="preserve">
<g>
	<path d="M171,461.5c0-13.5-11-24.5-24.5-24.5c-13.5,0-24.5,11-24.5,24.5c0,13.5,11,24.5,24.5,24.5C160,486.1,171,475.1,171,461.5
		L171,461.5z M146.5,471.1c-5.3,0-9.6-4.3-9.6-9.6c0-5.3,4.3-9.6,9.6-9.6c5.3,0,9.6,4.3,9.6,9.6C156,466.8,151.8,471.1,146.5,471.1
		L146.5,471.1z M146.5,471.1"/>
	<path d="M163.5,44.8c4.1,0,7.5-3.4,7.5-7.5c0-4.1-3.3-7.5-7.5-7.5h-33.9c-4.1,0-7.5,3.4-7.5,7.5c0,4.1,3.4,7.5,7.5,7.5H163.5z
		 M163.5,44.8"/>
	<path d="M146.5,224.4c16.4,0,29.7-13.3,29.7-29.7c0-16.4-13.3-29.7-29.7-29.7c-16.4,0-29.7,13.3-29.7,29.7
		C116.8,211.1,130.1,224.4,146.5,224.4L146.5,224.4z M146.5,179.9c8.1,0,14.8,6.6,14.8,14.8c0,8.1-6.6,14.8-14.8,14.8
		c-8.1,0-14.8-6.6-14.8-14.8C131.7,186.6,138.3,179.9,146.5,179.9L146.5,179.9z M146.5,179.9"/>
	<path d="M163.5,331.9h-34c-4.1,0-7.5,3.4-7.5,7.5s3.4,7.5,7.5,7.5h34c4.1,0,7.5-3.4,7.5-7.5S167.7,331.9,163.5,331.9L163.5,331.9z
		 M163.5,331.9"/>
	<path d="M234,413.5c4.8,18.3,13.4,32.3,27.6,45.1c8.8,7.9,21.7,10.8,33.5,6.8l0.1,0.2c5.6,9.2,17.6,12,26.8,6.4l9.1-5.6
		c9.1-5.6,12-17.6,6.4-26.8l-7.1-11.6c-5.6-9.2-17.6-12-26.8-6.4l-9.1,5.6c-8.5,5.2-11.6,16-7.5,24.9c-5.5,0.8-11.2-0.7-15.5-4.5
		c-12-10.7-19-22.2-23.1-37.8c-1.5-5.5-0.2-11.4,3-15.9c6,7.8,17,9.9,25.5,4.7l9.1-5.6c9.2-5.6,12-17.6,6.4-26.8l-7.1-11.6
		c-5.6-9.2-17.6-12-26.8-6.4l-9.1,5.6c-9.2,5.6-12,17.6-6.4,26.8l0.1,0.2C234.6,389,230.9,401.6,234,413.5L234,413.5z M302.4,439.9
		l9.1-5.6c2.1-1.3,4.9-0.6,6.2,1.5l7.1,11.6c1.3,2.1,0.6,4.9-1.5,6.2l-9.1,5.6c-2.1,1.3-4.9,0.6-6.2-1.5c-1.4-2.3-2.8-4.6-7.1-11.6
		C299.6,444,300.3,441.2,302.4,439.9L302.4,439.9z M257.4,366.4l9.1-5.6c2.1-1.3,4.9-0.6,6.2,1.5l7.1,11.6c1.3,2.1,0.6,4.9-1.5,6.2
		l-9.1,5.6c-2.1,1.3-4.9,0.6-6.2-1.5c-0.6-0.9-5.9-9.6-7.1-11.6C254.6,370.5,255.3,367.7,257.4,366.4L257.4,366.4z M257.4,366.4"/>
	<g>
		<path d="M146.5,304.3c45.9,0,83.7-37.4,83.7-83.7c0-46.2-37.6-83.7-83.7-83.7s-83.7,37.6-83.7,83.7
			C62.8,266.7,100.4,304.3,146.5,304.3L146.5,304.3z M176.3,282.5c-8.9,4.3-19.2,6.8-29.8,6.8c-10.2,0-20.6-2.4-29.8-6.8v-35.9
			c0-2.4,2.1-4.5,4.5-4.5h50.7c2.4,0,4.5,2.1,4.5,4.5V282.5z M146.5,151.8c37.9,0,68.8,30.8,68.8,68.8c0,20.8-9.3,39.5-24,52.1
			v-26.1c0-10.7-8.7-19.5-19.5-19.5h-50.7c-10.7,0-19.5,8.7-19.5,19.5v26.1c-14.6-12.6-24-31.3-24-52.1
			C77.7,182.6,108.6,151.8,146.5,151.8L146.5,151.8z M146.5,151.8"/>
		<path d="M42,511h87c4.1,0,7.5-3.4,7.5-7.5c0-4.1-3.3-7.5-7.5-7.5H42c-16.7,0-27-14.1-27-27V42c0-14.9,12.1-27,27-27h209
			c14.9,0,27,12.1,27,27v272.6c-4.3,0.4-8.6,0.8-15,2.3c0-10,0-234.8,0-244.9c0-6.5-5.5-12-12-12c-10.4,0-198.8,0-209,0
			c-6.5,0-12,5.5-12,12v345c0,6.5,5.5,12,12,12h146.5c4.7,28,21.1,52.3,44.7,67H164c-4.1,0-7.5,3.3-7.5,7.5c0,4.1,3.3,7.5,7.5,7.5
			h87c4.6,0,9.1-0.8,13.5-2.3c54.2,11.9,107.2-23.5,117.6-77.3c0.8-4.1-1.9-8-5.9-8.8c-4.1-0.8-8,1.9-8.8,5.9
			c-7.6,39.1-42,67.5-81.9,67.5c-46,0-83.4-37.4-83.4-83.4c0-35.2,22.3-66.5,54.8-78.3c47.7-17.5,100.5,11.9,110.4,62.2
			c0.8,4.1,4.7,6.7,8.8,5.9c4.1-0.8,6.7-4.7,5.9-8.8c-8.5-43.5-45.3-75.7-89-79V42c0-23.1-18.8-42-42-42H42C18.8,0,0,18.8,0,42v427
			C0,490.6,16.9,511,42,511L42,511z M45,75h25v20.1H45V75z M248,321.7c-37.2,15.3-61.5,52-60.9,92.3H45v-304h203V321.7z M248,95.1
			H84.9V75H248V95.1z M248,95.1"/>
	</g>
</g>
</svg>
