<?xml version="1.0" encoding="utf-8"?>
<!-- Generator: Adobe Illustrator 22.1.0, SVG Export Plug-In . SVG Version: 6.00 Build 0)  -->
<svg version="1.1" id="Warstwa_1" xmlns="http://www.w3.org/2000/svg" xmlns:xlink="http://www.w3.org/1999/xlink" x="0px" y="0px"
	 viewBox="0 0 24 24" style="enable-background:new 0 0 24 24;" xml:space="preserve">
<style type="text/css">
	.st0{fill:#FFFFFF;}
</style>
<title>clock-o</title>
<path class="st0" d="M14,6.5v7c0,0.3-0.2,0.5-0.5,0.5h-5C8.2,14,8,13.8,8,13.5v-1C8,12.2,8.2,12,8.5,12H12V6.5C12,6.2,12.2,6,12.5,6
	h1C13.8,6,14,6.2,14,6.5z M20.5,12c0-4.7-3.8-8.5-8.5-8.5S3.5,7.3,3.5,12s3.8,8.5,8.5,8.5S20.5,16.7,20.5,12z M24,12
	c0,6.6-5.4,12-12,12S0,18.6,0,12S5.4,0,12,0S24,5.4,24,12z"/>
</svg>
