<?xml version="1.0" encoding="utf-8"?>
<!-- Generator: Adobe Illustrator 22.1.0, SVG Export Plug-In . SVG Version: 6.00 Build 0)  -->
<svg version="1.1" id="Warstwa_1" xmlns="http://www.w3.org/2000/svg" xmlns:xlink="http://www.w3.org/1999/xlink" x="0px" y="0px"
	 viewBox="-851 -120 357 511" style="enable-background:new -851 -120 357 511;" xml:space="preserve">
<style type="text/css">
	.st0{clip-path:url(#SVGID_2_);}
</style>
<g>
	<g>
		<defs>
			<rect id="SVGID_1_" x="-851" y="-120" width="357" height="511"/>
		</defs>
		<clipPath id="SVGID_2_">
			<use xlink:href="#SVGID_1_"  style="overflow:visible;"/>
		</clipPath>
		<path class="st0" d="M-765.4,317.1h10.9V328c0,4.1,3.4,7.5,7.5,7.5c4.1,0,7.5-3.4,7.5-7.5v-10.9h10.9c4.1,0,7.5-3.4,7.5-7.5
			c0-4.1-3.4-7.5-7.5-7.5h-10.9v-10.9c0-4.1-3.4-7.5-7.5-7.5c-4.1,0-7.5,3.4-7.5,7.5v10.9h-10.9c-4.1,0-7.5,3.4-7.5,7.5
			C-772.9,313.7-769.6,317.1-765.4,317.1L-765.4,317.1z M-765.4,317.1"/>
		<path class="st0" d="M-809.3,162.6c0,0-0.1,0-0.1,0.1c-1.7,0.7-40.7,17.3-40.7,62.9v145.9c0,10.8,8.8,19.5,19.5,19.5H-514
			c10.8,0,19.5-8.8,19.5-19.5v-63.6c0-4.1-3.4-7.5-7.5-7.5c-4.1,0-7.5,3.4-7.5,7.5v63.6c0,2.5-2,4.5-4.5,4.5h-37.5V270.4
			c0-4.1-3.4-7.5-7.5-7.5c-4.1,0-7.5,3.4-7.5,7.5V376h-85.2l48.7-131c3.7-8.7-0.8-16.4-2.9-19.9l-11-21.1c0,0,0,0,0-0.1l13.9-12.4
			c4.4-4,6.8-9.7,6.5-15.6l-1.2-21.3l57,22.1c1.4,0.6,31.4,13.9,31.4,49v47.3c0,4.1,3.4,7.5,7.5,7.5c4.1,0,7.5-3.4,7.5-7.5v-47.3
			c0-45.6-39-62.2-40.7-62.9c0,0-0.1,0-0.1-0.1l-92.7-35.9v-22c14.8-11.4,25-28.5,27.5-47.9c17.3-0.8,31.1-15.1,31.1-32.6
			c0-8.2-3-15.6-8-21.4v-28.8c0-22.1-7.7-43.6-21.7-60.6c-13.8-16.8-33-28.5-54.1-33c-4.1-0.9-8,1.7-8.9,5.8c-0.9,4.1,1.7,8,5.8,8.9
			c37,7.8,63.9,41,63.9,78.9V-7c-2.4-0.7-5.1-1.2-7.4-1.4c0-3.9-0.8-7.1-3.6-10.2c0,0,0,0,0,0l-20.7-22.2
			c-4.5-4.8-11.8-5.7-17.3-2.1c-27,17.6-60,26.5-90.4,24.3c0,0,0,0,0,0c-4-0.3-7.9,1.3-10.2,3.6c-1.8,1.7-3.3,4-3.9,6.6
			c-2.7,0.1-5.3,0.6-7.9,1.4v-18.9c0-38.7,27.5-72,65.4-79.2c4.1-0.8,6.7-4.7,6-8.8c-0.8-4.1-4.7-6.7-8.8-6
			c-45,8.6-77.6,48.1-77.6,94V2.8c-5.1,5.9-8,13.4-8,21.4c0,17.5,13.8,31.8,31.1,32.6c2.6,20.1,13.3,37.6,29,49v20.8
			C-769.6,147.1-704.1,121.8-809.3,162.6L-809.3,162.6z M-716.5,193.8l-15.1-13.6c-1-0.9-1.6-2.2-1.5-3.6l1.6-28.1l16.1-6.2
			c0,0,26.9,199,27.6,204.7l-40-107.5c-1-2.7-1.8,0.2,13.2-28.5C-710.9,204.5-711.6,197.8-716.5,193.8L-716.5,193.8z M-683.2,173.9
			l-11.6,8.8l-3.6-26.6C-694.6,160.6-691.5,164.2-683.2,173.9L-683.2,173.9z M-646.4,156.3l-3.6,26.4l-11.5-8.7L-646.4,156.3z
			 M-692.5,199.8c0.8-0.6-0.9,0.7,20.1-15.3l20.1,15.3l-20.1,148.9L-692.5,199.8z M-835.2,371.5V225.5c0-35,29.5-48.2,31.4-49
			l56.9-22.1l-1.2,21.3c-0.3,6,2,11.7,6.5,15.6l13.9,12.4c0,0,0,0,0,0.1l-11.1,21.2c-2.4,4-6.6,11.2-2.9,19.9l48.7,131h-86.8V270.4
			c0-4.1-3.4-7.5-7.5-7.5c-4.1,0-7.5,3.4-7.5,7.5V376h-35.8C-833.1,376-835.2,373.9-835.2,371.5L-835.2,371.5z M-613.1,180.2
			l-15.2,13.6c-2,1.7-7.2,7.4-2,17.1c15.3,29.4,14.1,26.2,13.3,28.6l-40,107.6l27.6-204.8l16.1,6.3l1.6,28.1
			C-611.6,178-612.1,179.3-613.1,180.2L-613.1,180.2z M-599.9,41.7v-35c8.7,1.1,15.4,8.6,15.4,17.5
			C-584.5,33.2-591.2,40.6-599.9,41.7L-599.9,41.7z M-761.8,24.2c0-9,6.7-16.4,15.4-17.5v35C-755.1,40.6-761.8,33.2-761.8,24.2
			L-761.8,24.2z M-731.4,47.6c0-11,0-41.1,0-51.1c32.8,2,68-7.5,97-26.1l19.4,20.9v56.3c0,32-26.6,59-61,57.2
			C-709.4,103-731.4,76.3-731.4,47.6L-731.4,47.6z M-672.2,119.9c10.2,0,20.3-2.2,29.2-6.2v15.4l-29.3,34.4l-29.4-34.4v-14.9
			C-692.2,118.1-682.2,119.9-672.2,119.9L-672.2,119.9z M-672.2,119.9"/>
	</g>
</g>
</svg>
