<?xml version="1.0" encoding="iso-8859-1"?>
<!-- Generator: Adobe Illustrator 22.1.0, SVG Export Plug-In . SVG Version: 6.00 Build 0)  -->
<svg version="1.1" id="Capa_1" xmlns="http://www.w3.org/2000/svg" xmlns:xlink="http://www.w3.org/1999/xlink" x="0px" y="0px"
	 viewBox="-49.001 239.057 512.003 315.885" style="enable-background:new -49.001 239.057 512.003 315.885;" xml:space="preserve">
<path d="M207.102,487.442c-6.105-4.624-13.603-6.152-20.597-4.848c-1.099-6.627-4.627-12.487-10.003-16.559
	c-5.571-4.219-12.449-6.015-19.372-5.06c-1.715,0.237-3.381,0.637-4.983,1.188c-1.518-5.205-4.655-9.985-9.3-13.503
	c-7.651-5.795-17.487-6.722-25.779-3.312c-1.651-4.969-4.752-9.325-9.016-12.555c-5.57-4.219-12.452-6.014-19.372-5.06
	c-5.613,0.775-10.707,3.285-14.683,7.176l-27.452-1.825l16.826-136.683l30.15,2.049c0.171,0.011,0.341,0.017,0.51,0.017
	c2.798,0,5.383-1.564,6.672-4.08l11.299-22.047c2.863-5.581,9.326-8.418,15.369-6.745l16.78,4.64
	c3.989,1.101,8.123-1.238,9.228-5.23c1.104-3.992-1.238-8.124-5.23-9.228l-16.777-4.639c-12.86-3.56-26.62,2.476-32.715,14.357
	l-9.047,17.653l-24.402-1.658l0.578-4.696c1.848-15.009-8.859-28.722-23.868-30.57l-57.788-7.11
	c-4.118-0.504-7.854,2.417-8.36,6.527c-0.506,4.111,2.417,7.854,6.527,8.36l57.788,7.114c3.294,0.405,6.233,2.069,8.275,4.685
	s2.944,5.871,2.538,9.165l-19.844,161.2c-0.837,6.799-7.051,11.646-13.85,10.814l-57.788-7.114c-4.116-0.502-7.854,2.416-8.36,6.527
	c-0.506,4.111,2.417,7.854,6.527,8.36l57.788,7.114c1.132,0.139,2.257,0.207,3.37,0.207c10.13,0,19.269-5.628,24.004-14.207
	l20.537,1.365c-2.455,4.752-3.396,10.131-2.65,15.538c0.956,6.921,4.55,13.057,10.12,17.275c4.593,3.479,10.075,5.31,15.739,5.31
	c1.205,0,2.418-0.083,3.633-0.25c0.078-0.011,0.154-0.026,0.231-0.038c0.01,0.078,0.016,0.155,0.026,0.233
	c0.956,6.921,4.55,13.057,10.12,17.275c4.715,3.57,10.259,5.295,15.762,5.295c1.29,0,2.577-0.105,3.851-0.293
	c0.864,6.728,4.315,13.119,10.137,17.528c4.715,3.571,10.259,5.295,15.762,5.295c1.286,0,2.569-0.104,3.839-0.291
	c0.011,0.083,0.017,0.167,0.028,0.25c0.956,6.921,4.55,13.057,10.121,17.275c4.593,3.478,10.075,5.31,15.738,5.31
	c1.206,0,2.419-0.083,3.633-0.25c6.922-0.956,13.057-4.55,17.275-10.12l15.514-20.485
	C220.871,512.59,218.601,496.15,207.102,487.442z M88.073,472.246c-2.951,0.408-5.887-0.359-8.263-2.159
	c-2.376-1.799-3.909-4.417-4.317-7.369c-0.408-2.953,0.359-5.887,2.159-8.264l5.713-7.544c1.799-2.376,4.417-3.909,7.369-4.317
	c2.953-0.405,5.887,0.359,8.264,2.159c2.376,1.799,3.909,4.417,4.317,7.369s-0.359,5.886-2.158,8.263l-5.714,7.544
	C93.643,470.304,91.026,471.838,88.073,472.246z M109.559,492.617c-2.376-1.799-3.909-4.417-4.317-7.369
	c-0.408-2.953,0.359-5.887,2.159-8.264l5.713-7.543c0,0,0.001-0.001,0.001-0.002l5.045-6.662c2.192-2.894,5.531-4.417,8.909-4.417
	c2.347,0,4.712,0.736,6.723,2.259c4.905,3.715,5.874,10.727,2.159,15.633l-10.759,14.207
	C121.477,495.364,114.464,496.332,109.559,492.617z M139.309,515.147c-2.376-1.799-3.909-4.417-4.317-7.37
	c-0.408-2.951,0.358-5.885,2.156-8.26c0.001-0.001,0.001-0.002,0.002-0.003l10.759-14.208l0,0l3.904-5.155
	c1.799-2.376,4.417-3.909,7.37-4.317c2.954-0.406,5.887,0.359,8.264,2.159c4.903,3.713,5.872,10.722,2.162,15.627l-14.667,19.367
	c-0.001,0.001-0.002,0.002-0.002,0.003C151.224,517.893,144.215,518.862,139.309,515.147z M200.205,515.033l-15.514,20.485
	c-1.799,2.376-4.417,3.909-7.369,4.317c-2.955,0.407-5.888-0.359-8.264-2.158c-2.376-1.799-3.909-4.417-4.317-7.369
	c-0.408-2.953,0.359-5.887,2.159-8.264l14.664-19.362c0.003-0.003,0.005-0.007,0.008-0.01l0.843-1.113
	c1.799-2.376,4.417-3.909,7.37-4.317c2.953-0.405,5.887,0.359,8.264,2.159C202.951,503.114,203.92,510.128,200.205,515.033z"/>
<path d="M462.945,446.392c-0.506-4.11-4.245-7.029-8.36-6.527l-57.787,7.114c-6.809,0.837-13.013-4.015-13.85-10.814l-0.592-4.811
	l0,0l-0.137-1.114l-19.114-155.275c-0.406-3.294,0.496-6.548,2.538-9.165c2.042-2.616,4.981-4.28,8.275-4.685l57.788-7.114
	c4.111-0.506,7.033-4.249,6.527-8.36c-0.506-4.11-4.245-7.029-8.36-6.527l-57.788,7.114c-14.123,1.739-24.433,13.984-24.062,27.929
	l-14.573,1.794l-45.126-25.395c-6.39-3.6-13.634-5.146-20.949-4.474c-0.015,0.001-0.03,0.005-0.045,0.006l-13.583,1.256
	c-4.125,0.381-7.159,4.034-6.777,8.159c0.381,4.124,4.028,7.153,8.159,6.777l13.621-1.26c4.262-0.394,8.486,0.508,12.214,2.606
	l46.787,26.33c1.464,0.966,3.246,1.408,5.048,1.187l16.926-2.083l12.415,100.843l4.293,34.874l-26.997,0.022
	c-1.8,0.001-3.538,0.65-4.897,1.825l-2.089,1.626l-67.778-58.416c15.489-4.453,30.254-15.224,44.059-32.177
	c2.615-3.212,2.132-7.936-1.08-10.552c-3.212-2.615-7.937-2.132-10.552,1.08c-15.43,18.95-31.654,28.704-48.222,28.99
	c-24.137,0.454-41.872-19.56-42.035-19.747c-1.475-1.706-3.637-2.65-5.891-2.595c-2.254,0.064-4.359,1.14-5.733,2.927l-20.147,26.22
	c-10.615,13.816-28.698,18.964-44.999,12.806l-2.151-0.813c-1.889-0.714-2.659-2.19-2.949-3.007
	c-0.29-0.817-0.626-2.448,0.388-4.194l52.584-90.507c3.401-5.854,9.457-9.721,16.199-10.345l31.133-2.879
	c4.125-0.382,7.159-4.035,6.777-8.159s-4.035-7.157-8.159-6.777l-31.133,2.879c-11.565,1.07-21.953,7.704-27.788,17.746
	l-52.584,90.507c-2.96,5.096-3.526,11.203-1.551,16.756c1.975,5.553,6.27,9.931,11.782,12.013l2.151,0.813
	c6.344,2.396,12.881,3.553,19.331,3.553c16.453-0.001,32.323-7.535,42.863-21.252l15.031-19.562
	c8.055,6.942,23.082,17.224,42.264,18.487l97.945,84.416c1.761,1.517,2.826,3.629,2.998,5.947s-0.568,4.565-2.083,6.324
	l-3.817,4.427c-4.795,5.554-13.224,6.171-18.788,1.378c-0.311-0.268-0.642-0.498-0.981-0.706l-25.426-21.924
	c-3.135-2.704-7.872-2.354-10.578,0.783c-2.705,3.137-2.354,7.873,0.783,10.578l20.662,17.816l-9.425,10.938
	c-2.896,3.359-7.254,5.056-11.653,4.539c-2.633-0.31-5.098-1.399-7.128-3.15c-0.036-0.031-0.075-0.057-0.111-0.087l-23.625-20.37
	c-3.137-2.704-7.872-2.354-10.578,0.783c-2.705,3.137-2.354,7.873,0.783,10.578l18.054,15.567l-9.481,11.011
	c-2.897,3.36-7.265,5.057-11.665,4.539c-4.115-0.486-7.841,2.46-8.324,6.573c-0.483,4.114,2.459,7.841,6.573,8.324
	c1.111,0.13,2.219,0.195,3.323,0.195c8.19,0,16.029-3.547,21.457-9.84l10.136-11.771c2.769,1.32,5.746,2.183,8.834,2.546
	c9.36,1.1,18.613-2.505,24.767-9.643l10.153-11.783c11.228,5.326,25.096,2.771,33.596-7.076l3.822-4.433
	c4.132-4.797,6.149-10.916,5.68-17.229c-0.469-6.314-3.37-12.067-8.164-16.196l-6.156-5.305l22.501-0.019
	c2.459,12.96,13.864,22.299,26.915,22.299c1.112,0,2.239-0.068,3.37-0.207l57.788-7.114
	C460.528,454.246,463.451,450.504,462.945,446.392z"/>
<path d="M415.003,392.249c-12.13,0-21.999,9.868-21.999,21.998s9.869,21.999,21.999,21.999s21.998-9.869,21.998-21.999
	S427.133,392.249,415.003,392.249z M415.003,421.246c-3.859,0-6.999-3.14-6.999-6.999s3.14-6.998,6.999-6.998
	s6.998,3.139,6.998,6.998S418.862,421.246,415.003,421.246z"/>
<path d="M20.189,414.247c0-12.13-9.868-21.998-21.998-21.998s-21.998,9.868-21.998,21.998s9.868,21.999,21.998,21.999
	S20.189,426.377,20.189,414.247z M-8.807,414.247c0-3.859,3.139-6.998,6.998-6.998s6.998,3.139,6.998,6.998
	s-3.139,6.999-6.998,6.999S-8.807,418.106-8.807,414.247z"/>
</svg>
