<?xml version="1.0" encoding="utf-8"?>
<!-- Generator: Adobe Illustrator 22.1.0, SVG Export Plug-In . SVG Version: 6.00 Build 0)  -->
<svg version="1.1" id="Warstwa_1" xmlns="http://www.w3.org/2000/svg" xmlns:xlink="http://www.w3.org/1999/xlink" x="0px" y="0px"
	 viewBox="0 0 3073.1 1299.3" style="enable-background:new 0 0 3073.1 1299.3;" xml:space="preserve">
<style type="text/css">
	.st0{fill:#F8B525;}
	.st1{fill:#76227D;}
	.st2{fill:#FFFFFF;}
	.st3{fill:none;stroke:#FFFFFF;stroke-width:0.198;stroke-miterlimit:10;}
	.st4{fill:#A8A8A7;}
	.st5{fill:none;stroke:#A8A8A7;stroke-width:0.198;stroke-miterlimit:10;}
</style>
<path class="st0" d="M1513.7,583.3c-168.9-244.9-200.3-270-200.3-360c0-123.4,100-223.3,223.2-223.3s223.2,99.9,223.2,223.2
	c0,90-31.4,115.1-200.3,360C1548.5,599.3,1524.8,599.3,1513.7,583.3L1513.7,583.3z M1536.6,316.2c51.4,0,93-41.6,93-93
	s-41.6-93-93-93s-93,41.6-93,93S1485.3,316.2,1536.6,316.2z"/>
<g>
	<path class="st1" d="M415.3,1294.4c-7.4-57-14.9-114-3.7-172.2c2.5-14.9,8.7-29.7,16.1-44.6c29.7-54.5,43.4-112.8,31-176
		c-9.9-48.3-42.1-89.2-86.7-111.5c-53.3-27.3-110.3-37.2-171-28.5c-59.5,9.9-104.1,42.1-137.5,90.5c-28.5,42.1-33.5,88-21.1,135.1
		c11.2,39.7-5,65.7-32.2,89.2c-13.6,11.2-13.6,18.6,1.2,27.3c6.2,3.7,12.4,7.4,18.6,11.2c9.9,7.4,13.6,17.3,8.7,29.7
		c-12.4,27.3-8.7,31,18.6,39.7c6.2,2.5,11.2,9.9,13.6,16.1c2.5,6.2,0,14.9,0,22.3c-1.2,21.1,6.2,27.3,26,24.8
		c17.3-2.5,34.7-5,53.3-6.2c27.3-2.5,59.5,26,68.2,52"/>
	<path class="st2" d="M391.7,920.2L391.7,920.2c0-2.5,1.2-5,1.2-7.4c0-5,0-8.7-1.2-13.6l0,0L414,888l-7.4-17.3l-23.5,7.4l0,0
		c-3.7-6.2-8.7-11.2-14.9-14.9l0,0l7.4-23.5l-18.6-7.4l-11.2,21.1l0,0c-2.5,0-5-1.2-8.7-1.2c-5,0-8.7,0-13.6,1.2l0,0L312.4,831
		l-18.6,7.4l7.4,23.5l0,0c-3.7,3.7-8.7,8.7-13.6,14.9l0,0l-23.5-7.4l-7.4,18.6l21.1,11.2l0,0c0,2.5-1.2,5-1.2,8.7
		c0,5,0,8.7,1.2,13.6l0,0l-22.3,11.2l7.4,18.6l23.5-7.4c3.7,6.2,8.7,11.2,14.9,14.9l-7.4,23.5l18.6,7.4l11.2-21.1
		c2.5,0,5,1.2,7.4,1.2c5,0,8.7,0,13.6-1.2l0,0l11.2,22.3l18.6-7.4l-7.4-26l0,0c6.2-3.7,11.2-8.7,14.9-14.9l0,0l23.5,7.4l7.4-18.6
		L391.7,920.2z M303.7,907.8c1.2-17.3,16.1-31,33.5-29.7c17.3,1.2,31,16.1,29.7,33.5c-1.2,17.3-16.1,31-33.5,29.7
		C316.1,940,303.7,925.1,303.7,907.8"/>
	<path class="st3" d="M391.7,920.2L391.7,920.2c0-2.5,1.2-5,1.2-7.4c0-5,0-8.7-1.2-13.6l0,0L414,888l-7.4-17.3l-23.5,7.4l0,0
		c-3.7-6.2-8.7-11.2-14.9-14.9l0,0l7.4-23.5l-18.6-7.4l-11.2,21.1l0,0c-2.5,0-5-1.2-8.7-1.2c-5,0-8.7,0-13.6,1.2l0,0L312.4,831
		l-18.6,7.4l7.4,23.5l0,0c-3.7,3.7-8.7,8.7-13.6,14.9l0,0l-23.5-7.4l-7.4,18.6l21.1,11.2l0,0c0,2.5-1.2,5-1.2,8.7
		c0,5,0,8.7,1.2,13.6l0,0l-22.3,11.2l7.4,18.6l23.5-7.4c3.7,6.2,8.7,11.2,14.9,14.9l-7.4,23.5l18.6,7.4l11.2-21.1
		c2.5,0,5,1.2,7.4,1.2c5,0,8.7,0,13.6-1.2l0,0l11.2,22.3l18.6-7.4l-7.4-26l0,0c6.2-3.7,11.2-8.7,14.9-14.9l0,0l23.5,7.4l7.4-18.6
		L391.7,920.2z M303.7,907.8c1.2-17.3,16.1-31,33.5-29.7c17.3,1.2,31,16.1,29.7,33.5c-1.2,17.3-16.1,31-33.5,29.7
		C316.1,940,303.7,925.1,303.7,907.8z"/>
	<path class="st2" d="M217,922.7c1.2-2.5,2.5-3.7,3.7-6.2c1.2-3.7,2.5-7.4,2.5-11.2l0,0l19.8-2.5v-16.1l-19.8-1.2l0,0
		c-1.2-6.2-3.7-11.2-7.4-16.1l0,0l12.4-16.1l-12.4-11.2l-14.9,13.6l0,0c-2.5-1.2-3.7-2.5-6.2-3.7c-3.7-1.2-7.4-2.5-11.2-2.5l0,0
		l-2.5-19.8L165,831l-1.2,19.8l0,0c-6.2,1.2-11.2,3.7-16.1,7.4l0,0l-16.1-12.4l-9.9,12.4l13.6,14.9l0,0c-1.2,2.5-2.5,3.7-3.7,6.2
		c-1.2,3.7-2.5,7.4-2.5,11.2l0,0l-19.8,2.5V909l19.8,1.2l0,0c1.2,6.2,3.7,11.2,7.4,16.1l0,0l-12.4,16.1l12.4,11.2l14.9-13.6l0,0
		c2.5,1.2,3.7,2.5,6.2,3.7c3.7,1.2,7.4,2.5,11.2,2.5l0,0l2.5,19.8h16.1l1.2-19.8l0,0c6.2-1.2,11.2-3.7,16.1-7.4l0,0l16.1,12.4
		l11.2-12.4L217,922.7L217,922.7z M199.7,907.8c-5,13.6-21.1,19.8-33.5,13.6c-13.6-6.2-19.8-21.1-13.6-34.7
		c6.2-13.6,21.1-19.8,33.5-13.6C199.7,879.3,205.9,895.4,199.7,907.8"/>
	<path class="st3" d="M217,922.7c1.2-2.5,2.5-3.7,3.7-6.2c1.2-3.7,2.5-7.4,2.5-11.2l0,0l19.8-2.5v-16.1l-19.8-1.2l0,0
		c-1.2-6.2-3.7-11.2-7.4-16.1l0,0l12.4-16.1l-12.4-11.2l-14.9,13.6l0,0c-2.5-1.2-3.7-2.5-6.2-3.7c-3.7-1.2-7.4-2.5-11.2-2.5l0,0
		l-2.5-19.8L165,831l-1.2,19.8l0,0c-6.2,1.2-11.2,3.7-16.1,7.4l0,0l-16.1-12.4l-9.9,12.4l13.6,14.9l0,0c-1.2,2.5-2.5,3.7-3.7,6.2
		c-1.2,3.7-2.5,7.4-2.5,11.2l0,0l-19.8,2.5V909l19.8,1.2l0,0c1.2,6.2,3.7,11.2,7.4,16.1l0,0l-12.4,16.1l12.4,11.2l14.9-13.6l0,0
		c2.5,1.2,3.7,2.5,6.2,3.7c3.7,1.2,7.4,2.5,11.2,2.5l0,0l2.5,19.8h16.1l1.2-19.8l0,0c6.2-1.2,11.2-3.7,16.1-7.4l0,0l16.1,12.4
		l11.2-12.4L217,922.7L217,922.7z M199.7,907.8c-5,13.6-21.1,19.8-33.5,13.6c-13.6-6.2-19.8-21.1-13.6-34.7
		c6.2-13.6,21.1-19.8,33.5-13.6C199.7,879.3,205.9,895.4,199.7,907.8z"/>
	<path class="st4" d="M281.4,1046.6c1.2-2.5,1.2-5,2.5-6.2c1.2-3.7,1.2-7.4,1.2-11.2l0,0l19.8-6.2l-3.7-16.1l-21.1,2.5
		c-2.5-6.2-6.2-11.2-9.9-14.9l0,0l9.9-18.6l-13.6-8.7l-12.4,16.1l0,0c-2.5-1.2-5-1.2-6.2-2.5c-3.7-1.2-7.4-1.2-11.2-1.2l0,0
		l-6.2-19.8l-16.1,3.7l2.5,21.1c-6.2,2.5-11.2,6.2-14.9,9.9l0,0l-18.6-9.9l-8.7,14.9l16.1,12.4l0,0c-1.2,2.5-1.2,5-2.5,6.2
		c-2.5,3.7-2.5,7.4-2.5,11.2l0,0l-19.8,6.2l3.7,16.1l21.1-2.5l0,0c2.5,6.2,6.2,11.2,9.9,14.9l-9.9,18.6l13.6,8.7l12.4-16.1
		c2.5,1.2,5,1.2,6.2,2.5c3.7,1.2,7.4,1.2,11.2,1.2l0,0l6.2,19.8l16.1-3.7l-2.5-21.1c5-2.5,11.2-6.2,14.9-9.9l0,0l18.6,9.9l8.7-14.9
		L281.4,1046.6L281.4,1046.6z M261.6,1035.4c-3.7,14.9-17.3,23.5-32.2,19.8c-14.9-3.7-23.5-17.3-19.8-32.2s17.3-23.5,32.2-19.8
		C256.7,1005.7,265.3,1020.6,261.6,1035.4"/>
	<path class="st5" d="M281.4,1046.6c1.2-2.5,1.2-5,2.5-6.2c1.2-3.7,1.2-7.4,1.2-11.2l0,0l19.8-6.2l-3.7-16.1l-21.1,2.5
		c-2.5-6.2-6.2-11.2-9.9-14.9l0,0l9.9-18.6l-13.6-8.7l-12.4,16.1l0,0c-2.5-1.2-5-1.2-6.2-2.5c-3.7-1.2-7.4-1.2-11.2-1.2l0,0
		l-6.2-19.8l-16.1,3.7l2.5,21.1c-6.2,2.5-11.2,6.2-14.9,9.9l0,0l-18.6-9.9l-8.7,14.9l16.1,12.4l0,0c-1.2,2.5-1.2,5-2.5,6.2
		c-2.5,3.7-2.5,7.4-2.5,11.2l0,0l-19.8,6.2l3.7,16.1l21.1-2.5l0,0c2.5,6.2,6.2,11.2,9.9,14.9l-9.9,18.6l13.6,8.7l12.4-16.1
		c2.5,1.2,5,1.2,6.2,2.5c3.7,1.2,7.4,1.2,11.2,1.2l0,0l6.2,19.8l16.1-3.7l-2.5-21.1c5-2.5,11.2-6.2,14.9-9.9l0,0l18.6,9.9l8.7-14.9
		L281.4,1046.6L281.4,1046.6z M261.6,1035.4c-3.7,14.9-17.3,23.5-32.2,19.8c-14.9-3.7-23.5-17.3-19.8-32.2s17.3-23.5,32.2-19.8
		C256.7,1005.7,265.3,1020.6,261.6,1035.4z"/>
	<path class="st1" d="M712.6,909c-5,11.2-12.4,19.8-22.3,26s-19.8,11.2-33.5,14.9c-12.4,2.5-27.3,3.7-42.1,3.7c-6.2,0-12.4,0-19.8,0
		s-12.4-1.2-18.6-1.2v105.3c0,2.5,0,3.7-1.2,5c-1.2,1.2-2.5,2.5-5,2.5h-19.8c-2.5,0-3.7-1.2-5-2.5c0-1.2,0-3.7,0-5V795
		c0-5,2.5-8.7,8.7-9.9c7.4,0,17.3-1.2,28.5-1.2s22.3-1.2,33.5-1.2c14.9,0,29.7,1.2,42.1,3.7c12.4,2.5,23.5,7.4,33.5,13.6
		s16.1,14.9,22.3,24.8c5,9.9,7.4,23.5,7.4,38.4v5C721.3,885.5,718.8,897.9,712.6,909 M686.6,864.4c0-18.6-5-32.2-17.3-40.9
		c-11.2-7.4-29.7-12.4-53.3-12.4c-6.2,0-12.4,0-19.8,0c-7.4,0-13.6,1.2-17.3,1.2v110.3c2.5,0,5,0,8.7,0s6.2,0,9.9,0s7.4,0,9.9,0
		c3.7,0,6.2,0,8.7,0c26,0,43.4-5,54.5-13.6c11.2-8.7,16.1-22.3,16.1-42.1V864.4z"/>
	<path class="st1" d="M893.5,1013.1c0,18.6-6.2,33.5-19.8,42.1c-12.4,8.7-29.7,12.4-50.8,12.4c-3.7,0-7.4,0-12.4,0s-9.9,0-14.9-1.2
		c-5,0-11.2-1.2-16.1-2.5s-9.9-1.2-14.9-2.5c-5-1.2-7.4-3.7-7.4-7.4v-13.6c0-1.2,0-3.7,2.5-3.7c1.2-1.2,2.5-1.2,5-1.2h1.2
		c5,0,9.9,1.2,14.9,1.2c5,0,11.2,1.2,16.1,1.2c5,0,11.2,1.2,16.1,1.2s8.7,0,12.4,0c12.4,0,21.1-2.5,27.3-6.2s9.9-11.2,9.9-21.1
		c0-6.2-2.5-11.2-6.2-14.9c-3.7-3.7-11.2-9.9-22.3-16.1l-38.4-22.3c-11.2-7.4-21.1-14.9-27.3-23.5c-7.4-8.7-9.9-18.6-9.9-31
		c0-9.9,1.2-17.3,5-24.8c3.7-6.2,8.7-11.2,13.6-14.9c6.2-3.7,13.6-6.2,21.1-8.7c8.7-1.2,17.3-2.5,27.3-2.5c9.9,0,21.1,0,31,1.2
		c8.7,3.7,17.3,3.7,26,6.2c5,1.2,7.4,3.7,7.4,7.4v12.4c0,3.7-2.5,6.2-6.2,6.2h-1.2c-6.2,0-14.9-1.2-26-2.5
		c-11.2-1.2-21.1-1.2-32.2-1.2c-11.2,0-18.6,1.2-24.8,3.7c-6.2,2.5-9.9,8.7-9.9,18.6c0,6.2,2.5,11.2,6.2,14.9s11.2,8.7,19.8,13.6
		l37.2,22.3c14.9,8.7,26,18.6,32.2,27.3C889.8,992.1,893.5,1002,893.5,1013.1"/>
	<path class="st1" d="M1096.8,864.4c0,1.2,0,2.5,0,2.5l-62,216.8c-2.5,9.9-6.2,18.6-9.9,26c-3.7,7.4-7.4,12.4-12.4,17.3
		s-11.2,7.4-18.6,9.9c-7.4,2.5-16.1,2.5-27.3,2.5c-5,0-11.2,0-16.1-1.2c-6.2,0-11.2-1.2-14.9-2.5c-2.5,0-3.7-1.2-6.2-2.5
		c-1.2-1.2-2.5-2.5-2.5-3.7V1116c0-3.7,2.5-6.2,7.4-6.2h1.2c3.7,0,9.9,1.2,16.1,1.2c7.4,0,12.4,1.2,16.1,1.2c5,0,9.9,0,13.6-1.2
		c3.7-1.2,7.4-2.5,9.9-5c2.5-2.5,5-6.2,7.4-9.9s3.7-9.9,5-16.1l3.7-14.9h-5c-2.5,0-5,0-8.7-1.2c-2.5,0-5-1.2-7.4-3.7
		c-2.5-1.2-5-5-6.2-7.4c-2.5-3.7-3.7-8.7-6.2-13.6l-49.6-172.2c0,0,0-1.2,0-2.5c2.5-3.7,5-6.2,8.7-6.2h21.1c1.2,0,2.5,1.2,3.7,2.5
		c1.2,1.2,2.5,2.5,2.5,3.7l44.6,163.6c1.2,3.7,2.5,6.2,3.7,7.4c1.2,1.2,2.5,1.2,3.7,1.2h6.2l45.8-172.2c0-1.2,1.2-2.5,2.5-3.7
		c0-2.5,1.2-2.5,3.7-2.5h21.1C1095.5,858.2,1096.8,860.7,1096.8,864.4"/>
	<path class="st1" d="M1262.8,1060.2c-1.2,1.2-2.5,2.5-6.2,2.5c-6.2,1.2-13.6,2.5-21.1,2.5c-8.7,1.2-16.1,1.2-24.8,1.2
		c-12.4,0-23.5-2.5-33.5-6.2c-9.9-5-18.6-11.2-24.8-18.6c-7.4-7.4-12.4-17.3-16.1-28.5c-3.7-11.2-5-23.5-5-37.2v-29.7
		c0-13.6,1.2-26,5-37.2c3.7-11.2,8.7-21.1,14.9-28.5c6.2-7.4,14.9-13.6,24.8-18.6c9.9-5,21.1-6.2,33.5-6.2c8.7,0,17.3,0,24.8,1.2
		c8.7,1.2,14.9,1.2,21.1,2.5c2.5,0,5,1.2,6.2,2.5c1.2,1.2,1.2,2.5,1.2,6.2v13.6c0,2.5-1.2,3.7-2.5,3.7c-1.2,1.2-2.5,1.2-5,1.2h-1.2
		c-8.7-1.2-16.1-1.2-22.3-2.5c-6.2,0-14.9,0-23.5,0c-14.9,0-26,5-34.7,14.9c-8.7,9.9-12.4,26-12.4,47.1v29.7
		c0,21.1,3.7,37.2,12.4,47.1c7.4,9.9,19.8,14.9,34.7,14.9c8.7,0,17.3,0,23.5,0c6.2,0,13.6-1.2,22.3-2.5h1.2c1.2,0,3.7,0,5,1.2
		c1.2,1.2,2.5,2.5,2.5,3.7v13.6C1264,1057.7,1264,1059,1262.8,1060.2"/>
	<path class="st1" d="M1462.3,1062.7c-1.2,1.2-3.7,2.5-5,2.5H1440c-2.5,0-3.7-1.2-5-2.5c-1.2-1.2-2.5-3.7-2.5-5V933.8
		c0-18.6-3.7-32.2-11.2-38.4c-7.4-7.4-17.3-9.9-29.7-9.9c-2.5,0-6.2,0-11.2,0c-3.7,0-8.7,1.2-13.6,2.5c-5,1.2-9.9,2.5-13.6,3.7
		c-5,1.2-8.7,2.5-13.6,5V1059c0,2.5-1.2,3.7-2.5,5c-1.2,1.2-3.7,2.5-5,2.5h-18.6c-2.5,0-3.7-1.2-5-2.5c-1.2-1.2-2.5-3.7-2.5-5V790.1
		c0-2.5,1.2-3.7,2.5-5c1.2-1.2,2.5-2.5,5-2.5h18.6c2.5,0,3.7,1.2,5,2.5c1.2,1.2,2.5,3.7,2.5,5v76.8c8.7-3.7,18.6-7.4,29.7-8.7
		c11.2-2.5,19.8-2.5,27.3-2.5c9.9,0,18.6,1.2,27.3,5c8.7,2.5,14.9,7.4,21.1,13.6c6.2,6.2,11.2,14.9,13.6,24.8c3.7,9.9,5,22.3,5,35.9
		V1059C1463.5,1059,1463.5,1061.4,1462.3,1062.7"/>
	<path class="st1" d="M1669.2,1013.1c-3.7,11.2-8.7,21.1-16.1,28.5c-7.4,7.4-16.1,13.6-26,18.6c-9.9,5-22.3,6.2-35.9,6.2
		s-26-2.5-35.9-6.2c-9.9-5-18.6-11.2-26-18.6c-7.4-7.4-12.4-17.3-16.1-28.5s-5-23.5-5-37.2v-28.5c0-13.6,1.2-26,5-37.2
		c3.7-11.2,8.7-21.1,16.1-28.5c7.4-7.4,16.1-13.6,26-18.6c9.9-5,22.3-6.2,35.9-6.2c13.6,0,26,2.5,35.9,6.2c9.9,5,18.6,11.2,26,18.6
		c7.4,7.4,12.4,17.3,16.1,28.5c3.7,11.2,5,23.5,5,37.2v28.5C1674.2,989.6,1672.9,1002,1669.2,1013.1 M1642,947.4
		c0-19.8-3.7-34.7-12.4-45.8c-7.4-11.2-21.1-17.3-38.4-17.3c-17.3,0-29.7,5-38.4,16.1c-7.4,11.2-12.4,26-12.4,45.8v28.5
		c0,19.8,3.7,34.7,12.4,45.8c7.4,11.2,21.1,17.3,38.4,17.3s29.7-6.2,38.4-16.1c8.7-11.2,12.4-26,12.4-45.8V947.4z"/>
	<path class="st4" d="M1946.8,1062.7c-1.2,1.2-3.7,2.5-5,2.5h-18.6c-2.5,0-3.7-1.2-5-2.5c-1.2-1.2-2.5-3.7-2.5-5v-223
		c0-1.2,0-1.2,0-1.2s0,0-1.2,1.2l-53.3,111.5c-2.5,3.7-3.7,6.2-6.2,8.7c-2.5,1.2-6.2,2.5-9.9,2.5h-17.3c-5,0-8.7-1.2-11.2-2.5
		c-2.5-1.2-5-5-6.2-8.7l-53.3-111.5c0,0,0-1.2-1.2-1.2c0,0,0,0,0,1.2v223c0,2.5-1.2,3.7-2.5,5c-1.2,1.2-3.7,2.5-5,2.5h-18.6
		c-2.5,0-3.7-1.2-5-2.5c-1.2-1.2-2.5-3.7-2.5-5V796.3c0-2.5,1.2-5,3.7-7.4c2.5-2.5,5-3.7,7.4-3.7h23.5c3.7,0,6.2,0,7.4,1.2
		c1.2,1.2,2.5,2.5,3.7,5l62,128.9c1.2,2.5,2.5,3.7,5,3.7c1.2,0,3.7-1.2,5-3.7l62-128.9c1.2-2.5,2.5-3.7,3.7-5
		c1.2-1.2,3.7-1.2,7.4-1.2h23.5c2.5,0,5,1.2,7.4,3.7c2.5,2.5,3.7,5,3.7,7.4v260.2C1949.3,1059,1948,1061.4,1946.8,1062.7"/>
	<path class="st4" d="M2162.4,1063.9c0,1.2-1.2,1.2-2.5,2.5c-3.7,0-8.7,1.2-13.6,1.2c-6.2,0-12.4,0-19.8,0c-7.4,0-13.6,0-21.1,0
		h-18.6c-26,0-45.8-5-59.5-16.1c-13.6-11.2-19.8-28.5-19.8-53.3v-145c0-24.8,6.2-43.4,19.8-53.3c13.6-11.2,33.5-16.1,59.5-16.1
		c5,0,11.2,0,18.6,0c7.4,0,13.6,0,19.8,0c6.2,0,13.6,0,18.6,0c6.2,0,11.2,0,14.9,1.2c1.2,0,2.5,1.2,2.5,2.5s1.2,2.5,1.2,3.7v17.3
		c0,2.5-1.2,5-3.7,5h-71.9c-9.9,0-17.3,1.2-23.5,2.5c-6.2,1.2-11.2,3.7-13.6,6.2c-3.7,3.7-5,7.4-6.2,12.4c-1.2,5-1.2,11.2-1.2,18.6
		v52h115.2c2.5,0,3.7,1.2,5,2.5c1.2,1.2,2.5,3.7,2.5,5v13.6c0,2.5-1.2,3.7-2.5,5c-1.2,1.2-3.7,2.5-5,2.5h-115.2V997
		c0,7.4,0,13.6,1.2,18.6c1.2,5,3.7,8.7,6.2,12.4c3.7,3.7,7.4,5,13.6,6.2c6.2,1.2,13.6,2.5,23.5,2.5h71.9c2.5,0,3.7,1.2,3.7,5v18.6
		C2163.6,1061.4,2163.6,1062.7,2162.4,1063.9"/>
	<path class="st4" d="M2395.3,1002c-5,14.9-12.4,27.3-22.3,35.9c-9.9,9.9-22.3,17.3-35.9,21.1c-13.6,5-29.7,7.4-47.1,7.4
		c-7.4,0-13.6,0-21.1,0s-13.6,0-19.8-1.2c-6.2,0-11.2-1.2-16.1-1.2c-5,0-8.7-1.2-11.2-1.2c-5-1.2-7.4-3.7-7.4-9.9V796.3
		c0-5,2.5-8.7,7.4-9.9c2.5,0,6.2-1.2,11.2-1.2s9.9-1.2,16.1-1.2c6.2,0,12.4-1.2,19.8-1.2c7.4,0,13.6,0,21.1,0
		c17.3,0,32.2,2.5,47.1,6.2c13.6,5,26,11.2,35.9,21.1c9.9,9.9,17.3,22.3,22.3,35.9c5,14.9,7.4,32.2,7.4,52v50.8
		C2402.8,971,2400.3,988.3,2395.3,1002 M2369.3,899.1c0-17.3-2.5-31-6.2-42.1c-3.7-11.2-9.9-19.8-16.1-27.3
		c-7.4-6.2-14.9-11.2-24.8-13.6c-9.9-2.5-19.8-3.7-31-3.7c-8.7,0-16.1,0-22.3,0c-6.2,0-12.4,0-18.6,1.2v224.3
		c6.2,0,12.4,1.2,18.6,1.2h22.3c11.2,0,21.1-1.2,31-3.7c9.9-2.5,18.6-7.4,24.8-14.9c7.4-6.2,12.4-16.1,16.1-27.3s6.2-24.8,6.2-42.1
		V899.1z"/>
	<path class="st4" d="M2489.5,1062.7c-1.2,1.2-2.5,2.5-5,2.5h-21.1c-2.5,0-3.7-1.2-5-2.5c-1.2-1.2-2.5-3.7-2.5-5V792.6
		c0-2.5,1.2-3.7,2.5-5s2.5-2.5,5-2.5h21.1c2.5,0,3.7,1.2,5,2.5c1.2,1.2,2.5,2.5,2.5,5v265.2
		C2490.7,1059,2490.7,1061.4,2489.5,1062.7"/>
	<path class="st4" d="M2712.5,1060.2c-1.2,1.2-3.7,2.5-5,2.5c-3.7,1.2-7.4,1.2-12.4,2.5c-3.7,0-8.7,1.2-13.6,1.2
		c-5,0-9.9,1.2-16.1,1.2s-12.4,0-21.1,0c-11.2,0-23.5-1.2-34.7-5c-11.2-3.7-22.3-9.9-32.2-18.6s-17.3-21.1-23.5-35.9
		c-6.2-14.9-8.7-33.5-8.7-57v-52c0-23.5,2.5-42.1,8.7-57c6.2-14.9,13.6-27.3,23.5-35.9c9.9-8.7,19.8-14.9,32.2-18.6
		c11.2-3.7,23.5-5,34.7-5c12.4,0,23.5,1.2,34.7,2.5c11.2,1.2,19.8,2.5,28.5,3.7c3.7,0,6.2,2.5,6.2,5v18.6c0,1.2,0,2.5-1.2,2.5
		c0,1.2-1.2,1.2-3.7,1.2h-1.2c-3.7,0-7.4,0-12.4-1.2c-5,0-9.9-1.2-16.1-1.2s-11.2-1.2-17.3-1.2c-6.2,0-11.2,0-17.3,0
		c-8.7,0-17.3,1.2-26,3.7c-7.4,2.5-14.9,7.4-21.1,14.9c-6.2,6.2-9.9,14.9-13.6,26s-5,24.8-5,40.9v52c0,16.1,1.2,29.7,5,39.7
		c3.7,11.2,7.4,19.8,13.6,26s12.4,11.2,21.1,14.9c7.4,2.5,16.1,5,26,5c5,0,11.2,0,16.1,0c6.2,0,11.2,0,17.3-1.2
		c6.2,0,11.2,0,16.1-1.2c5,0,8.7-1.2,12.4-1.2h1.2c3.7,0,6.2,2.5,6.2,6.2v14.9C2715,1057.7,2713.8,1059,2712.5,1060.2"/>
	<path class="st4" d="M2781.9,1062.7c-1.2,1.2-2.5,2.5-5,2.5h-18.6c-2.5,0-3.7-1.2-5-2.5c-1.2-1.2-2.5-3.7-2.5-5V1023
		c0-2.5,1.2-3.7,2.5-5c1.2-1.2,2.5-2.5,5-2.5h18.6c2.5,0,3.7,1.2,5,2.5c1.2,1.2,2.5,2.5,2.5,5v33.5
		C2784.4,1059,2783.2,1060.2,2781.9,1062.7"/>
	<path class="st4" d="M2971.5,1044.1c-13.6,16.1-33.5,23.5-62,23.5c-6.2,0-12.4,0-21.1-1.2c-8.7-1.2-16.1-1.2-23.5-2.5v66.9
		c0,2.5-1.2,3.7-2.5,5c-1.2,1.2-2.5,2.5-5,2.5h-18.6c-2.5,0-3.7-1.2-5-2.5c-1.2-1.2-1.2-2.5-1.2-5V873.1c0-2.5,0-5,1.2-6.2
		c1.2-1.2,2.5-2.5,6.2-2.5c9.9-2.5,21.1-5,33.5-6.2s23.5-2.5,35.9-2.5c13.6,0,26,2.5,35.9,6.2c9.9,5,18.6,11.2,26,18.6
		c6.2,7.4,11.2,17.3,14.9,29.7c3.7,11.2,5,24.8,5,38.4v27.3C2991.3,1004.4,2985.1,1028,2971.5,1044.1 M2959.1,948.7
		c0-9.9-1.2-18.6-2.5-27.3c-1.2-7.4-3.7-14.9-7.4-21.1c-3.7-6.2-8.7-9.9-14.9-13.6c-6.2-3.7-13.6-5-23.5-5c-7.4,0-16.1,0-23.5,1.2
		c-7.4,1.2-14.9,1.2-19.8,2.5v148.7c6.2,1.2,13.6,2.5,22.3,2.5s16.1,1.2,22.3,1.2c8.7,0,17.3-1.2,23.5-3.7
		c6.2-2.5,11.2-7.4,14.9-12.4c3.7-5,6.2-12.4,7.4-19.8c1.2-7.4,2.5-17.3,2.5-27.3v-26H2959.1z"/>
	<path class="st4" d="M3070.6,1062.7c-1.2,1.2-2.5,2.5-5,2.5h-19.8c-2.5,0-3.7-1.2-5-2.5c-1.2-1.2-2.5-3.7-2.5-5V788.8
		c0-2.5,0-3.7,2.5-5c1.2-1.2,2.5-2.5,5-2.5h19.8c2.5,0,3.7,1.2,5,2.5c1.2,1.2,2.5,2.5,2.5,5v267.6
		C3073.1,1059,3071.9,1061.4,3070.6,1062.7"/>
	<path class="st4" d="M684.1,1258.5c5,3.7,11.2,5,18.6,5c11.2,0,17.3-6.2,17.3-14.9c0-7.4-5-12.4-16.1-16.1
		c-13.6-5-22.3-12.4-22.3-23.5c0-13.6,11.2-22.3,27.3-22.3c8.7,0,14.9,2.5,18.6,3.7l-2.5,8.7c-2.5-1.2-8.7-3.7-16.1-3.7
		c-11.2,0-16.1,7.4-16.1,12.4c0,7.4,5,11.2,16.1,16.1c13.6,5,21.1,12.4,21.1,24.8s-9.9,24.8-29.7,24.8c-7.4,0-17.3-2.5-21.1-5
		L684.1,1258.5z"/>
	<path class="st4" d="M758.5,1194c0,3.7-2.5,6.2-7.4,6.2c-3.7,0-6.2-2.5-6.2-6.2s2.5-7.4,6.2-7.4
		C756,1187.8,758.5,1190.3,758.5,1194 M746.1,1211.4h11.2v60.7h-11.2V1211.4z"/>
	<path class="st4" d="M780.8,1243.6c0,14.9,9.9,21.1,21.1,21.1c7.4,0,12.4-1.2,16.1-3.7l2.5,7.4c-3.7,1.2-11.2,3.7-19.8,3.7
		c-18.6,0-29.7-12.4-29.7-31c0-18.6,11.2-32.2,28.5-32.2c19.8,0,24.8,17.3,24.8,28.5c0,2.5,0,3.7,0,5h-43.4V1243.6z M813,1234.9
		c0-7.4-2.5-17.3-14.9-17.3c-11.2,0-16.1,9.9-16.1,17.3H813z"/>
	<path class="st4" d="M879.9,1269.6c-2.5,1.2-8.7,3.7-17.3,3.7c-18.6,0-29.7-12.4-29.7-31c0-18.6,12.4-32.2,32.2-32.2
		c6.2,0,12.4,1.2,14.9,3.7l-2.5,8.7c-2.5-1.2-6.2-2.5-12.4-2.5c-13.6,0-21.1,9.9-21.1,22.3c0,13.6,8.7,22.3,21.1,22.3
		c6.2,0,9.9-1.2,13.6-2.5L879.9,1269.6z M877.4,1185.4l-14.9,17.3h-7.4l11.2-17.3H877.4z"/>
	<path class="st4" d="M919.6,1187.8h11.2v40.9l0,0c2.5-3.7,5-6.2,6.2-8.7l26-31h13.6l-29.7,35.9l32.2,48.3h-12.4l-28.5-43.4
		l-7.4,8.7v32.2h-11.2V1187.8z"/>
	<rect x="987.7" y="1182.9" class="st4" width="11.2" height="88"/>
	<path class="st4" d="M1028.6,1194c0,3.7-2.5,6.2-7.4,6.2c-3.7,0-6.2-2.5-6.2-6.2s2.5-7.4,6.2-7.4
		C1026.1,1187.8,1028.6,1190.3,1028.6,1194 M1016.2,1211.4h11.2v60.7h-11.2V1211.4z"/>
	<path class="st4" d="M1046,1227.5c0-6.2,0-11.2,0-16.1h9.9l1.2,9.9l0,0c2.5-6.2,9.9-11.2,19.8-11.2c8.7,0,21.1,5,21.1,26v35.9
		h-11.2v-34.7c0-9.9-3.7-17.3-13.6-17.3c-7.4,0-12.4,5-14.9,11.2c0,1.2-1.2,3.7-1.2,5v35.9H1046V1227.5z"/>
	<path class="st4" d="M1126.5,1194c0,3.7-2.5,6.2-7.4,6.2c-3.7,0-6.2-2.5-6.2-6.2s2.5-7.4,6.2-7.4
		C1124,1187.8,1126.5,1190.3,1126.5,1194 M1114.1,1211.4h11.2v60.7h-11.2V1211.4z"/>
	<path class="st4" d="M1153.8,1238.6L1153.8,1238.6c1.2-2.5,3.7-5,5-7.4l17.3-21.1h13.6l-23.5,24.8l26,35.9h-13.6l-18.6-28.5l-5,6.2
		v22.3h-11.2v-88h11.2v55.8H1153.8z"/>
	<path class="st4" d="M1228.1,1187.8c5-1.2,12.4-1.2,21.1-1.2c11.2,0,18.6,2.5,23.5,7.4c5,3.7,7.4,9.9,7.4,17.3s-2.5,13.6-6.2,17.3
		c-6.2,6.2-14.9,8.7-26,8.7c-3.7,0-6.2,0-8.7-1.2v33.5h-11.2V1187.8z M1239.3,1228.7c2.5,0,5,1.2,8.7,1.2c13.6,0,21.1-6.2,21.1-17.3
		s-7.4-16.1-19.8-16.1c-5,0-8.7,0-9.9,1.2C1239.3,1197.7,1239.3,1228.7,1239.3,1228.7z"/>
	<path class="st4" d="M1290.1,1259.7c3.7,2.5,8.7,3.7,14.9,3.7c7.4,0,11.2-3.7,11.2-8.7s-2.5-7.4-11.2-11.2
		c-11.2-3.7-16.1-9.9-16.1-17.3c0-9.9,7.4-17.3,21.1-17.3c6.2,0,11.2,1.2,14.9,3.7l-2.5,7.4c-2.5-1.2-6.2-3.7-12.4-3.7
		c-6.2,0-9.9,3.7-9.9,8.7s3.7,7.4,11.2,9.9c9.9,3.7,16.1,8.7,16.1,18.6c0,11.2-8.7,18.6-22.3,18.6c-6.2,0-12.4-1.2-17.3-3.7
		L1290.1,1259.7z"/>
	<path class="st4" d="M1344.6,1211.4l12.4,35.9c1.2,3.7,2.5,8.7,3.7,12.4l0,0c1.2-3.7,2.5-8.7,3.7-12.4l12.4-35.9h11.2l-16.1,43.4
		c-7.4,21.1-13.6,31-21.1,37.2c-5,5-11.2,6.2-13.6,7.4l-2.5-8.7c2.5-1.2,6.2-2.5,9.9-5c2.5-2.5,6.2-6.2,8.7-12.4
		c0-1.2,1.2-2.5,1.2-2.5s0-1.2-1.2-2.5l-22.3-55.8h13.6V1211.4z"/>
	<path class="st4" d="M1440,1269.6c-2.5,1.2-8.7,3.7-17.3,3.7c-18.6,0-29.7-12.4-29.7-31c0-18.6,12.4-32.2,32.2-32.2
		c6.2,0,12.4,1.2,14.9,3.7l-2.5,8.7c-2.5-1.2-6.2-2.5-12.4-2.5c-13.6,0-21.1,9.9-21.1,22.3c0,13.6,8.7,22.3,21.1,22.3
		c6.2,0,9.9-1.2,13.6-2.5L1440,1269.6z"/>
	<path class="st4" d="M1452.4,1182.9h11.2v37.2l0,0c1.2-3.7,5-6.2,7.4-7.4c3.7-2.5,7.4-2.5,11.2-2.5c8.7,0,21.1,5,21.1,26v35.9H1492
		v-34.7c0-9.9-3.7-17.3-13.6-17.3c-7.4,0-12.4,5-14.9,11.2c0,1.2-1.2,3.7-1.2,5v35.9h-11.2v-89.2H1452.4z"/>
	<path class="st4" d="M1576.3,1241.1c0,22.3-14.9,32.2-29.7,32.2c-16.1,0-28.5-12.4-28.5-31c0-19.8,13.6-32.2,29.7-32.2
		C1563.9,1210.1,1576.3,1222.5,1576.3,1241.1 M1528,1241.1c0,13.6,7.4,23.5,18.6,23.5c9.9,0,18.6-9.9,18.6-23.5
		c0-9.9-5-23.5-17.3-23.5C1534.2,1217.6,1528,1230,1528,1241.1"/>
	<rect x="1589.9" y="1182.9" class="st4" width="11.2" height="88"/>
	<path class="st4" d="M1672.9,1241.1c0,22.3-14.9,32.2-29.7,32.2c-16.1,0-28.5-12.4-28.5-31c0-19.8,13.6-32.2,29.7-32.2
		C1661.8,1210.1,1672.9,1222.5,1672.9,1241.1 M1625.9,1241.1c0,13.6,7.4,23.5,18.6,23.5c9.9,0,18.6-9.9,18.6-23.5
		c0-9.9-5-23.5-17.3-23.5C1630.8,1217.6,1625.9,1230,1625.9,1241.1"/>
	<path class="st4" d="M1738.6,1262.2c0,13.6-2.5,22.3-8.7,27.3c-6.2,5-14.9,7.4-22.3,7.4c-7.4,0-14.9-1.2-19.8-5l2.5-8.7
		c3.7,2.5,9.9,5,17.3,5c11.2,0,19.8-6.2,19.8-21.1v-6.2l0,0c-3.7,6.2-9.9,9.9-18.6,9.9c-14.9,0-26-12.4-26-29.7
		c0-19.8,13.6-32.2,27.3-32.2c9.9,0,16.1,5,18.6,9.9l0,0v-8.7h9.9c0,3.7,0,8.7,0,16.1L1738.6,1262.2L1738.6,1262.2z M1727.5,1234.9
		c0-2.5,0-3.7-1.2-5c-2.5-6.2-7.4-11.2-14.9-11.2c-9.9,0-17.3,8.7-17.3,22.3c0,12.4,6.2,21.1,17.3,21.1c6.2,0,12.4-3.7,14.9-11.2
		c1.2-2.5,1.2-3.7,1.2-6.2V1234.9z"/>
	<path class="st4" d="M1767.1,1194c0,3.7-2.5,6.2-7.4,6.2c-3.7,0-6.2-2.5-6.2-6.2s2.5-7.4,6.2-7.4
		C1764.6,1187.8,1767.1,1190.3,1767.1,1194 M1756,1211.4h11.2v60.7H1756V1211.4z"/>
	<path class="st4" d="M1826.6,1269.6c-2.5,1.2-8.7,3.7-17.3,3.7c-18.6,0-29.7-12.4-29.7-31c0-18.6,12.4-32.2,32.2-32.2
		c6.2,0,12.4,1.2,14.9,3.7l-2.5,8.7c-2.5-1.2-6.2-2.5-12.4-2.5c-13.6,0-21.1,9.9-21.1,22.3c0,13.6,8.7,22.3,21.1,22.3
		c6.2,0,9.9-1.2,13.6-2.5L1826.6,1269.6z"/>
	<path class="st4" d="M1832.8,1264.7l27.3-35.9c2.5-3.7,5-6.2,7.4-9.9l0,0h-32.2v-8.7h45.8v7.4l-27.3,34.7c-2.5,3.7-5,6.2-7.4,9.9
		l0,0h34.7v8.7h-48.3V1264.7z"/>
	<path class="st4" d="M1893.5,1227.5c0-6.2,0-11.2,0-16.1h9.9l1.2,9.9l0,0c2.5-6.2,9.9-11.2,19.8-11.2c8.7,0,21.1,5,21.1,26v35.9
		h-12.4v-34.7c0-9.9-3.7-17.3-13.6-17.3c-7.4,0-12.4,5-14.9,11.2c0,1.2-1.2,3.7-1.2,5v35.9h-11.2v-44.6H1893.5z"/>
	<path class="st4" d="M2016.2,1241.1c0,22.3-14.9,32.2-29.7,32.2c-16.1,0-28.5-12.4-28.5-31c0-19.8,13.6-32.2,29.7-32.2
		C2003.8,1210.1,2016.2,1222.5,2016.2,1241.1 M1969.1,1241.1c0,13.6,7.4,23.5,18.6,23.5c9.9,0,18.6-9.9,18.6-23.5
		c0-9.9-5-23.5-17.3-23.5C1974,1217.6,1969.1,1230,1969.1,1241.1"/>
	<rect x="2026.1" y="1233.7" class="st4" width="31" height="7.4"/>
	<path class="st4" d="M2070.7,1187.8c5-1.2,12.4-1.2,21.1-1.2c11.2,0,18.6,2.5,23.5,7.4c5,3.7,7.4,9.9,7.4,17.3s-2.5,13.6-6.2,17.3
		c-6.2,6.2-14.9,8.7-26,8.7c-3.7,0-6.2,0-8.7-1.2v33.5h-11.2V1187.8z M2080.6,1228.7c2.5,0,5,1.2,8.7,1.2c12.4,0,21.1-6.2,21.1-17.3
		s-7.4-16.1-19.8-16.1c-5,0-8.7,0-9.9,1.2L2080.6,1228.7L2080.6,1228.7z"/>
	<path class="st4" d="M2131.4,1259.7c3.7,2.5,8.7,3.7,14.9,3.7c7.4,0,11.2-3.7,11.2-8.7s-2.5-7.4-11.2-11.2
		c-11.2-3.7-16.1-9.9-16.1-17.3c0-9.9,7.4-17.3,21.1-17.3c6.2,0,11.2,1.2,14.9,3.7l-2.5,7.4c-2.5-1.2-6.2-3.7-12.4-3.7
		s-9.9,3.7-9.9,8.7s3.7,7.4,11.2,9.9c9.9,3.7,16.1,8.7,16.1,18.6c0,11.2-8.7,18.6-22.3,18.6c-6.2,0-12.4-1.2-17.3-3.7L2131.4,1259.7
		z"/>
	<path class="st4" d="M2185.9,1211.4l12.4,35.9c1.2,3.7,2.5,8.7,3.7,12.4l0,0c1.2-3.7,2.5-8.7,3.7-12.4l12.4-35.9h11.2l-16.1,43.4
		c-7.4,21.1-13.6,31-21.1,37.2c-5,5-11.2,6.2-13.6,7.4l-2.5-8.7c2.5-1.2,6.2-2.5,9.9-5c2.5-2.5,6.2-6.2,8.7-12.4
		c0-1.2,1.2-2.5,1.2-2.5s0-1.2-1.2-2.5l-22.3-55.8h13.6V1211.4z"/>
	<path class="st4" d="M2281.3,1269.6c-2.5,1.2-8.7,3.7-17.3,3.7c-18.6,0-29.7-12.4-29.7-31c0-18.6,12.4-32.2,32.2-32.2
		c6.2,0,12.4,1.2,14.9,3.7l-2.5,8.7c-2.5-1.2-6.2-2.5-12.4-2.5c-13.6,0-21.1,9.9-21.1,22.3c0,13.6,8.7,22.3,21.1,22.3
		c6.2,0,9.9-1.2,13.6-2.5L2281.3,1269.6z"/>
	<path class="st4" d="M2295,1182.9h11.2v37.2l0,0c1.2-3.7,5-6.2,7.4-7.4c3.7-2.5,7.4-2.5,11.2-2.5c7.4,0,21.1,5,21.1,26v35.9h-11.2
		v-34.7c0-9.9-3.7-17.3-13.6-17.3c-7.4,0-12.4,5-14.9,11.2c0,1.2-1.2,3.7-1.2,5v35.9h-11.2v-89.2H2295z"/>
	<path class="st4" d="M2375.5,1194c0,3.7-2.5,6.2-7.4,6.2c-3.7,0-6.2-2.5-6.2-6.2s2.5-7.4,6.2-7.4
		C2373,1187.8,2375.5,1190.3,2375.5,1194 M2363.1,1211.4h11.2v60.7h-11.2V1211.4z"/>
	<path class="st4" d="M2435,1257.2c0,5,0,9.9,1.2,14.9h-9.9l-1.2-7.4l0,0c-3.7,5-9.9,8.7-18.6,8.7c-12.4,0-18.6-8.7-18.6-17.3
		c0-14.9,12.4-22.3,35.9-22.3v-1.2c0-5-1.2-13.6-13.6-13.6c-6.2,0-11.2,1.2-16.1,5l-2.5-7.4c5-3.7,12.4-5,19.8-5
		c18.6,0,22.3,12.4,22.3,24.8v21.1H2435z M2423.8,1241.1c-12.4,0-24.8,2.5-24.8,13.6c0,7.4,5,9.9,9.9,9.9c7.4,0,13.6-5,14.9-9.9
		c0-1.2,0-2.5,0-3.7V1241.1z"/>
	<path class="st4" d="M2464.7,1196.5v14.9h16.1v8.7h-16.1v32.2c0,7.4,2.5,11.2,8.7,11.2c2.5,0,5,0,6.2-1.2v8.7
		c-2.5,1.2-5,1.2-9.9,1.2c-5,0-8.7-1.2-11.2-5c-2.5-3.7-3.7-8.7-3.7-16.1v-33.5h-9.9v-8.7h9.9v-11.2L2464.7,1196.5z"/>
	<path class="st4" d="M2493.2,1230c0-7.4,0-13.6,0-18.6h9.9v12.4l0,0c2.5-8.7,9.9-13.6,16.1-13.6c1.2,0,2.5,0,2.5,0v9.9
		c-1.2,0-2.5,0-3.7,0c-7.4,0-13.6,6.2-14.9,13.6c0,1.2,0,3.7,0,5v32.2H2492V1230H2493.2z"/>
	<path class="st4" d="M2540.3,1211.4l12.4,35.9c1.2,3.7,2.5,8.7,3.7,12.4l0,0c1.2-3.7,2.5-8.7,3.7-12.4l12.4-35.9h11.2l-16.1,43.4
		c-7.4,21.1-13.6,31-21.1,37.2c-5,5-11.2,6.2-13.6,7.4l-2.5-8.7c2.5-1.2,6.2-2.5,9.9-5c2.5-2.5,6.2-6.2,8.7-12.4
		c0-1.2,1.2-2.5,1.2-2.5s0-1.2-1.2-2.5l-22.3-55.8h13.6V1211.4z"/>
	<path class="st4" d="M2635.7,1269.6c-2.5,1.2-8.7,3.7-17.3,3.7c-18.6,0-29.7-12.4-29.7-31c0-18.6,12.4-32.2,32.2-32.2
		c6.2,0,12.4,1.2,14.9,3.7l-2.5,8.7c-2.5-1.2-6.2-2.5-12.4-2.5c-13.6,0-21.1,9.9-21.1,22.3c0,13.6,8.7,22.3,21.1,22.3
		c6.2,0,9.9-1.2,13.6-2.5L2635.7,1269.6z"/>
	<path class="st4" d="M2641.9,1264.7l27.3-35.9c2.5-3.7,5-6.2,7.4-9.9l0,0h-32.2v-8.7h45.8v7.4l-27.3,34.7c-2.5,3.7-5,6.2-7.4,9.9
		l0,0h34.7v8.7h-48.3V1264.7z"/>
	<path class="st4" d="M2701.4,1227.5c0-6.2,0-11.2,0-16.1h9.9l1.2,9.9l0,0c2.5-6.2,9.9-11.2,19.8-11.2c8.7,0,21.1,5,21.1,26v35.9
		h-11.2v-34.7c0-9.9-3.7-17.3-13.6-17.3c-7.4,0-12.4,5-14.9,11.2c0,1.2-1.2,3.7-1.2,5v35.9h-11.2V1227.5z"/>
	<path class="st4" d="M2773.3,1211.4l12.4,35.9c1.2,3.7,2.5,8.7,3.7,12.4l0,0c1.2-3.7,2.5-8.7,3.7-12.4l12.4-35.9h11.2l-16.1,43.4
		c-7.4,21.1-13.6,31-21.1,37.2c-5,5-11.2,6.2-13.6,7.4l-2.5-8.7c2.5-1.2,6.2-2.5,9.9-5c2.5-2.5,6.2-6.2,8.7-12.4
		c0-1.2,1.2-2.5,1.2-2.5s0-1.2-1.2-2.5l-22.3-55.8h13.6V1211.4z"/>
	<path class="st4" d="M2868.7,1269.6c-2.5,1.2-8.7,3.7-17.3,3.7c-18.6,0-29.7-12.4-29.7-31c0-18.6,12.4-32.2,32.2-32.2
		c6.2,0,12.4,1.2,14.9,3.7l-2.5,8.7c-2.5-1.2-6.2-2.5-12.4-2.5c-13.6,0-21.1,9.9-21.1,22.3c0,13.6,8.7,22.3,21.1,22.3
		c6.2,0,9.9-1.2,13.6-2.5L2868.7,1269.6z"/>
	<path class="st4" d="M2882.3,1182.9h11.2v37.2l0,0c1.2-3.7,5-6.2,7.4-7.4c3.7-2.5,7.4-2.5,11.2-2.5c8.7,0,21.1,5,21.1,26v35.9H2922
		v-34.7c0-9.9-3.7-17.3-13.6-17.3c-7.4,0-12.4,5-14.9,11.2c0,1.2-1.2,3.7-1.2,5v35.9h-11.2v-89.2H2882.3z"/>
</g>
</svg>
