<?xml version="1.0" encoding="iso-8859-1"?>
<!-- Generator: Adobe Illustrator 22.1.0, SVG Export Plug-In . SVG Version: 6.00 Build 0)  -->
<svg version="1.1" id="Capa_1" xmlns="http://www.w3.org/2000/svg" xmlns:xlink="http://www.w3.org/1999/xlink" x="0px" y="0px"
	 viewBox="17.06 141 379.882 511.999" style="enable-background:new 17.06 141 379.882 511.999;" xml:space="preserve">
<path d="M270.048,425.41c0.499,3.772,3.721,6.518,7.426,6.518c0.328,0,0.659-0.021,0.993-0.065c4.106-0.543,6.995-4.313,6.452-8.42
	l-4.431-33.514c-0.543-4.106-4.325-6.995-8.419-6.452l-33.514,4.43c-4.106,0.543-6.996,4.312-6.453,8.419
	c0.543,4.107,4.325,6.991,8.419,6.453l15.564-2.057L172.96,509.173c-3.933-1.806-8.301-2.821-12.905-2.821
	c-17.116,0-31.042,13.926-31.042,31.042c0,17.116,13.926,31.041,31.042,31.041s31.041-13.925,31.041-31.041
	c0-7.09-2.395-13.629-6.41-18.861l83.304-108.686L270.048,425.41z M160.057,553.433c-8.846,0-16.041-7.195-16.041-16.04
	c0-8.846,7.195-16.041,16.041-16.041c8.845,0,16.04,7.195,16.04,16.041C176.097,546.238,168.901,553.433,160.057,553.433z"/>
<path d="M282.789,511.839c-2.93-2.928-7.678-2.928-10.608,0l-14.945,14.945l-14.945-14.945c-2.93-2.928-7.678-2.928-10.608,0
	c-2.929,2.93-2.929,7.678,0,10.608l14.945,14.945l-14.945,14.945c-2.929,2.93-2.929,7.678,0,10.608
	c2.931,2.929,7.678,2.928,10.608,0L257.237,548l14.945,14.945c2.931,2.929,7.678,2.928,10.608,0c2.929-2.93,2.929-7.678,0-10.608
	l-14.945-14.945l14.945-14.945C285.717,519.518,285.717,514.77,282.789,511.839z"/>
<path d="M134.503,436.714c1.465,1.464,3.385,2.196,5.304,2.196c1.919,0,3.839-0.732,5.304-2.196l14.945-14.945l14.945,14.945
	c1.465,1.464,3.385,2.196,5.304,2.196s3.839-0.732,5.304-2.196c2.929-2.93,2.929-7.678,0-10.608l-14.945-14.945l14.945-14.945
	c2.929-2.93,2.929-7.678,0-10.608c-2.93-2.928-7.678-2.928-10.608,0l-14.945,14.945l-14.946-14.945
	c-2.93-2.928-7.678-2.928-10.608,0c-2.929,2.93-2.929,7.678,0,10.608l14.945,14.945l-14.945,14.945
	C131.574,429.036,131.574,433.785,134.503,436.714z"/>
<path d="M145.073,325.409h123.855c4.143,0,7.5-3.357,7.5-7.5c0-4.143-3.357-7.5-7.5-7.5H145.073c-4.143,0-7.5,3.357-7.5,7.5
	C137.572,322.052,140.93,325.409,145.073,325.409z"/>
<path d="M145.073,354.56h123.855c4.143,0,7.5-3.357,7.5-7.5s-3.357-7.5-7.5-7.5H145.073c-4.143,0-7.5,3.357-7.5,7.5
	S140.93,354.56,145.073,354.56z"/>
<path d="M389.441,414.907c4.143,0,7.5-3.357,7.5-7.5V231.473c0-19.111-15.549-34.66-34.66-34.66h-63.535v-4.546
	c0-10.753-8.749-19.501-19.501-19.501h-40.846v-12.195c0-10.792-8.78-19.571-19.571-19.571h-23.653
	c-10.792,0-19.571,8.78-19.571,19.571v12.194h-40.846c-10.753,0-19.501,8.749-19.501,19.501v4.546H51.719
	c-19.111,0-34.659,15.549-34.659,34.66v386.866c0,19.111,15.548,34.66,34.659,34.66h310.563c19.111,0,34.66-15.549,34.66-34.66
	V442.408c0-4.143-3.357-7.5-7.5-7.5s-7.5,3.357-7.5,7.5V618.34c0,10.841-8.819,19.659-19.659,19.659H51.718
	c-10.84,0-19.658-8.819-19.658-19.659V231.473c0-10.841,8.819-19.659,19.658-19.659h63.536v4.177v0.07
	c0,10.753,8.749,19.501,19.501,19.501h0.07h2.746v13.361H70.117c-7.006,0-12.707,5.7-12.707,12.707V599.74
	c0,7.006,5.7,12.707,12.707,12.707H189.62c4.143,0,7.5-3.357,7.5-7.5s-3.357-7.5-7.5-7.5H72.411V263.924h65.16v11.814
	c0,9.125,7.423,16.549,16.549,16.549h105.758c9.126,0,16.549-7.424,16.549-16.549v-11.814h65.16v333.521H224.623
	c-4.143,0-7.5,3.357-7.5,7.5s3.357,7.5,7.5,7.5h119.259c7.006,0,12.707-5.7,12.707-12.707V261.63c0-7.006-5.7-12.707-12.707-12.707
	h-67.454v-13.361h2.746h0.07c10.753,0,19.501-8.749,19.501-19.501v-0.07v-4.177h63.535c10.841,0,19.659,8.819,19.659,19.659v175.933
	C381.94,411.548,385.297,414.907,389.441,414.907z M190.603,160.571c0-2.478,2.093-4.57,4.57-4.57h23.653
	c2.478,0,4.57,2.093,4.57,4.57v12.194h-32.795L190.603,160.571L190.603,160.571z M261.427,275.737c0,0.854-0.694,1.548-1.548,1.548
	H154.12c-0.854,0-1.548-0.694-1.548-1.548v-11.814h108.855V275.737z M261.427,248.924H152.573v-13.361h108.855v13.361H261.427z
	 M134.825,220.562c-2.478,0-4.57-2.093-4.57-4.57c0-8.444,0-14.858,0-23.724c0-2.439,2.061-4.5,4.5-4.5c6.394,0,138.156,0,144.489,0
	c2.439,0,4.5,2.061,4.5,4.5c0,8.861,0,15.287,0,23.724c0,2.478-2.093,4.57-4.57,4.57
	C276.052,220.562,139.399,220.562,134.825,220.562z"/>
</svg>
