<?xml version="1.0" encoding="iso-8859-1"?>
<!-- Generator: Adobe Illustrator 22.1.0, SVG Export Plug-In . SVG Version: 6.00 Build 0)  -->
<svg version="1.1" id="Capa_1" xmlns="http://www.w3.org/2000/svg" xmlns:xlink="http://www.w3.org/1999/xlink" x="0px" y="0px"
	 viewBox="-49 141 512 512" style="enable-background:new -49 141 512 512;" xml:space="preserve">
<ellipse cx="240.676" cy="326.65" rx="7.518" ry="7.518"/>
<ellipse cx="259.005" cy="344.987" rx="7.518" ry="7.518"/>
<ellipse cx="277.345" cy="363.32" rx="7.518" ry="7.518"/>
<ellipse cx="214.666" cy="352.664" rx="7.518" ry="7.518"/>
<ellipse cx="233.005" cy="370.987" rx="7.518" ry="7.518"/>
<ellipse cx="251.335" cy="389.334" rx="7.518" ry="7.518"/>
<ellipse cx="188.673" cy="378.67" rx="7.518" ry="7.518"/>
<ellipse cx="206.995" cy="397" rx="7.518" ry="7.518"/>
<ellipse cx="225.327" cy="415.33" rx="7.518" ry="7.518"/>
<ellipse cx="162.656" cy="404.666" rx="7.518" ry="7.518"/>
<ellipse cx="180.985" cy="423.013" rx="7.518" ry="7.518"/>
<ellipse cx="199.325" cy="441.336" rx="7.518" ry="7.518"/>
<ellipse cx="136.646" cy="430.68" rx="7.518" ry="7.518"/>
<ellipse cx="154.985" cy="449.013" rx="7.518" ry="7.518"/>
<ellipse cx="173.315" cy="467.35" rx="7.518" ry="7.518"/>
<path d="M463,258.858c0-18.997-7.398-36.857-20.83-50.289l-46.738-46.738C381.999,148.398,364.139,141,345.142,141
	s-36.857,7.398-50.29,20.831L-28.169,484.852C-41.602,498.285-49,516.145-49,535.142c0,18.997,7.398,36.857,20.83,50.289
	l46.738,46.738C32.002,645.602,49.861,653,68.858,653c18.998,0,36.858-7.398,50.29-20.831l323.021-323.021
	C455.602,295.716,463,277.856,463,258.858z M108.51,621.532c-10.59,10.591-24.673,16.424-39.652,16.424
	c-14.978,0-29.06-5.833-39.651-16.424l-46.739-46.738c-10.591-10.591-16.424-24.673-16.424-39.652
	c0-14.978,5.832-29.06,16.425-39.652L305.49,172.468c10.591-10.591,24.674-16.424,39.652-16.424s29.06,5.833,39.651,16.424
	l46.739,46.738c10.591,10.591,16.424,24.674,16.424,39.652c0,14.979-5.832,29.061-16.425,39.652L108.51,621.532z"/>
<path d="M262.219,282.108c-4.392-4.391-10.23-6.809-16.44-6.809c-6.211,0-12.049,2.419-16.441,6.81L92.107,419.339
	c-4.391,4.391-6.809,10.23-6.809,16.44s2.418,12.048,6.809,16.44l59.673,59.673c4.392,4.391,10.23,6.81,16.441,6.81
	s12.049-2.419,16.441-6.81l137.229-137.23c4.392-4.391,6.811-10.23,6.811-16.441c0-6.21-2.419-12.049-6.81-16.44L262.219,282.108z
	 M311.254,364.024l-137.23,137.23c-1.549,1.55-3.61,2.404-5.802,2.404s-4.253-0.854-5.802-2.404l-59.673-59.673
	c-3.2-3.199-3.2-8.405,0-11.605l137.231-137.23c1.549-1.55,3.61-2.404,5.802-2.404s4.253,0.854,5.802,2.404l59.673,59.673
	c1.549,1.55,2.404,3.611,2.404,5.802C313.658,360.413,312.804,362.474,311.254,364.024z"/>
<path d="M40.228,377.545c1.469,1.469,3.394,2.203,5.319,2.203s3.85-0.735,5.319-2.203c2.937-2.937,2.937-7.7,0-10.638
	l-68.397-68.397c-10.592-10.591-16.425-24.674-16.425-39.652c0-14.978,5.832-29.06,16.425-39.652l46.738-46.738
	c10.591-10.591,24.674-16.424,39.652-16.424s29.06,5.833,39.651,16.424l67.394,67.395c2.937,2.938,7.699,2.938,10.639,0
	c2.937-2.937,2.937-7.7,0-10.638l-67.394-67.395C105.716,148.398,87.856,141,68.859,141s-36.857,7.398-50.29,20.831l-46.738,46.738
	C-41.602,222.002-49,239.862-49,258.858s7.398,36.857,20.83,50.289L40.228,377.545z"/>
<path d="M373.757,416.439c-2.938-2.937-7.7-2.937-10.639,0c-2.937,2.937-2.937,7.7,0,10.638l68.414,68.413
	c21.864,21.864,21.864,57.44,0,79.304l-46.738,46.738c-21.864,21.864-57.44,21.864-79.304,0l-69.416-69.416
	c-2.937-2.938-7.699-2.938-10.638,0c-2.937,2.937-2.937,7.7,0,10.638l69.416,69.416c13.866,13.865,32.078,20.797,50.29,20.797
	s36.425-6.932,50.29-20.797l46.738-46.738c27.728-27.73,27.728-72.849,0-100.579L373.757,416.439z"/>
</svg>
