<?xml version="1.0" encoding="utf-8"?>
<!-- Generator: Adobe Illustrator 22.1.0, SVG Export Plug-In . SVG Version: 6.00 Build 0)  -->
<svg version="1.1" id="Warstwa_1" xmlns="http://www.w3.org/2000/svg" xmlns:xlink="http://www.w3.org/1999/xlink" x="0px" y="0px"
	 viewBox="422 423.1 8.5 9.1" style="enable-background:new 422 423.1 8.5 9.1;" xml:space="preserve">
<style type="text/css">
	.st0{fill-rule:evenodd;clip-rule:evenodd;}
</style>
<path class="st0" d="M430.2,428.2c-1,1.3-2,2.5-3,3.8c-0.7,0.8-1.8-0.3-1.2-1.2c0.8-1.1,1.7-2.1,2.5-3.2c-0.8-1-1.7-2-2.5-3
	c-0.7-0.8,0.5-2,1.2-1.2c1,1.2,2,2.4,3,3.6C430.5,427.4,430.5,427.8,430.2,428.2z M426.3,428.2c-1,1.3-2,2.5-3,3.8
	c-0.7,0.8-1.8-0.3-1.2-1.2c0.8-1.1,1.7-2.1,2.5-3.2c-0.8-1-1.7-2-2.5-3c-0.7-0.8,0.5-2,1.2-1.2c1,1.2,2,2.4,3,3.6
	C426.7,427.4,426.6,427.8,426.3,428.2z"/>
</svg>
