<?xml version="1.0" encoding="iso-8859-1"?>
<!-- Generator: Adobe Illustrator 22.1.0, SVG Export Plug-In . SVG Version: 6.00 Build 0)  -->
<svg version="1.1" id="Capa_1" xmlns="http://www.w3.org/2000/svg" xmlns:xlink="http://www.w3.org/1999/xlink" x="0px" y="0px"
	 viewBox="-14.498 141 442.996 512" style="enable-background:new -14.498 141 442.996 512;" xml:space="preserve">
<path d="M207.617,324.683c18.536,0,33.618-15.081,33.618-33.618c0-18.537-15.081-33.619-33.618-33.619
	c-18.537,0-33.619,15.081-33.619,33.619C173.998,309.602,189.08,324.683,207.617,324.683z M207.617,272.447
	c10.266,0,18.616,8.353,18.616,18.617s-8.352,18.616-18.616,18.616S189,301.33,189,291.065S197.351,272.447,207.617,272.447z"/>
<path d="M171.178,474.201c-4.143,0-7.501,3.357-7.501,7.501v37.455c0,4.143,3.357,7.501,7.501,7.501
	c4.143,0,7.501-3.357,7.501-7.501v-37.455C178.679,477.558,175.322,474.201,171.178,474.201z"/>
<path d="M207.617,474.201c-4.143,0-7.501,3.357-7.501,7.501v37.455c0,4.143,3.357,7.501,7.501,7.501s7.501-3.357,7.501-7.501
	v-37.455C215.118,477.558,211.76,474.201,207.617,474.201z"/>
<path d="M244.055,474.201c-4.143,0-7.501,3.357-7.501,7.501v37.455c0,4.143,3.357,7.501,7.501,7.501s7.501-3.357,7.501-7.501
	v-37.455C251.556,477.558,248.197,474.201,244.055,474.201z"/>
<path d="M408.996,580.853h-15.001c0.494-1.761,0.777-3.61,0.777-5.527V458.431c0-4.143-3.357-7.501-7.501-7.501
	c-4.143,0-7.501,3.357-7.501,7.501v116.895c0,3.048-2.479,5.527-5.526,5.527c-13.324,0-327.227,0-334.489,0
	c-3.047,0-5.526-2.479-5.526-5.527V298.334c0-3.048,2.479-5.527,5.526-5.527h108.264v23.746h-39.193H68.224
	c-0.37,0-0.735,0.019-1.095,0.055c-5.401,0.55-9.631,5.125-9.631,10.67v38.29v181.7c0,5.914,4.812,10.727,10.726,10.727h277.551
	c5.913,0,10.726-4.812,10.726-10.727V365.569v-38.29c0-5.544-4.229-10.12-9.631-10.67c-0.36-0.037-0.725-0.055-1.095-0.055h-78.562
	v-23.746h107.03c3.047,0,5.526,2.479,5.526,5.527v125.094c0,4.143,3.357,7.501,7.501,7.501c4.143,0,7.501-3.357,7.501-7.501V298.334
	c0-11.319-9.209-20.529-20.528-20.529H267.214v-38.89c0-1.296-0.37-2.598-0.923-3.605l-48.278-88.16
	c-4.49-8.201-16.301-8.201-20.792,0l-48.278,88.16c-0.57,1.037-0.923,2.343-0.923,3.605v38.89H39.755
	c-11.319,0-20.528,9.21-20.528,20.529v276.992c0,1.917,0.284,3.766,0.777,5.527H5.003c-10.753,0-19.502,8.749-19.502,19.501v33.144
	C-14.498,644.251-5.75,653,5.003,653h184.494c4.143,0,7.501-3.357,7.501-7.501c0-4.143-3.357-7.501-7.501-7.501H5.003
	c-2.439,0-4.5-2.061-4.5-4.5v-33.144c0-2.439,2.061-4.5,4.5-4.5c5.372,0,119.017,0,123.429,0v8.044
	c0,11.319,9.21,20.529,20.529,20.529h116.077c11.319,0,20.529-9.21,20.529-20.529v-8.044c4.512,0,118.336,0,123.429,0
	c2.439,0,4.5,2.061,4.5,4.5v33.144c0,2.439-2.061,4.5-4.5,4.5H224.501c-4.143,0-7.501,3.357-7.501,7.501
	c0,4.143,3.357,7.501,7.501,7.501h184.494c10.753,0,19.501-8.749,19.501-19.502v-33.144
	C428.497,589.602,419.749,580.853,408.996,580.853z M241.275,442.93c0,0.256-0.242,0.498-0.498,0.498h-25.659v-17.326h26.157V442.93
	z M174.456,443.428c-0.256,0-0.498-0.242-0.498-0.498v-16.828h26.158v17.326L174.456,443.428L174.456,443.428z M118.931,358.068
	h-2.604v-26.514h23.133C132.467,339.832,126.056,346.923,118.931,358.068z M136.136,359.433c4.078-5.667,6.926-8.896,11.884-14.766
	c0,6.18,0,56.382,0,62.625l-39.67,33.298C109.384,411.5,119.045,383.17,136.136,359.433z M267.214,344.668l4.862,5.756
	c20.704,24.504,33.598,56.166,34.808,90.165l-39.67-33.298C267.214,401.054,267.214,350.845,267.214,344.668z M252.213,411.1
	c-13.44,0-21.526,0-37.095,0v-68.609c0-4.143-3.357-7.501-7.501-7.501s-7.501,3.357-7.501,7.501V411.1c-15.546,0-23.676,0-37.096,0
	c0-9.334,0-161.297,0-164.684h89.192C252.213,263.75,252.213,392.112,252.213,411.1z M72.5,331.554h28.825v26.514H72.5V331.554z
	 M72.5,542.993V373.069h36.326h1.603c-11.204,22.449-17.174,47.36-17.174,72.753c0,10.615,12.411,16.604,20.697,9.65l38.382-32.216
	c1.933,1.624,4.309,2.574,6.623,2.789v16.884c0,8.547,6.953,15.499,15.499,15.499h25.667c0.072,4.08,3.396,7.367,7.494,7.367
	s7.422-3.286,7.494-7.367h25.666h0.001c8.546,0,15.498-6.954,15.498-15.499V426c2.405-0.305,4.704-1.351,6.488-2.857l38.517,32.329
	c8.284,6.95,20.697,0.964,20.697-9.65c0-25.394-5.969-50.305-17.173-72.753h36.696v169.924L72.5,542.993L72.5,542.993z
	 M341.5,358.068h-45.198c-7.112-11.124-13.52-18.215-20.53-26.514h65.726L341.5,358.068L341.5,358.068z M207.616,159.398
	l39.438,72.017H168.18L207.616,159.398z M270.566,603.898c0,3.048-2.479,5.527-5.527,5.527H148.961
	c-3.048,0-5.527-2.479-5.527-5.527v-8.044h127.133v8.044H270.566z"/>
</svg>
