<?xml version="1.0" encoding="utf-8"?>
<!-- Generator: Adobe Illustrator 22.1.0, SVG Export Plug-In . SVG Version: 6.00 Build 0)  -->
<svg version="1.1" id="Warstwa_1" xmlns="http://www.w3.org/2000/svg" xmlns:xlink="http://www.w3.org/1999/xlink" x="0px" y="0px"
	 viewBox="-385 43 850.4 850.4" style="enable-background:new -385 43 850.4 850.4;" xml:space="preserve">
<path d="M434.5,83.9L261.8,44c-18.8-4.3-38,5.5-45.7,23.1l-79.7,186c-7,16.3-2.3,35.4,11.5,46.5L248.5,382
	C188.7,509.4,84.2,615.4-45.8,676.3l-82.4-100.7c-11.3-13.8-30.2-18.4-46.5-11.5l-186,79.7c-17.8,7.8-27.6,27.1-23.3,45.8
	l39.9,172.7c4.2,17.9,20.1,30.9,38.9,30.9c425.4,0,770.7-344.6,770.7-770.7C465.4,104.1,452.6,88,434.5,83.9z"/>
</svg>
