<?xml version="1.0" encoding="utf-8"?>
<!-- Generator: Adobe Illustrator 22.1.0, SVG Export Plug-In . SVG Version: 6.00 Build 0)  -->
<svg version="1.1" id="Warstwa_1" xmlns="http://www.w3.org/2000/svg" xmlns:xlink="http://www.w3.org/1999/xlink" x="0px" y="0px"
	 viewBox="0 0 248 43.5" style="enable-background:new 0 0 248 43.5;" xml:space="preserve">
<style type="text/css">
	.st0{fill:#76227D;}
	.st1{fill:#FFFFFF;}
	.st2{fill:none;stroke:#FFFFFF;stroke-width:0.198;stroke-miterlimit:10;}
	.st3{fill:#A8A8A7;}
	.st4{fill:none;stroke:#A8A8A7;stroke-width:0.198;stroke-miterlimit:10;}
</style>
<path class="st0" d="M33.5,43.2c-0.6-4.6-1.2-9.2-0.3-13.9c0.2-1.2,0.7-2.4,1.3-3.6c2.4-4.4,3.5-9.1,2.5-14.2c-0.8-3.9-3.4-7.2-7-9
	c-4.3-2.2-8.9-3-13.8-2.3C11.4,1,7.8,3.6,5.1,7.5c-2.3,3.4-2.7,7.1-1.7,10.9c0.9,3.2-0.4,5.3-2.6,7.2c-1.1,0.9-1.1,1.5,0.1,2.2
	c0.5,0.3,1,0.6,1.5,0.9c0.8,0.6,1.1,1.4,0.7,2.4c-1,2.2-0.7,2.5,1.5,3.2c0.5,0.2,0.9,0.8,1.1,1.3c0.2,0.5,0,1.2,0,1.8
	c-0.1,1.7,0.5,2.2,2.1,2c1.4-0.2,2.8-0.4,4.3-0.5c2.2-0.2,4.8,2.1,5.5,4.2"/>
<path class="st1" d="M31.6,13L31.6,13c0-0.2,0.1-0.4,0.1-0.6c0-0.4,0-0.7-0.1-1.1l0,0l1.8-0.9L32.8,9l-1.9,0.6v0
	c-0.3-0.5-0.7-0.9-1.2-1.2l0,0l0.6-1.9l-1.5-0.6l-0.9,1.7l0,0c-0.2,0-0.4-0.1-0.7-0.1c-0.4,0-0.7,0-1.1,0.1l0,0l-0.9-1.8l-1.5,0.6
	l0.6,1.9h0C24,8.6,23.6,9,23.2,9.5v0l-1.9-0.6l-0.6,1.5l1.7,0.9v0c0,0.2-0.1,0.4-0.1,0.7c0,0.4,0,0.7,0.1,1.1v0l-1.8,0.9l0.6,1.5
	l1.9-0.6c0.3,0.5,0.7,0.9,1.2,1.2l-0.6,1.9l1.5,0.6l0.9-1.7c0.2,0,0.4,0.1,0.6,0.1c0.4,0,0.7,0,1.1-0.1h0l0.9,1.8l1.5-0.6L29.6,16h0
	c0.5-0.3,0.9-0.7,1.2-1.2l0,0l1.9,0.6l0.6-1.5L31.6,13z M24.5,12c0.1-1.4,1.3-2.5,2.7-2.4c1.4,0.1,2.5,1.3,2.4,2.7
	c-0.1,1.4-1.3,2.5-2.7,2.4C25.5,14.6,24.5,13.4,24.5,12"/>
<path class="st2" d="M31.6,13L31.6,13c0-0.2,0.1-0.4,0.1-0.6c0-0.4,0-0.7-0.1-1.1l0,0l1.8-0.9L32.8,9l-1.9,0.6v0
	c-0.3-0.5-0.7-0.9-1.2-1.2l0,0l0.6-1.9l-1.5-0.6l-0.9,1.7l0,0c-0.2,0-0.4-0.1-0.7-0.1c-0.4,0-0.7,0-1.1,0.1l0,0l-0.9-1.8l-1.5,0.6
	l0.6,1.9h0C24,8.6,23.6,9,23.2,9.5v0l-1.9-0.6l-0.6,1.5l1.7,0.9v0c0,0.2-0.1,0.4-0.1,0.7c0,0.4,0,0.7,0.1,1.1v0l-1.8,0.9l0.6,1.5
	l1.9-0.6c0.3,0.5,0.7,0.9,1.2,1.2l-0.6,1.9l1.5,0.6l0.9-1.7c0.2,0,0.4,0.1,0.6,0.1c0.4,0,0.7,0,1.1-0.1h0l0.9,1.8l1.5-0.6L29.6,16h0
	c0.5-0.3,0.9-0.7,1.2-1.2l0,0l1.9,0.6l0.6-1.5L31.6,13z M24.5,12c0.1-1.4,1.3-2.5,2.7-2.4c1.4,0.1,2.5,1.3,2.4,2.7
	c-0.1,1.4-1.3,2.5-2.7,2.4C25.5,14.6,24.5,13.4,24.5,12z"/>
<path class="st1" d="M17.5,13.2c0.1-0.2,0.2-0.3,0.3-0.5c0.1-0.3,0.2-0.6,0.2-0.9v0l1.6-0.2l0-1.3l-1.6-0.1v0
	c-0.1-0.5-0.3-0.9-0.6-1.3l0,0l1-1.3l-1-0.9l-1.2,1.1l0,0c-0.2-0.1-0.3-0.2-0.5-0.3c-0.3-0.1-0.6-0.2-0.9-0.2l0,0l-0.2-1.6l-1.3,0.1
	l-0.1,1.6h0c-0.5,0.1-0.9,0.3-1.3,0.6l0,0l-1.3-1L9.8,8l1.1,1.2l0,0c-0.1,0.2-0.2,0.3-0.3,0.5c-0.1,0.3-0.2,0.6-0.2,0.9l0,0
	l-1.6,0.2l0,1.3l1.6,0.1v0c0.1,0.5,0.3,0.9,0.6,1.3l0,0l-1,1.3l1,0.9l1.2-1.1l0,0c0.2,0.1,0.3,0.2,0.5,0.3c0.3,0.1,0.6,0.2,0.9,0.2
	h0l0.2,1.6l1.3,0l0.1-1.6h0c0.5-0.1,0.9-0.3,1.3-0.6l0,0l1.3,1l0.9-1L17.5,13.2L17.5,13.2z M16.1,12c-0.4,1.1-1.7,1.6-2.7,1.1
	c-1.1-0.5-1.6-1.7-1.1-2.8c0.5-1.1,1.7-1.6,2.7-1.1C16.1,9.7,16.6,11,16.1,12"/>
<path class="st2" d="M17.5,13.2c0.1-0.2,0.2-0.3,0.3-0.5c0.1-0.3,0.2-0.6,0.2-0.9v0l1.6-0.2l0-1.3l-1.6-0.1v0
	c-0.1-0.5-0.3-0.9-0.6-1.3l0,0l1-1.3l-1-0.9l-1.2,1.1l0,0c-0.2-0.1-0.3-0.2-0.5-0.3c-0.3-0.1-0.6-0.2-0.9-0.2l0,0l-0.2-1.6l-1.3,0.1
	l-0.1,1.6h0c-0.5,0.1-0.9,0.3-1.3,0.6l0,0l-1.3-1L9.8,8l1.1,1.2l0,0c-0.1,0.2-0.2,0.3-0.3,0.5c-0.1,0.3-0.2,0.6-0.2,0.9l0,0
	l-1.6,0.2l0,1.3l1.6,0.1v0c0.1,0.5,0.3,0.9,0.6,1.3l0,0l-1,1.3l1,0.9l1.2-1.1l0,0c0.2,0.1,0.3,0.2,0.5,0.3c0.3,0.1,0.6,0.2,0.9,0.2
	h0l0.2,1.6l1.3,0l0.1-1.6h0c0.5-0.1,0.9-0.3,1.3-0.6l0,0l1.3,1l0.9-1L17.5,13.2L17.5,13.2z M16.1,12c-0.4,1.1-1.7,1.6-2.7,1.1
	c-1.1-0.5-1.6-1.7-1.1-2.8c0.5-1.1,1.7-1.6,2.7-1.1C16.1,9.7,16.6,11,16.1,12z"/>
<path class="st3" d="M22.7,23.2c0.1-0.2,0.1-0.4,0.2-0.5c0.1-0.3,0.1-0.6,0.1-0.9l0,0l1.6-0.5l-0.3-1.3l-1.7,0.2
	c-0.2-0.5-0.5-0.9-0.8-1.2l0,0l0.8-1.5l-1.1-0.7l-1,1.3l0,0c-0.2-0.1-0.4-0.1-0.5-0.2c-0.3-0.1-0.6-0.1-0.9-0.1h0l-0.5-1.6l-1.3,0.3
	l0.2,1.7c-0.5,0.2-0.9,0.5-1.2,0.8l0,0l-1.5-0.8l-0.7,1.2l1.3,1l0,0c-0.1,0.2-0.1,0.4-0.2,0.5C15,21.2,15,21.5,15,21.8v0l-1.6,0.5
	l0.3,1.3l1.7-0.2v0c0.2,0.5,0.5,0.9,0.8,1.2l-0.8,1.5l1.1,0.7l1-1.3c0.2,0.1,0.4,0.1,0.5,0.2c0.3,0.1,0.6,0.1,0.9,0.1l0,0l0.5,1.6
	l1.3-0.3l-0.2-1.7c0.4-0.2,0.9-0.5,1.2-0.8v0l1.5,0.8l0.7-1.2L22.7,23.2L22.7,23.2z M21.1,22.3c-0.3,1.2-1.4,1.9-2.6,1.6
	c-1.2-0.3-1.9-1.4-1.6-2.6c0.3-1.2,1.4-1.9,2.6-1.6C20.7,19.9,21.4,21.1,21.1,22.3"/>
<path class="st4" d="M22.7,23.2c0.1-0.2,0.1-0.4,0.2-0.5c0.1-0.3,0.1-0.6,0.1-0.9l0,0l1.6-0.5l-0.3-1.3l-1.7,0.2
	c-0.2-0.5-0.5-0.9-0.8-1.2l0,0l0.8-1.5l-1.1-0.7l-1,1.3l0,0c-0.2-0.1-0.4-0.1-0.5-0.2c-0.3-0.1-0.6-0.1-0.9-0.1h0l-0.5-1.6l-1.3,0.3
	l0.2,1.7c-0.5,0.2-0.9,0.5-1.2,0.8l0,0l-1.5-0.8l-0.7,1.2l1.3,1l0,0c-0.1,0.2-0.1,0.4-0.2,0.5C15,21.2,15,21.5,15,21.8v0l-1.6,0.5
	l0.3,1.3l1.7-0.2v0c0.2,0.5,0.5,0.9,0.8,1.2l-0.8,1.5l1.1,0.7l1-1.3c0.2,0.1,0.4,0.1,0.5,0.2c0.3,0.1,0.6,0.1,0.9,0.1l0,0l0.5,1.6
	l1.3-0.3l-0.2-1.7c0.4-0.2,0.9-0.5,1.2-0.8v0l1.5,0.8l0.7-1.2L22.7,23.2L22.7,23.2z M21.1,22.3c-0.3,1.2-1.4,1.9-2.6,1.6
	c-1.2-0.3-1.9-1.4-1.6-2.6c0.3-1.2,1.4-1.9,2.6-1.6C20.7,19.9,21.4,21.1,21.1,22.3z"/>
<path class="st0" d="M57.5,12.1c-0.4,0.9-1,1.6-1.8,2.1c-0.8,0.5-1.6,0.9-2.7,1.2c-1,0.2-2.2,0.3-3.4,0.3c-0.5,0-1,0-1.6,0
	c-0.6,0-1-0.1-1.5-0.1v8.5c0,0.2,0,0.3-0.1,0.4c-0.1,0.1-0.2,0.2-0.4,0.2h-1.6c-0.2,0-0.3-0.1-0.4-0.2C44,24.4,44,24.2,44,24.1V2.9
	c0-0.4,0.2-0.7,0.7-0.8C45.3,2.1,46.1,2,47,2c0.9,0,1.8-0.1,2.7-0.1c1.2,0,2.4,0.1,3.4,0.3c1,0.2,1.9,0.6,2.7,1.1
	c0.8,0.5,1.3,1.2,1.8,2c0.4,0.8,0.6,1.9,0.6,3.1v0.4C58.2,10.2,58,11.2,57.5,12.1 M55.4,8.5C55.4,7,55,5.9,54,5.2
	c-0.9-0.6-2.4-1-4.3-1c-0.5,0-1,0-1.6,0c-0.6,0-1.1,0.1-1.4,0.1v8.9c0.2,0,0.4,0,0.7,0c0.3,0,0.5,0,0.8,0c0.3,0,0.6,0,0.8,0
	c0.3,0,0.5,0,0.7,0c2.1,0,3.5-0.4,4.4-1.1c0.9-0.7,1.3-1.8,1.3-3.4V8.5z"/>
<path class="st0" d="M72.1,20.5c0,1.5-0.5,2.7-1.6,3.4c-1,0.7-2.4,1-4.1,1c-0.3,0-0.6,0-1,0c-0.4,0-0.8,0-1.2-0.1
	c-0.4,0-0.9-0.1-1.3-0.2c-0.4-0.1-0.8-0.1-1.2-0.2c-0.4-0.1-0.6-0.3-0.6-0.6v-1.1c0-0.1,0-0.3,0.2-0.3c0.1-0.1,0.2-0.1,0.4-0.1h0.1
	c0.4,0,0.8,0.1,1.2,0.1c0.4,0,0.9,0.1,1.3,0.1c0.4,0,0.9,0.1,1.3,0.1c0.4,0,0.7,0,1,0c1,0,1.7-0.2,2.2-0.5c0.5-0.3,0.8-0.9,0.8-1.7
	c0-0.5-0.2-0.9-0.5-1.2c-0.3-0.3-0.9-0.8-1.8-1.3l-3.1-1.8c-0.9-0.6-1.7-1.2-2.2-1.9c-0.6-0.7-0.8-1.5-0.8-2.5c0-0.8,0.1-1.4,0.4-2
	c0.3-0.5,0.7-0.9,1.1-1.2c0.5-0.3,1.1-0.5,1.7-0.7c0.7-0.1,1.4-0.2,2.2-0.2c0.8,0,1.7,0,2.5,0.1C69.8,8,70.5,8,71.2,8.2
	c0.4,0.1,0.6,0.3,0.6,0.6v1c0,0.3-0.2,0.5-0.5,0.5h-0.1c-0.5,0-1.2-0.1-2.1-0.2c-0.9-0.1-1.7-0.1-2.6-0.1s-1.5,0.1-2,0.3
	c-0.5,0.2-0.8,0.7-0.8,1.5c0,0.5,0.2,0.9,0.5,1.2c0.3,0.3,0.9,0.7,1.6,1.1l3,1.8c1.2,0.7,2.1,1.5,2.6,2.2
	C71.8,18.8,72.1,19.6,72.1,20.5"/>
<path class="st0" d="M88.5,8.5c0,0.1,0,0.2,0,0.2l-5,17.5c-0.2,0.8-0.5,1.5-0.8,2.1c-0.3,0.6-0.6,1-1,1.4c-0.4,0.4-0.9,0.6-1.5,0.8
	c-0.6,0.2-1.3,0.2-2.2,0.2c-0.4,0-0.9,0-1.3-0.1c-0.5,0-0.9-0.1-1.2-0.2c-0.2,0-0.3-0.1-0.5-0.2c-0.1-0.1-0.2-0.2-0.2-0.3v-1.1
	c0-0.3,0.2-0.5,0.6-0.5h0.1c0.3,0,0.8,0.1,1.3,0.1c0.6,0,1,0.1,1.3,0.1c0.4,0,0.8,0,1.1-0.1c0.3-0.1,0.6-0.2,0.8-0.4
	c0.2-0.2,0.4-0.5,0.6-0.8c0.2-0.3,0.3-0.8,0.4-1.3l0.3-1.2h-0.4c-0.2,0-0.4,0-0.7-0.1c-0.2,0-0.4-0.1-0.6-0.3
	c-0.2-0.1-0.4-0.4-0.5-0.6c-0.2-0.3-0.3-0.7-0.5-1.1l-4-13.9c0,0,0-0.1,0-0.2C74.8,8.2,75,8,75.3,8H77c0.1,0,0.2,0.1,0.3,0.2
	c0.1,0.1,0.2,0.2,0.2,0.3l3.6,13.2c0.1,0.3,0.2,0.5,0.3,0.6c0.1,0.1,0.2,0.1,0.3,0.1h0.5l3.7-13.9c0-0.1,0.1-0.2,0.2-0.3
	C86.1,8,86.2,8,86.4,8h1.7C88.4,8,88.5,8.2,88.5,8.5"/>
<path class="st0" d="M101.9,24.3c-0.1,0.1-0.2,0.2-0.5,0.2c-0.5,0.1-1.1,0.2-1.7,0.2c-0.7,0.1-1.3,0.1-2,0.1c-1,0-1.9-0.2-2.7-0.5
	c-0.8-0.4-1.5-0.9-2-1.5c-0.6-0.6-1-1.4-1.3-2.3c-0.3-0.9-0.4-1.9-0.4-3v-2.4c0-1.1,0.1-2.1,0.4-3c0.3-0.9,0.7-1.7,1.2-2.3
	c0.5-0.6,1.2-1.1,2-1.5c0.8-0.4,1.7-0.5,2.7-0.5c0.7,0,1.4,0,2,0.1c0.7,0.1,1.2,0.1,1.7,0.2c0.2,0,0.4,0.1,0.5,0.2
	c0.1,0.1,0.1,0.2,0.1,0.5v1.1c0,0.2-0.1,0.3-0.2,0.3c-0.1,0.1-0.2,0.1-0.4,0.1h-0.1c-0.7-0.1-1.3-0.1-1.8-0.2c-0.5,0-1.2,0-1.9,0
	c-1.2,0-2.1,0.4-2.8,1.2c-0.7,0.8-1,2.1-1,3.8v2.4c0,1.7,0.3,3,1,3.8c0.6,0.8,1.6,1.2,2.8,1.2c0.7,0,1.4,0,1.9,0
	c0.5,0,1.1-0.1,1.8-0.2h0.1c0.1,0,0.3,0,0.4,0.1c0.1,0.1,0.2,0.2,0.2,0.3v1.1C102,24.1,102,24.2,101.9,24.3"/>
<path class="st0" d="M118,24.5c-0.1,0.1-0.3,0.2-0.4,0.2h-1.4c-0.2,0-0.3-0.1-0.4-0.2c-0.1-0.1-0.2-0.3-0.2-0.4v-10
	c0-1.5-0.3-2.6-0.9-3.1c-0.6-0.6-1.4-0.8-2.4-0.8c-0.2,0-0.5,0-0.9,0c-0.3,0-0.7,0.1-1.1,0.2c-0.4,0.1-0.8,0.2-1.1,0.3
	c-0.4,0.1-0.7,0.2-1.1,0.4v13.1c0,0.2-0.1,0.3-0.2,0.4c-0.1,0.1-0.3,0.2-0.4,0.2H106c-0.2,0-0.3-0.1-0.4-0.2
	c-0.1-0.1-0.2-0.3-0.2-0.4V2.5c0-0.2,0.1-0.3,0.2-0.4c0.1-0.1,0.2-0.2,0.4-0.2h1.5c0.2,0,0.3,0.1,0.4,0.2c0.1,0.1,0.2,0.3,0.2,0.4
	v6.2c0.7-0.3,1.5-0.6,2.4-0.7c0.9-0.2,1.6-0.2,2.2-0.2c0.8,0,1.5,0.1,2.2,0.4c0.7,0.2,1.2,0.6,1.7,1.1c0.5,0.5,0.9,1.2,1.1,2
	c0.3,0.8,0.4,1.8,0.4,2.9v10C118.1,24.2,118.1,24.4,118,24.5"/>
<path class="st0" d="M134.7,20.5c-0.3,0.9-0.7,1.7-1.3,2.3c-0.6,0.6-1.3,1.1-2.1,1.5c-0.8,0.4-1.8,0.5-2.9,0.5
	c-1.1,0-2.1-0.2-2.9-0.5c-0.8-0.4-1.5-0.9-2.1-1.5c-0.6-0.6-1-1.4-1.3-2.3c-0.3-0.9-0.4-1.9-0.4-3v-2.3c0-1.1,0.1-2.1,0.4-3
	c0.3-0.9,0.7-1.7,1.3-2.3c0.6-0.6,1.3-1.1,2.1-1.5c0.8-0.4,1.8-0.5,2.9-0.5c1.1,0,2.1,0.2,2.9,0.5c0.8,0.4,1.5,0.9,2.1,1.5
	c0.6,0.6,1,1.4,1.3,2.3c0.3,0.9,0.4,1.9,0.4,3v2.3C135.1,18.6,135,19.6,134.7,20.5 M132.5,15.2c0-1.6-0.3-2.8-1-3.7
	c-0.6-0.9-1.7-1.4-3.1-1.4c-1.4,0-2.4,0.4-3.1,1.3c-0.6,0.9-1,2.1-1,3.7v2.3c0,1.6,0.3,2.8,1,3.7c0.6,0.9,1.7,1.4,3.1,1.4
	c1.4,0,2.4-0.5,3.1-1.3c0.7-0.9,1-2.1,1-3.7V15.2z"/>
<path class="st3" d="M157.1,24.5c-0.1,0.1-0.3,0.2-0.4,0.2h-1.5c-0.2,0-0.3-0.1-0.4-0.2c-0.1-0.1-0.2-0.3-0.2-0.4v-18
	c0-0.1,0-0.1,0-0.1c0,0,0,0-0.1,0.1l-4.3,9c-0.2,0.3-0.3,0.5-0.5,0.7c-0.2,0.1-0.5,0.2-0.8,0.2h-1.4c-0.4,0-0.7-0.1-0.9-0.2
	c-0.2-0.1-0.4-0.4-0.5-0.7l-4.3-9c0,0,0-0.1-0.1-0.1c0,0,0,0,0,0.1v18c0,0.2-0.1,0.3-0.2,0.4c-0.1,0.1-0.3,0.2-0.4,0.2h-1.5
	c-0.2,0-0.3-0.1-0.4-0.2c-0.1-0.1-0.2-0.3-0.2-0.4V3c0-0.2,0.1-0.4,0.3-0.6c0.2-0.2,0.4-0.3,0.6-0.3h1.9c0.3,0,0.5,0,0.6,0.1
	c0.1,0.1,0.2,0.2,0.3,0.4l5,10.4c0.1,0.2,0.2,0.3,0.4,0.3c0.1,0,0.3-0.1,0.4-0.3l5-10.4c0.1-0.2,0.2-0.3,0.3-0.4
	c0.1-0.1,0.3-0.1,0.6-0.1h1.9c0.2,0,0.4,0.1,0.6,0.3c0.2,0.2,0.3,0.4,0.3,0.6v21C157.3,24.2,157.2,24.4,157.1,24.5"/>
<path class="st3" d="M174.5,24.6c0,0.1-0.1,0.1-0.2,0.2c-0.3,0-0.7,0.1-1.1,0.1c-0.5,0-1,0-1.6,0c-0.6,0-1.1,0-1.7,0h-1.5
	c-2.1,0-3.7-0.4-4.8-1.3c-1.1-0.9-1.6-2.3-1.6-4.3V7.6c0-2,0.5-3.5,1.6-4.3c1.1-0.9,2.7-1.3,4.8-1.3c0.4,0,0.9,0,1.5,0
	c0.6,0,1.1,0,1.6,0c0.5,0,1.1,0,1.5,0c0.5,0,0.9,0,1.2,0.1c0.1,0,0.2,0.1,0.2,0.2c0,0.1,0.1,0.2,0.1,0.3V4c0,0.2-0.1,0.4-0.3,0.4
	h-5.8c-0.8,0-1.4,0.1-1.9,0.2c-0.5,0.1-0.9,0.3-1.1,0.5c-0.3,0.3-0.4,0.6-0.5,1c-0.1,0.4-0.1,0.9-0.1,1.5v4.2h9.3
	c0.2,0,0.3,0.1,0.4,0.2c0.1,0.1,0.2,0.3,0.2,0.4v1.1c0,0.2-0.1,0.3-0.2,0.4c-0.1,0.1-0.3,0.2-0.4,0.2h-9.3v5.1c0,0.6,0,1.1,0.1,1.5
	c0.1,0.4,0.3,0.7,0.5,1c0.3,0.3,0.6,0.4,1.1,0.5c0.5,0.1,1.1,0.2,1.9,0.2h5.8c0.2,0,0.3,0.1,0.3,0.4v1.5
	C174.6,24.4,174.6,24.5,174.5,24.6"/>
<path class="st3" d="M193.3,19.6c-0.4,1.2-1,2.2-1.8,2.9c-0.8,0.8-1.8,1.4-2.9,1.7c-1.1,0.4-2.4,0.6-3.8,0.6c-0.6,0-1.1,0-1.7,0
	c-0.6,0-1.1,0-1.6-0.1c-0.5,0-0.9-0.1-1.3-0.1c-0.4,0-0.7-0.1-0.9-0.1c-0.4-0.1-0.6-0.3-0.6-0.8V3c0-0.4,0.2-0.7,0.6-0.8
	c0.2,0,0.5-0.1,0.9-0.1c0.4,0,0.8-0.1,1.3-0.1c0.5,0,1-0.1,1.6-0.1c0.6,0,1.1,0,1.7,0c1.4,0,2.6,0.2,3.8,0.5
	c1.1,0.4,2.1,0.9,2.9,1.7c0.8,0.8,1.4,1.8,1.8,2.9c0.4,1.2,0.6,2.6,0.6,4.2v4.1C193.9,17.1,193.7,18.5,193.3,19.6 M191.2,11.3
	c0-1.4-0.2-2.5-0.5-3.4c-0.3-0.9-0.8-1.6-1.3-2.2c-0.6-0.5-1.2-0.9-2-1.1c-0.8-0.2-1.6-0.3-2.5-0.3c-0.7,0-1.3,0-1.8,0
	c-0.5,0-1,0-1.5,0.1v18.1c0.5,0,1,0.1,1.5,0.1h1.8c0.9,0,1.7-0.1,2.5-0.3c0.8-0.2,1.5-0.6,2-1.2c0.6-0.5,1-1.3,1.3-2.2
	c0.3-0.9,0.5-2,0.5-3.4V11.3z"/>
<path class="st3" d="M200.9,24.5c-0.1,0.1-0.2,0.2-0.4,0.2h-1.7c-0.2,0-0.3-0.1-0.4-0.2c-0.1-0.1-0.2-0.3-0.2-0.4V2.7
	c0-0.2,0.1-0.3,0.2-0.4c0.1-0.1,0.2-0.2,0.4-0.2h1.7c0.2,0,0.3,0.1,0.4,0.2c0.1,0.1,0.2,0.2,0.2,0.4v21.4
	C201,24.2,201,24.4,200.9,24.5"/>
<path class="st3" d="M218.9,24.3c-0.1,0.1-0.3,0.2-0.4,0.2c-0.3,0.1-0.6,0.1-1,0.2c-0.3,0-0.7,0.1-1.1,0.1c-0.4,0-0.8,0.1-1.3,0.1
	c-0.5,0-1,0-1.7,0c-0.9,0-1.9-0.1-2.8-0.4c-0.9-0.3-1.8-0.8-2.6-1.5c-0.8-0.7-1.4-1.7-1.9-2.9c-0.5-1.2-0.7-2.7-0.7-4.6v-4.2
	c0-1.9,0.2-3.4,0.7-4.6c0.5-1.2,1.1-2.2,1.9-2.9c0.8-0.7,1.6-1.2,2.6-1.5c0.9-0.3,1.9-0.4,2.8-0.4c1,0,1.9,0.1,2.8,0.2
	c0.9,0.1,1.6,0.2,2.3,0.3c0.3,0,0.5,0.2,0.5,0.4v1.5c0,0.1,0,0.2-0.1,0.2c0,0.1-0.1,0.1-0.3,0.1h-0.1c-0.3,0-0.6,0-1-0.1
	c-0.4,0-0.8-0.1-1.3-0.1c-0.5,0-0.9-0.1-1.4-0.1c-0.5,0-0.9,0-1.4,0c-0.7,0-1.4,0.1-2.1,0.3c-0.6,0.2-1.2,0.6-1.7,1.2
	c-0.5,0.5-0.8,1.2-1.1,2.1c-0.3,0.9-0.4,2-0.4,3.3v4.2c0,1.3,0.1,2.4,0.4,3.2c0.3,0.9,0.6,1.6,1.1,2.1c0.5,0.5,1,0.9,1.7,1.2
	c0.6,0.2,1.3,0.4,2.1,0.4c0.4,0,0.9,0,1.3,0c0.5,0,0.9,0,1.4-0.1c0.5,0,0.9,0,1.3-0.1c0.4,0,0.7-0.1,1-0.1h0.1
	c0.3,0,0.5,0.2,0.5,0.5v1.2C219.1,24.1,219,24.2,218.9,24.3"/>
<path class="st3" d="M224.5,24.5c-0.1,0.1-0.2,0.2-0.4,0.2h-1.5c-0.2,0-0.3-0.1-0.4-0.2c-0.1-0.1-0.2-0.3-0.2-0.4v-2.8
	c0-0.2,0.1-0.3,0.2-0.4c0.1-0.1,0.2-0.2,0.4-0.2h1.5c0.2,0,0.3,0.1,0.4,0.2c0.1,0.1,0.2,0.2,0.2,0.4V24
	C224.7,24.2,224.6,24.3,224.5,24.5"/>
<path class="st3" d="M239.8,23c-1.1,1.3-2.7,1.9-5,1.9c-0.5,0-1,0-1.7-0.1c-0.7-0.1-1.3-0.1-1.9-0.2V30c0,0.2-0.1,0.3-0.2,0.4
	c-0.1,0.1-0.2,0.2-0.4,0.2h-1.5c-0.2,0-0.3-0.1-0.4-0.2c-0.1-0.1-0.1-0.2-0.1-0.4V9.2c0-0.2,0-0.4,0.1-0.5c0.1-0.1,0.2-0.2,0.5-0.2
	c0.8-0.2,1.7-0.4,2.7-0.5c1-0.1,1.9-0.2,2.9-0.2c1.1,0,2.1,0.2,2.9,0.5c0.8,0.4,1.5,0.9,2.1,1.5c0.5,0.6,0.9,1.4,1.2,2.4
	c0.3,0.9,0.4,2,0.4,3.1v2.2C241.4,19.8,240.9,21.7,239.8,23 M238.8,15.3c0-0.8-0.1-1.5-0.2-2.2c-0.1-0.6-0.3-1.2-0.6-1.7
	c-0.3-0.5-0.7-0.8-1.2-1.1c-0.5-0.3-1.1-0.4-1.9-0.4c-0.6,0-1.3,0-1.9,0.1c-0.6,0.1-1.2,0.1-1.6,0.2v12c0.5,0.1,1.1,0.2,1.8,0.2
	c0.7,0,1.3,0.1,1.8,0.1c0.7,0,1.4-0.1,1.9-0.3c0.5-0.2,0.9-0.6,1.2-1c0.3-0.4,0.5-1,0.6-1.6c0.1-0.6,0.2-1.4,0.2-2.2V15.3z"/>
<path class="st3" d="M247.8,24.5c-0.1,0.1-0.2,0.2-0.4,0.2h-1.6c-0.2,0-0.3-0.1-0.4-0.2c-0.1-0.1-0.2-0.3-0.2-0.4V2.4
	c0-0.2,0-0.3,0.2-0.4c0.1-0.1,0.2-0.2,0.4-0.2h1.6c0.2,0,0.3,0.1,0.4,0.2c0.1,0.1,0.2,0.2,0.2,0.4v21.6
	C248,24.2,247.9,24.4,247.8,24.5"/>
<path class="st3" d="M55.2,40.3c0.4,0.3,0.9,0.4,1.5,0.4c0.9,0,1.4-0.5,1.4-1.2c0-0.6-0.4-1-1.3-1.3c-1.1-0.4-1.8-1-1.8-1.9
	c0-1.1,0.9-1.8,2.2-1.8c0.7,0,1.2,0.2,1.5,0.3l-0.2,0.7c-0.2-0.1-0.7-0.3-1.3-0.3c-0.9,0-1.3,0.6-1.3,1c0,0.6,0.4,0.9,1.3,1.3
	c1.1,0.4,1.7,1,1.7,2c0,1-0.8,2-2.4,2c-0.6,0-1.4-0.2-1.7-0.4L55.2,40.3z"/>
<path class="st3" d="M61.2,35.1c0,0.3-0.2,0.5-0.6,0.5c-0.3,0-0.5-0.2-0.5-0.5c0-0.3,0.2-0.6,0.5-0.6C61,34.6,61.2,34.8,61.2,35.1
	 M60.2,36.5h0.9v4.9h-0.9V36.5z"/>
<path class="st3" d="M63,39.1c0,1.2,0.8,1.7,1.7,1.7c0.6,0,1-0.1,1.3-0.3l0.2,0.6c-0.3,0.1-0.9,0.3-1.6,0.3c-1.5,0-2.4-1-2.4-2.5
	c0-1.5,0.9-2.6,2.3-2.6c1.6,0,2,1.4,2,2.3c0,0.2,0,0.3,0,0.4H63z M65.6,38.4c0-0.6-0.2-1.4-1.2-1.4c-0.9,0-1.3,0.8-1.3,1.4H65.6z"/>
<path class="st3" d="M71,41.2c-0.2,0.1-0.7,0.3-1.4,0.3c-1.5,0-2.4-1-2.4-2.5c0-1.5,1-2.6,2.6-2.6c0.5,0,1,0.1,1.2,0.3l-0.2,0.7
	c-0.2-0.1-0.5-0.2-1-0.2c-1.1,0-1.7,0.8-1.7,1.8c0,1.1,0.7,1.8,1.7,1.8c0.5,0,0.8-0.1,1.1-0.2L71,41.2z M70.8,34.4l-1.2,1.4H69
	l0.9-1.4H70.8z"/>
<path class="st3" d="M74.2,34.6h0.9v3.3h0c0.2-0.3,0.4-0.5,0.5-0.7l2.1-2.5h1.1l-2.4,2.9l2.6,3.9h-1L75.7,38l-0.6,0.7v2.6h-0.9V34.6
	z"/>
<rect x="79.7" y="34.2" class="st3" width="0.9" height="7.1"/>
<path class="st3" d="M83,35.1c0,0.3-0.2,0.5-0.6,0.5c-0.3,0-0.5-0.2-0.5-0.5c0-0.3,0.2-0.6,0.5-0.6C82.8,34.6,83,34.8,83,35.1
	 M82,36.5h0.9v4.9H82V36.5z"/>
<path class="st3" d="M84.4,37.8c0-0.5,0-0.9,0-1.3h0.8l0.1,0.8h0c0.2-0.5,0.8-0.9,1.6-0.9c0.7,0,1.7,0.4,1.7,2.1v2.9h-0.9v-2.8
	c0-0.8-0.3-1.4-1.1-1.4c-0.6,0-1,0.4-1.2,0.9c0,0.1-0.1,0.3-0.1,0.4v2.9h-0.9V37.8z"/>
<path class="st3" d="M90.9,35.1c0,0.3-0.2,0.5-0.6,0.5c-0.3,0-0.5-0.2-0.5-0.5c0-0.3,0.2-0.6,0.5-0.6C90.7,34.6,90.9,34.8,90.9,35.1
	 M89.9,36.5h0.9v4.9h-0.9V36.5z"/>
<path class="st3" d="M93.1,38.7L93.1,38.7c0.1-0.2,0.3-0.4,0.4-0.6l1.4-1.7h1.1l-1.9,2l2.1,2.9h-1.1L93.6,39l-0.4,0.5v1.8h-0.9v-7.1
	h0.9V38.7z"/>
<path class="st3" d="M99.1,34.6c0.4-0.1,1-0.1,1.7-0.1c0.9,0,1.5,0.2,1.9,0.6c0.4,0.3,0.6,0.8,0.6,1.4c0,0.6-0.2,1.1-0.5,1.4
	c-0.5,0.5-1.2,0.7-2.1,0.7c-0.3,0-0.5,0-0.7-0.1v2.7h-0.9V34.6z M100,37.9c0.2,0,0.4,0.1,0.7,0.1c1.1,0,1.7-0.5,1.7-1.4
	c0-0.9-0.6-1.3-1.6-1.3c-0.4,0-0.7,0-0.8,0.1V37.9z"/>
<path class="st3" d="M104.1,40.4c0.3,0.2,0.7,0.3,1.2,0.3c0.6,0,0.9-0.3,0.9-0.7c0-0.4-0.2-0.6-0.9-0.9c-0.9-0.3-1.3-0.8-1.3-1.4
	c0-0.8,0.6-1.4,1.7-1.4c0.5,0,0.9,0.1,1.2,0.3l-0.2,0.6c-0.2-0.1-0.5-0.3-1-0.3c-0.5,0-0.8,0.3-0.8,0.7c0,0.4,0.3,0.6,0.9,0.8
	c0.8,0.3,1.3,0.7,1.3,1.5c0,0.9-0.7,1.5-1.8,1.5c-0.5,0-1-0.1-1.4-0.3L104.1,40.4z"/>
<path class="st3" d="M108.5,36.5l1,2.9c0.1,0.3,0.2,0.7,0.3,1h0c0.1-0.3,0.2-0.7,0.3-1l1-2.9h0.9l-1.3,3.5c-0.6,1.7-1.1,2.5-1.7,3
	c-0.4,0.4-0.9,0.5-1.1,0.6l-0.2-0.7c0.2-0.1,0.5-0.2,0.8-0.4c0.2-0.2,0.5-0.5,0.7-1c0-0.1,0.1-0.2,0.1-0.2s0-0.1-0.1-0.2l-1.8-4.5
	H108.5z"/>
<path class="st3" d="M116.2,41.2c-0.2,0.1-0.7,0.3-1.4,0.3c-1.5,0-2.4-1-2.4-2.5c0-1.5,1-2.6,2.6-2.6c0.5,0,1,0.1,1.2,0.3l-0.2,0.7
	c-0.2-0.1-0.5-0.2-1-0.2c-1.1,0-1.7,0.8-1.7,1.8c0,1.1,0.7,1.8,1.7,1.8c0.5,0,0.8-0.1,1.1-0.2L116.2,41.2z"/>
<path class="st3" d="M117.2,34.2h0.9v3h0c0.1-0.3,0.4-0.5,0.6-0.6c0.3-0.2,0.6-0.2,0.9-0.2c0.7,0,1.7,0.4,1.7,2.1v2.9h-0.9v-2.8
	c0-0.8-0.3-1.4-1.1-1.4c-0.6,0-1,0.4-1.2,0.9c0,0.1-0.1,0.3-0.1,0.4v2.9h-0.9V34.2z"/>
<path class="st3" d="M127.2,38.9c0,1.8-1.2,2.6-2.4,2.6c-1.3,0-2.3-1-2.3-2.5c0-1.6,1.1-2.6,2.4-2.6
	C126.2,36.4,127.2,37.4,127.2,38.9 M123.3,38.9c0,1.1,0.6,1.9,1.5,1.9c0.8,0,1.5-0.8,1.5-1.9c0-0.8-0.4-1.9-1.4-1.9
	C123.8,37,123.3,38,123.3,38.9"/>
<rect x="128.3" y="34.2" class="st3" width="0.9" height="7.1"/>
<path class="st3" d="M135,38.9c0,1.8-1.2,2.6-2.4,2.6c-1.3,0-2.3-1-2.3-2.5c0-1.6,1.1-2.6,2.4-2.6C134.1,36.4,135,37.4,135,38.9
	 M131.2,38.9c0,1.1,0.6,1.9,1.5,1.9c0.8,0,1.5-0.8,1.5-1.9c0-0.8-0.4-1.9-1.4-1.9C131.6,37,131.2,38,131.2,38.9"/>
<path class="st3" d="M140.3,40.6c0,1.1-0.2,1.8-0.7,2.2c-0.5,0.4-1.2,0.6-1.8,0.6c-0.6,0-1.2-0.1-1.6-0.4l0.2-0.7
	c0.3,0.2,0.8,0.4,1.4,0.4c0.9,0,1.6-0.5,1.6-1.7v-0.5h0c-0.3,0.5-0.8,0.8-1.5,0.8c-1.2,0-2.1-1-2.1-2.4c0-1.6,1.1-2.6,2.2-2.6
	c0.8,0,1.3,0.4,1.5,0.8h0l0-0.7h0.8c0,0.3,0,0.7,0,1.3V40.6z M139.4,38.4c0-0.2,0-0.3-0.1-0.4c-0.2-0.5-0.6-0.9-1.2-0.9
	c-0.8,0-1.4,0.7-1.4,1.8c0,1,0.5,1.7,1.4,1.7c0.5,0,1-0.3,1.2-0.9c0.1-0.2,0.1-0.3,0.1-0.5V38.4z"/>
<path class="st3" d="M142.6,35.1c0,0.3-0.2,0.5-0.6,0.5c-0.3,0-0.5-0.2-0.5-0.5c0-0.3,0.2-0.6,0.5-0.6
	C142.4,34.6,142.6,34.8,142.6,35.1 M141.7,36.5h0.9v4.9h-0.9V36.5z"/>
<path class="st3" d="M147.4,41.2c-0.2,0.1-0.7,0.3-1.4,0.3c-1.5,0-2.4-1-2.4-2.5c0-1.5,1-2.6,2.6-2.6c0.5,0,1,0.1,1.2,0.3l-0.2,0.7
	c-0.2-0.1-0.5-0.2-1-0.2c-1.1,0-1.7,0.8-1.7,1.8c0,1.1,0.7,1.8,1.7,1.8c0.5,0,0.8-0.1,1.1-0.2L147.4,41.2z"/>
<path class="st3" d="M147.9,40.8l2.2-2.9c0.2-0.3,0.4-0.5,0.6-0.8v0h-2.6v-0.7h3.7V37l-2.2,2.8c-0.2,0.3-0.4,0.5-0.6,0.8v0h2.8v0.7
	h-3.9V40.8z"/>
<path class="st3" d="M152.8,37.8c0-0.5,0-0.9,0-1.3h0.8l0.1,0.8h0c0.2-0.5,0.8-0.9,1.6-0.9c0.7,0,1.7,0.4,1.7,2.1v2.9H156v-2.8
	c0-0.8-0.3-1.4-1.1-1.4c-0.6,0-1,0.4-1.2,0.9c0,0.1-0.1,0.3-0.1,0.4v2.9h-0.9V37.8z"/>
<path class="st3" d="M162.7,38.9c0,1.8-1.2,2.6-2.4,2.6c-1.3,0-2.3-1-2.3-2.5c0-1.6,1.1-2.6,2.4-2.6
	C161.7,36.4,162.7,37.4,162.7,38.9 M158.9,38.9c0,1.1,0.6,1.9,1.5,1.9c0.8,0,1.5-0.8,1.5-1.9c0-0.8-0.4-1.9-1.4-1.9
	C159.3,37,158.9,38,158.9,38.9"/>
<rect x="163.5" y="38.3" class="st3" width="2.5" height="0.6"/>
<path class="st3" d="M167.1,34.6c0.4-0.1,1-0.1,1.7-0.1c0.9,0,1.5,0.2,1.9,0.6c0.4,0.3,0.6,0.8,0.6,1.4c0,0.6-0.2,1.1-0.5,1.4
	c-0.5,0.5-1.2,0.7-2.1,0.7c-0.3,0-0.5,0-0.7-0.1v2.7h-0.9V34.6z M167.9,37.9c0.2,0,0.4,0.1,0.7,0.1c1,0,1.7-0.5,1.7-1.4
	c0-0.9-0.6-1.3-1.6-1.3c-0.4,0-0.7,0-0.8,0.1V37.9z"/>
<path class="st3" d="M172,40.4c0.3,0.2,0.7,0.3,1.2,0.3c0.6,0,0.9-0.3,0.9-0.7c0-0.4-0.2-0.6-0.9-0.9c-0.9-0.3-1.3-0.8-1.3-1.4
	c0-0.8,0.6-1.4,1.7-1.4c0.5,0,0.9,0.1,1.2,0.3l-0.2,0.6c-0.2-0.1-0.5-0.3-1-0.3c-0.5,0-0.8,0.3-0.8,0.7c0,0.4,0.3,0.6,0.9,0.8
	c0.8,0.3,1.3,0.7,1.3,1.5c0,0.9-0.7,1.5-1.8,1.5c-0.5,0-1-0.1-1.4-0.3L172,40.4z"/>
<path class="st3" d="M176.4,36.5l1,2.9c0.1,0.3,0.2,0.7,0.3,1h0c0.1-0.3,0.2-0.7,0.3-1l1-2.9h0.9l-1.3,3.5c-0.6,1.7-1.1,2.5-1.7,3
	c-0.4,0.4-0.9,0.5-1.1,0.6l-0.2-0.7c0.2-0.1,0.5-0.2,0.8-0.4c0.2-0.2,0.5-0.5,0.7-1c0-0.1,0.1-0.2,0.1-0.2s0-0.1-0.1-0.2l-1.8-4.5
	H176.4z"/>
<path class="st3" d="M184.1,41.2c-0.2,0.1-0.7,0.3-1.4,0.3c-1.5,0-2.4-1-2.4-2.5c0-1.5,1-2.6,2.6-2.6c0.5,0,1,0.1,1.2,0.3l-0.2,0.7
	c-0.2-0.1-0.5-0.2-1-0.2c-1.1,0-1.7,0.8-1.7,1.8c0,1.1,0.7,1.8,1.7,1.8c0.5,0,0.8-0.1,1.1-0.2L184.1,41.2z"/>
<path class="st3" d="M185.2,34.2h0.9v3h0c0.1-0.3,0.4-0.5,0.6-0.6c0.3-0.2,0.6-0.2,0.9-0.2c0.6,0,1.7,0.4,1.7,2.1v2.9h-0.9v-2.8
	c0-0.8-0.3-1.4-1.1-1.4c-0.6,0-1,0.4-1.2,0.9c0,0.1-0.1,0.3-0.1,0.4v2.9h-0.9V34.2z"/>
<path class="st3" d="M191.7,35.1c0,0.3-0.2,0.5-0.6,0.5c-0.3,0-0.5-0.2-0.5-0.5c0-0.3,0.2-0.6,0.5-0.6
	C191.5,34.6,191.7,34.8,191.7,35.1 M190.7,36.5h0.9v4.9h-0.9V36.5z"/>
<path class="st3" d="M196.5,40.2c0,0.4,0,0.8,0.1,1.2h-0.8l-0.1-0.6h0c-0.3,0.4-0.8,0.7-1.5,0.7c-1,0-1.5-0.7-1.5-1.4
	c0-1.2,1-1.8,2.9-1.8v-0.1c0-0.4-0.1-1.1-1.1-1.1c-0.5,0-0.9,0.1-1.3,0.4l-0.2-0.6c0.4-0.3,1-0.4,1.6-0.4c1.5,0,1.8,1,1.8,2V40.2z
	 M195.6,38.9c-1,0-2,0.2-2,1.1c0,0.6,0.4,0.8,0.8,0.8c0.6,0,1.1-0.4,1.2-0.8c0-0.1,0-0.2,0-0.3V38.9z"/>
<path class="st3" d="M198.9,35.3v1.2h1.3v0.7h-1.3v2.6c0,0.6,0.2,0.9,0.7,0.9c0.2,0,0.4,0,0.5-0.1l0,0.7c-0.2,0.1-0.4,0.1-0.8,0.1
	c-0.4,0-0.7-0.1-0.9-0.4c-0.2-0.3-0.3-0.7-0.3-1.3v-2.7h-0.8v-0.7h0.8v-0.9L198.9,35.3z"/>
<path class="st3" d="M201.2,38c0-0.6,0-1.1,0-1.5h0.8l0,1h0c0.2-0.7,0.8-1.1,1.3-1.1c0.1,0,0.2,0,0.2,0v0.8c-0.1,0-0.2,0-0.3,0
	c-0.6,0-1.1,0.5-1.2,1.1c0,0.1,0,0.3,0,0.4v2.6h-0.9V38z"/>
<path class="st3" d="M205,36.5l1,2.9c0.1,0.3,0.2,0.7,0.3,1h0c0.1-0.3,0.2-0.7,0.3-1l1-2.9h0.9l-1.3,3.5c-0.6,1.7-1.1,2.5-1.7,3
	c-0.4,0.4-0.9,0.5-1.1,0.6l-0.2-0.7c0.2-0.1,0.5-0.2,0.8-0.4c0.2-0.2,0.5-0.5,0.7-1c0-0.1,0.1-0.2,0.1-0.2s0-0.1-0.1-0.2l-1.8-4.5
	H205z"/>
<path class="st3" d="M212.7,41.2c-0.2,0.1-0.7,0.3-1.4,0.3c-1.5,0-2.4-1-2.4-2.5c0-1.5,1-2.6,2.6-2.6c0.5,0,1,0.1,1.2,0.3l-0.2,0.7
	c-0.2-0.1-0.5-0.2-1-0.2c-1.1,0-1.7,0.8-1.7,1.8c0,1.1,0.7,1.8,1.7,1.8c0.5,0,0.8-0.1,1.1-0.2L212.7,41.2z"/>
<path class="st3" d="M213.2,40.8l2.2-2.9c0.2-0.3,0.4-0.5,0.6-0.8v0h-2.6v-0.7h3.7V37l-2.2,2.8c-0.2,0.3-0.4,0.5-0.6,0.8v0h2.8v0.7
	h-3.9V40.8z"/>
<path class="st3" d="M218,37.8c0-0.5,0-0.9,0-1.3h0.8l0.1,0.8h0c0.2-0.5,0.8-0.9,1.6-0.9c0.7,0,1.7,0.4,1.7,2.1v2.9h-0.9v-2.8
	c0-0.8-0.3-1.4-1.1-1.4c-0.6,0-1,0.4-1.2,0.9c0,0.1-0.1,0.3-0.1,0.4v2.9H218V37.8z"/>
<path class="st3" d="M223.8,36.5l1,2.9c0.1,0.3,0.2,0.7,0.3,1h0c0.1-0.3,0.2-0.7,0.3-1l1-2.9h0.9l-1.3,3.5c-0.6,1.7-1.1,2.5-1.7,3
	c-0.4,0.4-0.9,0.5-1.1,0.6l-0.2-0.7c0.2-0.1,0.5-0.2,0.8-0.4c0.2-0.2,0.5-0.5,0.7-1c0-0.1,0.1-0.2,0.1-0.2s0-0.1-0.1-0.2l-1.8-4.5
	H223.8z"/>
<path class="st3" d="M231.5,41.2c-0.2,0.1-0.7,0.3-1.4,0.3c-1.5,0-2.4-1-2.4-2.5c0-1.5,1-2.6,2.6-2.6c0.5,0,1,0.1,1.2,0.3l-0.2,0.7
	c-0.2-0.1-0.5-0.2-1-0.2c-1.1,0-1.7,0.8-1.7,1.8c0,1.1,0.7,1.8,1.7,1.8c0.5,0,0.8-0.1,1.1-0.2L231.5,41.2z"/>
<path class="st3" d="M232.6,34.2h0.9v3h0c0.1-0.3,0.4-0.5,0.6-0.6c0.3-0.2,0.6-0.2,0.9-0.2c0.7,0,1.7,0.4,1.7,2.1v2.9h-0.9v-2.8
	c0-0.8-0.3-1.4-1.1-1.4c-0.6,0-1,0.4-1.2,0.9c0,0.1-0.1,0.3-0.1,0.4v2.9h-0.9V34.2z"/>
</svg>
