<svg version="1.1" id="Warstwa_1" xmlns="http://www.w3.org/2000/svg" x="0" y="0" viewBox="0 0 3073.1 1299.3" xml:space="preserve"><style>.st1{fill:#76227d}.st2{fill:#fff}.st3{fill:none;stroke:#fff;stroke-width:.198;stroke-miterlimit:10}.st4{fill:#a8a8a7}</style><path d="M1513.7 583.3c-168.9-244.9-200.3-270-200.3-360 0-123.4 100-223.3 223.2-223.3s223.2 99.9 223.2 223.2c0 90-31.4 115.1-200.3 360-11 16.1-34.7 16.1-45.8.1zm22.9-267.1c51.4 0 93-41.6 93-93s-41.6-93-93-93-93 41.6-93 93 41.7 93 93 93z" fill="#f8b525"/><path class="st1" d="M415.3 1294.4c-7.4-57-14.9-114-3.7-172.2 2.5-14.9 8.7-29.7 16.1-44.6 29.7-54.5 43.4-112.8 31-176-9.9-48.3-42.1-89.2-86.7-111.5-53.3-27.3-110.3-37.2-171-28.5-59.5 9.9-104.1 42.1-137.5 90.5-28.5 42.1-33.5 88-21.1 135.1 11.2 39.7-5 65.7-32.2 89.2-13.6 11.2-13.6 18.6 1.2 27.3 6.2 3.7 12.4 7.4 18.6 11.2 9.9 7.4 13.6 17.3 8.7 29.7-12.4 27.3-8.7 31 18.6 39.7 6.2 2.5 11.2 9.9 13.6 16.1 2.5 6.2 0 14.9 0 22.3-1.2 21.1 6.2 27.3 26 24.8 17.3-2.5 34.7-5 53.3-6.2 27.3-2.5 59.5 26 68.2 52"/><path class="st2" d="M391.7 920.2c0-2.5 1.2-5 1.2-7.4 0-5 0-8.7-1.2-13.6L414 888l-7.4-17.3-23.5 7.4c-3.7-6.2-8.7-11.2-14.9-14.9l7.4-23.5-18.6-7.4-11.2 21.1c-2.5 0-5-1.2-8.7-1.2-5 0-8.7 0-13.6 1.2L312.4 831l-18.6 7.4 7.4 23.5c-3.7 3.7-8.7 8.7-13.6 14.9l-23.5-7.4-7.4 18.6 21.1 11.2c0 2.5-1.2 5-1.2 8.7 0 5 0 8.7 1.2 13.6l-22.3 11.2 7.4 18.6 23.5-7.4c3.7 6.2 8.7 11.2 14.9 14.9l-7.4 23.5 18.6 7.4 11.2-21.1c2.5 0 5 1.2 7.4 1.2 5 0 8.7 0 13.6-1.2l11.2 22.3 18.6-7.4-7.4-26c6.2-3.7 11.2-8.7 14.9-14.9l23.5 7.4 7.4-18.6-21.2-11.2zm-88-12.4c1.2-17.3 16.1-31 33.5-29.7 17.3 1.2 31 16.1 29.7 33.5-1.2 17.3-16.1 31-33.5 29.7-17.3-1.3-29.7-16.2-29.7-33.5"/><path class="st3" d="M391.7 920.2c0-2.5 1.2-5 1.2-7.4 0-5 0-8.7-1.2-13.6L414 888l-7.4-17.3-23.5 7.4c-3.7-6.2-8.7-11.2-14.9-14.9l7.4-23.5-18.6-7.4-11.2 21.1c-2.5 0-5-1.2-8.7-1.2-5 0-8.7 0-13.6 1.2L312.4 831l-18.6 7.4 7.4 23.5c-3.7 3.7-8.7 8.7-13.6 14.9l-23.5-7.4-7.4 18.6 21.1 11.2c0 2.5-1.2 5-1.2 8.7 0 5 0 8.7 1.2 13.6l-22.3 11.2 7.4 18.6 23.5-7.4c3.7 6.2 8.7 11.2 14.9 14.9l-7.4 23.5 18.6 7.4 11.2-21.1c2.5 0 5 1.2 7.4 1.2 5 0 8.7 0 13.6-1.2l11.2 22.3 18.6-7.4-7.4-26c6.2-3.7 11.2-8.7 14.9-14.9l23.5 7.4 7.4-18.6-21.2-11.2zm-88-12.4c1.2-17.3 16.1-31 33.5-29.7 17.3 1.2 31 16.1 29.7 33.5-1.2 17.3-16.1 31-33.5 29.7-17.3-1.3-29.7-16.2-29.7-33.5z"/><path class="st2" d="M217 922.7c1.2-2.5 2.5-3.7 3.7-6.2 1.2-3.7 2.5-7.4 2.5-11.2l19.8-2.5v-16.1l-19.8-1.2c-1.2-6.2-3.7-11.2-7.4-16.1l12.4-16.1-12.4-11.2-14.9 13.6c-2.5-1.2-3.7-2.5-6.2-3.7-3.7-1.2-7.4-2.5-11.2-2.5l-2.5-19.8-16 1.3-1.2 19.8c-6.2 1.2-11.2 3.7-16.1 7.4l-16.1-12.4-9.9 12.4 13.6 14.9c-1.2 2.5-2.5 3.7-3.7 6.2-1.2 3.7-2.5 7.4-2.5 11.2l-19.8 2.5v16l19.8 1.2c1.2 6.2 3.7 11.2 7.4 16.1l-12.4 16.1 12.4 11.2 14.9-13.6c2.5 1.2 3.7 2.5 6.2 3.7 3.7 1.2 7.4 2.5 11.2 2.5l2.5 19.8h16.1l1.2-19.8c6.2-1.2 11.2-3.7 16.1-7.4l16.1 12.4 11.2-12.4-15-16.1zm-17.3-14.9c-5 13.6-21.1 19.8-33.5 13.6-13.6-6.2-19.8-21.1-13.6-34.7 6.2-13.6 21.1-19.8 33.5-13.6 13.6 6.2 19.8 22.3 13.6 34.7"/><path class="st3" d="M217 922.7c1.2-2.5 2.5-3.7 3.7-6.2 1.2-3.7 2.5-7.4 2.5-11.2l19.8-2.5v-16.1l-19.8-1.2c-1.2-6.2-3.7-11.2-7.4-16.1l12.4-16.1-12.4-11.2-14.9 13.6c-2.5-1.2-3.7-2.5-6.2-3.7-3.7-1.2-7.4-2.5-11.2-2.5l-2.5-19.8-16 1.3-1.2 19.8c-6.2 1.2-11.2 3.7-16.1 7.4l-16.1-12.4-9.9 12.4 13.6 14.9c-1.2 2.5-2.5 3.7-3.7 6.2-1.2 3.7-2.5 7.4-2.5 11.2l-19.8 2.5v16l19.8 1.2c1.2 6.2 3.7 11.2 7.4 16.1l-12.4 16.1 12.4 11.2 14.9-13.6c2.5 1.2 3.7 2.5 6.2 3.7 3.7 1.2 7.4 2.5 11.2 2.5l2.5 19.8h16.1l1.2-19.8c6.2-1.2 11.2-3.7 16.1-7.4l16.1 12.4 11.2-12.4-15-16.1zm-17.3-14.9c-5 13.6-21.1 19.8-33.5 13.6-13.6-6.2-19.8-21.1-13.6-34.7 6.2-13.6 21.1-19.8 33.5-13.6 13.6 6.2 19.8 22.3 13.6 34.7z"/><path class="st4" d="M281.4 1046.6c1.2-2.5 1.2-5 2.5-6.2 1.2-3.7 1.2-7.4 1.2-11.2l19.8-6.2-3.7-16.1-21.1 2.5c-2.5-6.2-6.2-11.2-9.9-14.9l9.9-18.6-13.6-8.7-12.4 16.1c-2.5-1.2-5-1.2-6.2-2.5-3.7-1.2-7.4-1.2-11.2-1.2l-6.2-19.8-16.1 3.7 2.5 21.1c-6.2 2.5-11.2 6.2-14.9 9.9l-18.6-9.9-8.7 14.9 16.1 12.4c-1.2 2.5-1.2 5-2.5 6.2-2.5 3.7-2.5 7.4-2.5 11.2l-19.8 6.2 3.7 16.1 21.1-2.5c2.5 6.2 6.2 11.2 9.9 14.9l-9.9 18.6 13.6 8.7 12.4-16.1c2.5 1.2 5 1.2 6.2 2.5 3.7 1.2 7.4 1.2 11.2 1.2l6.2 19.8 16.1-3.7-2.5-21.1c5-2.5 11.2-6.2 14.9-9.9l18.6 9.9 8.7-14.9-14.8-12.4zm-19.8-11.2c-3.7 14.9-17.3 23.5-32.2 19.8-14.9-3.7-23.5-17.3-19.8-32.2s17.3-23.5 32.2-19.8c14.9 2.5 23.5 17.4 19.8 32.2"/><path d="M281.4 1046.6c1.2-2.5 1.2-5 2.5-6.2 1.2-3.7 1.2-7.4 1.2-11.2h0l19.8-6.2-3.7-16.1-21.1 2.5c-2.5-6.2-6.2-11.2-9.9-14.9h0l9.9-18.6-13.6-8.7-12.4 16.1h0c-2.5-1.2-5-1.2-6.2-2.5-3.7-1.2-7.4-1.2-11.2-1.2h0l-6.2-19.8-16.1 3.7 2.5 21.1c-6.2 2.5-11.2 6.2-14.9 9.9h0l-18.6-9.9-8.7 14.9 16.1 12.4h0c-1.2 2.5-1.2 5-2.5 6.2-2.5 3.7-2.5 7.4-2.5 11.2h0l-19.8 6.2 3.7 16.1 21.1-2.5h0c2.5 6.2 6.2 11.2 9.9 14.9l-9.9 18.6 13.6 8.7 12.4-16.1c2.5 1.2 5 1.2 6.2 2.5 3.7 1.2 7.4 1.2 11.2 1.2h0l6.2 19.8 16.1-3.7-2.5-21.1c5-2.5 11.2-6.2 14.9-9.9h0l18.6 9.9 8.7-14.9-14.8-12.4h0zm-19.8-11.2c-3.7 14.9-17.3 23.5-32.2 19.8-14.9-3.7-23.5-17.3-19.8-32.2s17.3-23.5 32.2-19.8c14.9 2.5 23.5 17.4 19.8 32.2z" fill="none" stroke="#a8a8a7" stroke-width=".198" stroke-miterlimit="10"/><path class="st1" d="M712.6 909c-5 11.2-12.4 19.8-22.3 26s-19.8 11.2-33.5 14.9c-12.4 2.5-27.3 3.7-42.1 3.7h-19.8c-7.4 0-12.4-1.2-18.6-1.2v105.3c0 2.5 0 3.7-1.2 5-1.2 1.2-2.5 2.5-5 2.5h-19.8c-2.5 0-3.7-1.2-5-2.5V795c0-5 2.5-8.7 8.7-9.9 7.4 0 17.3-1.2 28.5-1.2s22.3-1.2 33.5-1.2c14.9 0 29.7 1.2 42.1 3.7 12.4 2.5 23.5 7.4 33.5 13.6s16.1 14.9 22.3 24.8c5 9.9 7.4 23.5 7.4 38.4v5c0 17.3-2.5 29.7-8.7 40.8m-26-44.6c0-18.6-5-32.2-17.3-40.9-11.2-7.4-29.7-12.4-53.3-12.4h-19.8c-7.4 0-13.6 1.2-17.3 1.2v110.3h37.2c26 0 43.4-5 54.5-13.6 11.2-8.7 16.1-22.3 16.1-42.1v-2.5zm206.9 148.7c0 18.6-6.2 33.5-19.8 42.1-12.4 8.7-29.7 12.4-50.8 12.4h-12.4c-5 0-9.9 0-14.9-1.2-5 0-11.2-1.2-16.1-2.5s-9.9-1.2-14.9-2.5c-5-1.2-7.4-3.7-7.4-7.4v-13.6c0-1.2 0-3.7 2.5-3.7 1.2-1.2 2.5-1.2 5-1.2h1.2c5 0 9.9 1.2 14.9 1.2s11.2 1.2 16.1 1.2c5 0 11.2 1.2 16.1 1.2h12.4c12.4 0 21.1-2.5 27.3-6.2s9.9-11.2 9.9-21.1c0-6.2-2.5-11.2-6.2-14.9-3.7-3.7-11.2-9.9-22.3-16.1l-38.4-22.3c-11.2-7.4-21.1-14.9-27.3-23.5-7.4-8.7-9.9-18.6-9.9-31 0-9.9 1.2-17.3 5-24.8 3.7-6.2 8.7-11.2 13.6-14.9 6.2-3.7 13.6-6.2 21.1-8.7 8.7-1.2 17.3-2.5 27.3-2.5 9.9 0 21.1 0 31 1.2 8.7 3.7 17.3 3.7 26 6.2 5 1.2 7.4 3.7 7.4 7.4v12.4c0 3.7-2.5 6.2-6.2 6.2h-1.2c-6.2 0-14.9-1.2-26-2.5-11.2-1.2-21.1-1.2-32.2-1.2-11.2 0-18.6 1.2-24.8 3.7-6.2 2.5-9.9 8.7-9.9 18.6 0 6.2 2.5 11.2 6.2 14.9s11.2 8.7 19.8 13.6l37.2 22.3c14.9 8.7 26 18.6 32.2 27.3 4.8 8.9 8.5 18.8 8.5 29.9m203.3-148.7v2.5l-62 216.8c-2.5 9.9-6.2 18.6-9.9 26-3.7 7.4-7.4 12.4-12.4 17.3s-11.2 7.4-18.6 9.9c-7.4 2.5-16.1 2.5-27.3 2.5-5 0-11.2 0-16.1-1.2-6.2 0-11.2-1.2-14.9-2.5-2.5 0-3.7-1.2-6.2-2.5-1.2-1.2-2.5-2.5-2.5-3.7V1116c0-3.7 2.5-6.2 7.4-6.2h1.2c3.7 0 9.9 1.2 16.1 1.2 7.4 0 12.4 1.2 16.1 1.2 5 0 9.9 0 13.6-1.2 3.7-1.2 7.4-2.5 9.9-5s5-6.2 7.4-9.9 3.7-9.9 5-16.1l3.7-14.9h-5c-2.5 0-5 0-8.7-1.2-2.5 0-5-1.2-7.4-3.7-2.5-1.2-5-5-6.2-7.4-2.5-3.7-3.7-8.7-6.2-13.6L924.2 867v-2.5c2.5-3.7 5-6.2 8.7-6.2H954c1.2 0 2.5 1.2 3.7 2.5 1.2 1.2 2.5 2.5 2.5 3.7l44.6 163.6c1.2 3.7 2.5 6.2 3.7 7.4 1.2 1.2 2.5 1.2 3.7 1.2h6.2l45.8-172.2c0-1.2 1.2-2.5 2.5-3.7 0-2.5 1.2-2.5 3.7-2.5h21.1c4-.1 5.3 2.4 5.3 6.1m166 195.8c-1.2 1.2-2.5 2.5-6.2 2.5-6.2 1.2-13.6 2.5-21.1 2.5-8.7 1.2-16.1 1.2-24.8 1.2-12.4 0-23.5-2.5-33.5-6.2-9.9-5-18.6-11.2-24.8-18.6-7.4-7.4-12.4-17.3-16.1-28.5-3.7-11.2-5-23.5-5-37.2v-29.7c0-13.6 1.2-26 5-37.2 3.7-11.2 8.7-21.1 14.9-28.5 6.2-7.4 14.9-13.6 24.8-18.6 9.9-5 21.1-6.2 33.5-6.2 8.7 0 17.3 0 24.8 1.2 8.7 1.2 14.9 1.2 21.1 2.5 2.5 0 5 1.2 6.2 2.5 1.2 1.2 1.2 2.5 1.2 6.2v13.6c0 2.5-1.2 3.7-2.5 3.7-1.2 1.2-2.5 1.2-5 1.2h-1.2c-8.7-1.2-16.1-1.2-22.3-2.5h-23.5c-14.9 0-26 5-34.7 14.9-8.7 9.9-12.4 26-12.4 47.1v29.7c0 21.1 3.7 37.2 12.4 47.1 7.4 9.9 19.8 14.9 34.7 14.9h23.5c6.2 0 13.6-1.2 22.3-2.5h1.2c1.2 0 3.7 0 5 1.2 1.2 1.2 2.5 2.5 2.5 3.7v13.6c1.2 3.9 1.2 5.2 0 6.4m199.5 2.5c-1.2 1.2-3.7 2.5-5 2.5H1440c-2.5 0-3.7-1.2-5-2.5-1.2-1.2-2.5-3.7-2.5-5V933.8c0-18.6-3.7-32.2-11.2-38.4-7.4-7.4-17.3-9.9-29.7-9.9h-11.2c-3.7 0-8.7 1.2-13.6 2.5-5 1.2-9.9 2.5-13.6 3.7-5 1.2-8.7 2.5-13.6 5V1059c0 2.5-1.2 3.7-2.5 5-1.2 1.2-3.7 2.5-5 2.5h-18.6c-2.5 0-3.7-1.2-5-2.5-1.2-1.2-2.5-3.7-2.5-5V790.1c0-2.5 1.2-3.7 2.5-5 1.2-1.2 2.5-2.5 5-2.5h18.6c2.5 0 3.7 1.2 5 2.5 1.2 1.2 2.5 3.7 2.5 5v76.8c8.7-3.7 18.6-7.4 29.7-8.7 11.2-2.5 19.8-2.5 27.3-2.5 9.9 0 18.6 1.2 27.3 5 8.7 2.5 14.9 7.4 21.1 13.6 6.2 6.2 11.2 14.9 13.6 24.8 3.7 9.9 5 22.3 5 35.9v124c-.1 0-.1 2.4-1.3 3.7m206.9-49.6c-3.7 11.2-8.7 21.1-16.1 28.5-7.4 7.4-16.1 13.6-26 18.6-9.9 5-22.3 6.2-35.9 6.2s-26-2.5-35.9-6.2c-9.9-5-18.6-11.2-26-18.6-7.4-7.4-12.4-17.3-16.1-28.5s-5-23.5-5-37.2v-28.5c0-13.6 1.2-26 5-37.2 3.7-11.2 8.7-21.1 16.1-28.5 7.4-7.4 16.1-13.6 26-18.6 9.9-5 22.3-6.2 35.9-6.2 13.6 0 26 2.5 35.9 6.2 9.9 5 18.6 11.2 26 18.6 7.4 7.4 12.4 17.3 16.1 28.5 3.7 11.2 5 23.5 5 37.2v28.5c0 13.7-1.3 26.1-5 37.2m-27.2-65.7c0-19.8-3.7-34.7-12.4-45.8-7.4-11.2-21.1-17.3-38.4-17.3-17.3 0-29.7 5-38.4 16.1-7.4 11.2-12.4 26-12.4 45.8v28.5c0 19.8 3.7 34.7 12.4 45.8 7.4 11.2 21.1 17.3 38.4 17.3s29.7-6.2 38.4-16.1c8.7-11.2 12.4-26 12.4-45.8v-28.5z"/><path class="st4" d="M1946.8 1062.7c-1.2 1.2-3.7 2.5-5 2.5h-18.6c-2.5 0-3.7-1.2-5-2.5-1.2-1.2-2.5-3.7-2.5-5V833.5l-1.2 1.2-53.3 111.5c-2.5 3.7-3.7 6.2-6.2 8.7-2.5 1.2-6.2 2.5-9.9 2.5h-17.3c-5 0-8.7-1.2-11.2-2.5-2.5-1.2-5-5-6.2-8.7l-53.3-111.5s0-1.2-1.2-1.2v224.2c0 2.5-1.2 3.7-2.5 5-1.2 1.2-3.7 2.5-5 2.5h-18.6c-2.5 0-3.7-1.2-5-2.5-1.2-1.2-2.5-3.7-2.5-5V796.3c0-2.5 1.2-5 3.7-7.4 2.5-2.5 5-3.7 7.4-3.7h23.5c3.7 0 6.2 0 7.4 1.2 1.2 1.2 2.5 2.5 3.7 5l62 128.9c1.2 2.5 2.5 3.7 5 3.7 1.2 0 3.7-1.2 5-3.7l62-128.9c1.2-2.5 2.5-3.7 3.7-5 1.2-1.2 3.7-1.2 7.4-1.2h23.5c2.5 0 5 1.2 7.4 3.7 2.5 2.5 3.7 5 3.7 7.4v260.2c1.6 2.5.3 4.9-.9 6.2m215.6 1.2c0 1.2-1.2 1.2-2.5 2.5-3.7 0-8.7 1.2-13.6 1.2h-59.5c-26 0-45.8-5-59.5-16.1-13.6-11.2-19.8-28.5-19.8-53.3v-145c0-24.8 6.2-43.4 19.8-53.3 13.6-11.2 33.5-16.1 59.5-16.1h57c6.2 0 11.2 0 14.9 1.2 1.2 0 2.5 1.2 2.5 2.5s1.2 2.5 1.2 3.7v17.3c0 2.5-1.2 5-3.7 5h-71.9c-9.9 0-17.3 1.2-23.5 2.5-6.2 1.2-11.2 3.7-13.6 6.2-3.7 3.7-5 7.4-6.2 12.4-1.2 5-1.2 11.2-1.2 18.6v52h115.2c2.5 0 3.7 1.2 5 2.5 1.2 1.2 2.5 3.7 2.5 5v13.6c0 2.5-1.2 3.7-2.5 5-1.2 1.2-3.7 2.5-5 2.5h-115.2V997c0 7.4 0 13.6 1.2 18.6 1.2 5 3.7 8.7 6.2 12.4 3.7 3.7 7.4 5 13.6 6.2 6.2 1.2 13.6 2.5 23.5 2.5h71.9c2.5 0 3.7 1.2 3.7 5v18.6c1.2 1.1 1.2 2.4 0 3.6m232.9-61.9c-5 14.9-12.4 27.3-22.3 35.9-9.9 9.9-22.3 17.3-35.9 21.1-13.6 5-29.7 7.4-47.1 7.4h-21.1c-7.5 0-13.6 0-19.8-1.2-6.2 0-11.2-1.2-16.1-1.2-5 0-8.7-1.2-11.2-1.2-5-1.2-7.4-3.7-7.4-9.9V796.3c0-5 2.5-8.7 7.4-9.9 2.5 0 6.2-1.2 11.2-1.2s9.9-1.2 16.1-1.2c6.2 0 12.4-1.2 19.8-1.2h21.1c17.3 0 32.2 2.5 47.1 6.2 13.6 5 26 11.2 35.9 21.1 9.9 9.9 17.3 22.3 22.3 35.9 5 14.9 7.4 32.2 7.4 52v50.8c.1 22.2-2.4 39.5-7.4 53.2m-26-102.9c0-17.3-2.5-31-6.2-42.1-3.7-11.2-9.9-19.8-16.1-27.3-7.4-6.2-14.9-11.2-24.8-13.6-9.9-2.5-19.8-3.7-31-3.7h-22.3c-6.2 0-12.4 0-18.6 1.2v224.3c6.2 0 12.4 1.2 18.6 1.2h22.3c11.2 0 21.1-1.2 31-3.7 9.9-2.5 18.6-7.4 24.8-14.9 7.4-6.2 12.4-16.1 16.1-27.3s6.2-24.8 6.2-42.1v-52zm120.2 163.6c-1.2 1.2-2.5 2.5-5 2.5h-21.1c-2.5 0-3.7-1.2-5-2.5-1.2-1.2-2.5-3.7-2.5-5V792.6c0-2.5 1.2-3.7 2.5-5s2.5-2.5 5-2.5h21.1c2.5 0 3.7 1.2 5 2.5 1.2 1.2 2.5 2.5 2.5 5v265.2c-1.3 1.2-1.3 3.6-2.5 4.9m223-2.5c-1.2 1.2-3.7 2.5-5 2.5-3.7 1.2-7.4 1.2-12.4 2.5-3.7 0-8.7 1.2-13.6 1.2-5 0-9.9 1.2-16.1 1.2h-21.1c-11.2 0-23.5-1.2-34.7-5-11.2-3.7-22.3-9.9-32.2-18.6s-17.3-21.1-23.5-35.9c-6.2-14.9-8.7-33.5-8.7-57v-52c0-23.5 2.5-42.1 8.7-57 6.2-14.9 13.6-27.3 23.5-35.9 9.9-8.7 19.8-14.9 32.2-18.6 11.2-3.7 23.5-5 34.7-5 12.4 0 23.5 1.2 34.7 2.5 11.2 1.2 19.8 2.5 28.5 3.7 3.7 0 6.2 2.5 6.2 5v18.6c0 1.2 0 2.5-1.2 2.5 0 1.2-1.2 1.2-3.7 1.2h-1.2c-3.7 0-7.4 0-12.4-1.2-5 0-9.9-1.2-16.1-1.2s-11.2-1.2-17.3-1.2h-17.3c-8.7 0-17.3 1.2-26 3.7-7.4 2.5-14.9 7.4-21.1 14.9-6.2 6.2-9.9 14.9-13.6 26s-5 24.8-5 40.9v52c0 16.1 1.2 29.7 5 39.7 3.7 11.2 7.4 19.8 13.6 26s12.4 11.2 21.1 14.9c7.4 2.5 16.1 5 26 5h16.1c6.2 0 11.2 0 17.3-1.2 6.2 0 11.2 0 16.1-1.2 5 0 8.7-1.2 12.4-1.2h1.2c3.7 0 6.2 2.5 6.2 6.2v14.9c1.2 4.6 0 5.9-1.3 7.1m69.4 2.5c-1.2 1.2-2.5 2.5-5 2.5h-18.6c-2.5 0-3.7-1.2-5-2.5-1.2-1.2-2.5-3.7-2.5-5V1023c0-2.5 1.2-3.7 2.5-5 1.2-1.2 2.5-2.5 5-2.5h18.6c2.5 0 3.7 1.2 5 2.5 1.2 1.2 2.5 2.5 2.5 5v33.5c0 2.5-1.2 3.7-2.5 6.2m189.6-18.6c-13.6 16.1-33.5 23.5-62 23.5-6.2 0-12.4 0-21.1-1.2-8.7-1.2-16.1-1.2-23.5-2.5v66.9c0 2.5-1.2 3.7-2.5 5-1.2 1.2-2.5 2.5-5 2.5h-18.6c-2.5 0-3.7-1.2-5-2.5-1.2-1.2-1.2-2.5-1.2-5V873.1c0-2.5 0-5 1.2-6.2 1.2-1.2 2.5-2.5 6.2-2.5 9.9-2.5 21.1-5 33.5-6.2s23.5-2.5 35.9-2.5c13.6 0 26 2.5 35.9 6.2 9.9 5 18.6 11.2 26 18.6 6.2 7.4 11.2 17.3 14.9 29.7 3.7 11.2 5 24.8 5 38.4v27.3c.1 28.5-6.1 52.1-19.7 68.2m-12.4-95.4c0-9.9-1.2-18.6-2.5-27.3-1.2-7.4-3.7-14.9-7.4-21.1-3.7-6.2-8.7-9.9-14.9-13.6-6.2-3.7-13.6-5-23.5-5-7.4 0-16.1 0-23.5 1.2-7.4 1.2-14.9 1.2-19.8 2.5v148.7c6.2 1.2 13.6 2.5 22.3 2.5s16.1 1.2 22.3 1.2c8.7 0 17.3-1.2 23.5-3.7 6.2-2.5 11.2-7.4 14.9-12.4 3.7-5 6.2-12.4 7.4-19.8 1.2-7.4 2.5-17.3 2.5-27.3v-26h-1.3zm111.5 114c-1.2 1.2-2.5 2.5-5 2.5h-19.8c-2.5 0-3.7-1.2-5-2.5-1.2-1.2-2.5-3.7-2.5-5V788.8c0-2.5 0-3.7 2.5-5 1.2-1.2 2.5-2.5 5-2.5h19.8c2.5 0 3.7 1.2 5 2.5 1.2 1.2 2.5 2.5 2.5 5v267.6c0 2.6-1.2 5-2.5 6.3M684.1 1258.5c5 3.7 11.2 5 18.6 5 11.2 0 17.3-6.2 17.3-14.9 0-7.4-5-12.4-16.1-16.1-13.6-5-22.3-12.4-22.3-23.5 0-13.6 11.2-22.3 27.3-22.3 8.7 0 14.9 2.5 18.6 3.7l-2.5 8.7c-2.5-1.2-8.7-3.7-16.1-3.7-11.2 0-16.1 7.4-16.1 12.4 0 7.4 5 11.2 16.1 16.1 13.6 5 21.1 12.4 21.1 24.8s-9.9 24.8-29.7 24.8c-7.4 0-17.3-2.5-21.1-5l4.9-10zm74.4-64.5c0 3.7-2.5 6.2-7.4 6.2-3.7 0-6.2-2.5-6.2-6.2s2.5-7.4 6.2-7.4c4.9 1.2 7.4 3.7 7.4 7.4m-12.4 17.4h11.2v60.7h-11.2v-60.7zm34.7 32.2c0 14.9 9.9 21.1 21.1 21.1 7.4 0 12.4-1.2 16.1-3.7l2.5 7.4c-3.7 1.2-11.2 3.7-19.8 3.7-18.6 0-29.7-12.4-29.7-31s11.2-32.2 28.5-32.2c19.8 0 24.8 17.3 24.8 28.5v5h-43.4v1.2zm32.2-8.7c0-7.4-2.5-17.3-14.9-17.3-11.2 0-16.1 9.9-16.1 17.3h31zm66.9 34.7c-2.5 1.2-8.7 3.7-17.3 3.7-18.6 0-29.7-12.4-29.7-31s12.4-32.2 32.2-32.2c6.2 0 12.4 1.2 14.9 3.7l-2.5 8.7c-2.5-1.2-6.2-2.5-12.4-2.5-13.6 0-21.1 9.9-21.1 22.3 0 13.6 8.7 22.3 21.1 22.3 6.2 0 9.9-1.2 13.6-2.5l1.2 7.5zm-2.5-84.2l-14.9 17.3h-7.4l11.2-17.3h11.1zm42.2 2.4h11.2v40.9c2.5-3.7 5-6.2 6.2-8.7l26-31h13.6l-29.7 35.9 32.2 48.3h-12.4l-28.5-43.4-7.4 8.7v32.2h-11.2v-82.9zm68.1-4.9h11.2v88h-11.2zm40.9 11.1c0 3.7-2.5 6.2-7.4 6.2-3.7 0-6.2-2.5-6.2-6.2s2.5-7.4 6.2-7.4c4.9 1.2 7.4 3.7 7.4 7.4m-12.4 17.4h11.2v60.7h-11.2v-60.7zm29.8 16.1v-16.1h9.9l1.2 9.9c2.5-6.2 9.9-11.2 19.8-11.2 8.7 0 21.1 5 21.1 26v35.9h-11.2v-34.7c0-9.9-3.7-17.3-13.6-17.3-7.4 0-12.4 5-14.9 11.2 0 1.2-1.2 3.7-1.2 5v35.9H1046v-44.6zm80.5-33.5c0 3.7-2.5 6.2-7.4 6.2-3.7 0-6.2-2.5-6.2-6.2s2.5-7.4 6.2-7.4c4.9 1.2 7.4 3.7 7.4 7.4m-12.4 17.4h11.2v60.7h-11.2v-60.7zm39.7 27.2c1.2-2.5 3.7-5 5-7.4l17.3-21.1h13.6l-23.5 24.8 26 35.9h-13.6l-18.6-28.5-5 6.2v22.3h-11.2v-88h11.2v55.8h-1.2zm74.3-50.8c5-1.2 12.4-1.2 21.1-1.2 11.2 0 18.6 2.5 23.5 7.4 5 3.7 7.4 9.9 7.4 17.3s-2.5 13.6-6.2 17.3c-6.2 6.2-14.9 8.7-26 8.7-3.7 0-6.2 0-8.7-1.2v33.5H1228v-81.8zm11.2 40.9c2.5 0 5 1.2 8.7 1.2 13.6 0 21.1-6.2 21.1-17.3s-7.4-16.1-19.8-16.1c-5 0-8.7 0-9.9 1.2-.1 0-.1 31-.1 31zm50.8 31c3.7 2.5 8.7 3.7 14.9 3.7 7.4 0 11.2-3.7 11.2-8.7s-2.5-7.4-11.2-11.2c-11.2-3.7-16.1-9.9-16.1-17.3 0-9.9 7.4-17.3 21.1-17.3 6.2 0 11.2 1.2 14.9 3.7l-2.5 7.4c-2.5-1.2-6.2-3.7-12.4-3.7s-9.9 3.7-9.9 8.7 3.7 7.4 11.2 9.9c9.9 3.7 16.1 8.7 16.1 18.6 0 11.2-8.7 18.6-22.3 18.6-6.2 0-12.4-1.2-17.3-3.7l2.3-8.7zm54.5-48.3l12.4 35.9c1.2 3.7 2.5 8.7 3.7 12.4 1.2-3.7 2.5-8.7 3.7-12.4l12.4-35.9h11.2l-16.1 43.4c-7.4 21.1-13.6 31-21.1 37.2-5 5-11.2 6.2-13.6 7.4l-2.5-8.7c2.5-1.2 6.2-2.5 9.9-5 2.5-2.5 6.2-6.2 8.7-12.4 0-1.2 1.2-2.5 1.2-2.5s0-1.2-1.2-2.5l-22.3-55.8h13.6v-1.1zm95.4 58.2c-2.5 1.2-8.7 3.7-17.3 3.7-18.6 0-29.7-12.4-29.7-31s12.4-32.2 32.2-32.2c6.2 0 12.4 1.2 14.9 3.7l-2.5 8.7c-2.5-1.2-6.2-2.5-12.4-2.5-13.6 0-21.1 9.9-21.1 22.3 0 13.6 8.7 22.3 21.1 22.3 6.2 0 9.9-1.2 13.6-2.5l1.2 7.5zm12.4-86.7h11.2v37.2c1.2-3.7 5-6.2 7.4-7.4 3.7-2.5 7.4-2.5 11.2-2.5 8.7 0 21.1 5 21.1 26v35.9H1492v-34.7c0-9.9-3.7-17.3-13.6-17.3-7.4 0-12.4 5-14.9 11.2 0 1.2-1.2 3.7-1.2 5v35.9h-11.2V1183h1.3zm123.9 58.2c0 22.3-14.9 32.2-29.7 32.2-16.1 0-28.5-12.4-28.5-31 0-19.8 13.6-32.2 29.7-32.2s28.5 12.4 28.5 31m-48.3 0c0 13.6 7.4 23.5 18.6 23.5 9.9 0 18.6-9.9 18.6-23.5 0-9.9-5-23.5-17.3-23.5-13.7 0-19.9 12.4-19.9 23.5m61.9-58.2h11.2v88h-11.2zm83 58.2c0 22.3-14.9 32.2-29.7 32.2-16.1 0-28.5-12.4-28.5-31 0-19.8 13.6-32.2 29.7-32.2 17.4 0 28.5 12.4 28.5 31m-47 0c0 13.6 7.4 23.5 18.6 23.5 9.9 0 18.6-9.9 18.6-23.5 0-9.9-5-23.5-17.3-23.5-15 0-19.9 12.4-19.9 23.5m112.7 21.1c0 13.6-2.5 22.3-8.7 27.3-6.2 5-14.9 7.4-22.3 7.4s-14.9-1.2-19.8-5l2.5-8.7c3.7 2.5 9.9 5 17.3 5 11.2 0 19.8-6.2 19.8-21.1v-6.2c-3.7 6.2-9.9 9.9-18.6 9.9-14.9 0-26-12.4-26-29.7 0-19.8 13.6-32.2 27.3-32.2 9.9 0 16.1 5 18.6 9.9v-8.7h9.9v52.1zm-11.1-27.3c0-2.5 0-3.7-1.2-5-2.5-6.2-7.4-11.2-14.9-11.2-9.9 0-17.3 8.7-17.3 22.3 0 12.4 6.2 21.1 17.3 21.1 6.2 0 12.4-3.7 14.9-11.2 1.2-2.5 1.2-3.7 1.2-6.2v-9.8zm39.6-40.9c0 3.7-2.5 6.2-7.4 6.2-3.7 0-6.2-2.5-6.2-6.2s2.5-7.4 6.2-7.4c4.9 1.2 7.4 3.7 7.4 7.4m-11.1 17.4h11.2v60.7H1756v-60.7zm70.6 58.2c-2.5 1.2-8.7 3.7-17.3 3.7-18.6 0-29.7-12.4-29.7-31s12.4-32.2 32.2-32.2c6.2 0 12.4 1.2 14.9 3.7l-2.5 8.7c-2.5-1.2-6.2-2.5-12.4-2.5-13.6 0-21.1 9.9-21.1 22.3 0 13.6 8.7 22.3 21.1 22.3 6.2 0 9.9-1.2 13.6-2.5l1.2 7.5zm6.2-4.9l27.3-35.9c2.5-3.7 5-6.2 7.4-9.9h-32.2v-8.7h45.8v7.4l-27.3 34.7c-2.5 3.7-5 6.2-7.4 9.9h34.7v8.7h-48.3v-6.2zm60.7-37.2v-16.1h9.9l1.2 9.9c2.5-6.2 9.9-11.2 19.8-11.2 8.7 0 21.1 5 21.1 26v35.9h-12.4v-34.7c0-9.9-3.7-17.3-13.6-17.3-7.4 0-12.4 5-14.9 11.2 0 1.2-1.2 3.7-1.2 5v35.9h-11.2v-44.6h1.3zm122.7 13.6c0 22.3-14.9 32.2-29.7 32.2-16.1 0-28.5-12.4-28.5-31 0-19.8 13.6-32.2 29.7-32.2s28.5 12.4 28.5 31m-47.1 0c0 13.6 7.4 23.5 18.6 23.5 9.9 0 18.6-9.9 18.6-23.5 0-9.9-5-23.5-17.3-23.5-15 0-19.9 12.4-19.9 23.5m57-7.4h31v7.4h-31zm44.6-45.9c5-1.2 12.4-1.2 21.1-1.2 11.2 0 18.6 2.5 23.5 7.4 5 3.7 7.4 9.9 7.4 17.3s-2.5 13.6-6.2 17.3c-6.2 6.2-14.9 8.7-26 8.7-3.7 0-6.2 0-8.7-1.2v33.5h-11.2v-81.8zm9.9 40.9c2.5 0 5 1.2 8.7 1.2 12.4 0 21.1-6.2 21.1-17.3s-7.4-16.1-19.8-16.1c-5 0-8.7 0-9.9 1.2l-.1 31zm50.8 31c3.7 2.5 8.7 3.7 14.9 3.7 7.4 0 11.2-3.7 11.2-8.7s-2.5-7.4-11.2-11.2c-11.2-3.7-16.1-9.9-16.1-17.3 0-9.9 7.4-17.3 21.1-17.3 6.2 0 11.2 1.2 14.9 3.7l-2.5 7.4c-2.5-1.2-6.2-3.7-12.4-3.7s-9.9 3.7-9.9 8.7 3.7 7.4 11.2 9.9c9.9 3.7 16.1 8.7 16.1 18.6 0 11.2-8.7 18.6-22.3 18.6-6.2 0-12.4-1.2-17.3-3.7l2.3-8.7zm54.5-48.3l12.4 35.9c1.2 3.7 2.5 8.7 3.7 12.4 1.2-3.7 2.5-8.7 3.7-12.4l12.4-35.9h11.2l-16.1 43.4c-7.4 21.1-13.6 31-21.1 37.2-5 5-11.2 6.2-13.6 7.4l-2.5-8.7c2.5-1.2 6.2-2.5 9.9-5 2.5-2.5 6.2-6.2 8.7-12.4 0-1.2 1.2-2.5 1.2-2.5s0-1.2-1.2-2.5l-22.3-55.8h13.6v-1.1zm95.4 58.2c-2.5 1.2-8.7 3.7-17.3 3.7-18.6 0-29.7-12.4-29.7-31s12.4-32.2 32.2-32.2c6.2 0 12.4 1.2 14.9 3.7l-2.5 8.7c-2.5-1.2-6.2-2.5-12.4-2.5-13.6 0-21.1 9.9-21.1 22.3 0 13.6 8.7 22.3 21.1 22.3 6.2 0 9.9-1.2 13.6-2.5l1.2 7.5zm13.7-86.7h11.2v37.2c1.2-3.7 5-6.2 7.4-7.4 3.7-2.5 7.4-2.5 11.2-2.5 7.4 0 21.1 5 21.1 26v35.9h-11.2v-34.7c0-9.9-3.7-17.3-13.6-17.3-7.4 0-12.4 5-14.9 11.2 0 1.2-1.2 3.7-1.2 5v35.9h-11.2V1183h1.2zm80.5 11.1c0 3.7-2.5 6.2-7.4 6.2-3.7 0-6.2-2.5-6.2-6.2s2.5-7.4 6.2-7.4c4.9 1.2 7.4 3.7 7.4 7.4m-12.4 17.4h11.2v60.7h-11.2v-60.7zm71.9 45.8c0 5 0 9.9 1.2 14.9h-9.9l-1.2-7.4c-3.7 5-9.9 8.7-18.6 8.7-12.4 0-18.6-8.7-18.6-17.3 0-14.9 12.4-22.3 35.9-22.3v-1.2c0-5-1.2-13.6-13.6-13.6-6.2 0-11.2 1.2-16.1 5l-2.5-7.4c5-3.7 12.4-5 19.8-5 18.6 0 22.3 12.4 22.3 24.8v21.1h1.3zm-11.2-16.1c-12.4 0-24.8 2.5-24.8 13.6 0 7.4 5 9.9 9.9 9.9 7.4 0 13.6-5 14.9-9.9v-13.6zm40.9-44.6v14.9h16.1v8.7h-16.1v32.2c0 7.4 2.5 11.2 8.7 11.2 2.5 0 5 0 6.2-1.2v8.7c-2.5 1.2-5 1.2-9.9 1.2-5 0-8.7-1.2-11.2-5-2.5-3.7-3.7-8.7-3.7-16.1v-33.5h-9.9v-8.7h9.9v-11.2l9.9-1.2zm28.5 33.5v-18.6h9.9v12.4c2.5-8.7 9.9-13.6 16.1-13.6h2.5v9.9h-3.7c-7.4 0-13.6 6.2-14.9 13.6v37.2H2492V1230h1.2zm47.1-18.6l12.4 35.9c1.2 3.7 2.5 8.7 3.7 12.4 1.2-3.7 2.5-8.7 3.7-12.4l12.4-35.9h11.2l-16.1 43.4c-7.4 21.1-13.6 31-21.1 37.2-5 5-11.2 6.2-13.6 7.4l-2.5-8.7c2.5-1.2 6.2-2.5 9.9-5 2.5-2.5 6.2-6.2 8.7-12.4 0-1.2 1.2-2.5 1.2-2.5s0-1.2-1.2-2.5l-22.3-55.8h13.6v-1.1zm95.4 58.2c-2.5 1.2-8.7 3.7-17.3 3.7-18.6 0-29.7-12.4-29.7-31s12.4-32.2 32.2-32.2c6.2 0 12.4 1.2 14.9 3.7l-2.5 8.7c-2.5-1.2-6.2-2.5-12.4-2.5-13.6 0-21.1 9.9-21.1 22.3 0 13.6 8.7 22.3 21.1 22.3 6.2 0 9.9-1.2 13.6-2.5l1.2 7.5zm6.2-4.9l27.3-35.9c2.5-3.7 5-6.2 7.4-9.9h-32.2v-8.7h45.8v7.4l-27.3 34.7c-2.5 3.7-5 6.2-7.4 9.9h34.7v8.7h-48.3v-6.2zm59.5-37.2v-16.1h9.9l1.2 9.9c2.5-6.2 9.9-11.2 19.8-11.2 8.7 0 21.1 5 21.1 26v35.9h-11.2v-34.7c0-9.9-3.7-17.3-13.6-17.3-7.4 0-12.4 5-14.9 11.2 0 1.2-1.2 3.7-1.2 5v35.9h-11.2v-44.6zm71.9-16.1l12.4 35.9c1.2 3.7 2.5 8.7 3.7 12.4 1.2-3.7 2.5-8.7 3.7-12.4l12.4-35.9h11.2l-16.1 43.4c-7.4 21.1-13.6 31-21.1 37.2-5 5-11.2 6.2-13.6 7.4l-2.5-8.7c2.5-1.2 6.2-2.5 9.9-5 2.5-2.5 6.2-6.2 8.7-12.4 0-1.2 1.2-2.5 1.2-2.5s0-1.2-1.2-2.5l-22.3-55.8h13.6v-1.1zm95.4 58.2c-2.5 1.2-8.7 3.7-17.3 3.7-18.6 0-29.7-12.4-29.7-31s12.4-32.2 32.2-32.2c6.2 0 12.4 1.2 14.9 3.7l-2.5 8.7c-2.5-1.2-6.2-2.5-12.4-2.5-13.6 0-21.1 9.9-21.1 22.3 0 13.6 8.7 22.3 21.1 22.3 6.2 0 9.9-1.2 13.6-2.5l1.2 7.5zm13.6-86.7h11.2v37.2c1.2-3.7 5-6.2 7.4-7.4 3.7-2.5 7.4-2.5 11.2-2.5 8.7 0 21.1 5 21.1 26v35.9H2922v-34.7c0-9.9-3.7-17.3-13.6-17.3-7.4 0-12.4 5-14.9 11.2 0 1.2-1.2 3.7-1.2 5v35.9h-11.2V1183h1.2z"/></svg>